<?xml version="1.0" encoding="utf-8"?>
<!-- Generator: Adobe Illustrator 19.0.0, SVG Export Plug-In . SVG Version: 6.00 Build 0)  -->
<svg version="1.1" id="Слой_1" xmlns="http://www.w3.org/2000/svg" xmlns:xlink="http://www.w3.org/1999/xlink" x="0px" y="0px"
	 viewBox="0 0 28 28" style="enable-background:new 0 0 28 28;" xml:space="preserve">
<style type="text/css">
	.st0{fill:#1D1D1B;}
</style>
<path id="XMLID_237_" class="st0" d="M19.4,14.5C19.5,14.4,19.5,14.4,19.4,14.5c0.1-0.1,0.1-0.2,0.1-0.2c0,0,0,0,0-0.1
	c0-0.1,0-0.1,0-0.2l0,0l0,0c0-0.1,0-0.1,0-0.2c0,0,0,0,0-0.1c0,0,0-0.1,0-0.1c0,0,0,0,0-0.1c0,0,0-0.1-0.1-0.1c0,0,0,0,0-0.1
	c0,0-0.1-0.1-0.1-0.1v0c0,0,0,0,0,0l-4.4-4.4c-0.4-0.4-1.1-0.4-1.5,0h0c-0.4,0.4-0.4,1.1,0,1.5l2.7,2.7H7.5c-0.6,0-1.1,0.5-1.1,1.1
	s0.5,1.1,1.1,1.1H16l-2.7,2.7c-0.4,0.4-0.4,1.1,0,1.5h0c0.4,0.4,1.1,0.4,1.5,0l4.4-4.4c0,0,0,0,0,0v0c0,0,0.1-0.1,0.1-0.1
	c0,0,0,0,0-0.1C19.4,14.5,19.4,14.5,19.4,14.5z"/>
<g id="XMLID_61_">
	<path id="XMLID_13_" class="st0" d="M14,2c6.6,0,12,5.4,12,12s-5.4,12-12,12S2,20.6,2,14S7.4,2,14,2 M14,0C6.3,0,0,6.3,0,14
		s6.3,14,14,14c7.7,0,14-6.3,14-14S21.7,0,14,0L14,0z"/>
</g>
</svg>
