<?xml version="1.0" encoding="utf-8"?>
<!-- Generator: Adobe Illustrator 19.0.0, SVG Export Plug-In . SVG Version: 6.00 Build 0)  -->
<svg version="1.1" id="Слой_1" xmlns="http://www.w3.org/2000/svg" xmlns:xlink="http://www.w3.org/1999/xlink" x="0px" y="0px"
	 viewBox="0 0 28 28" style="enable-background:new 0 0 28 28;" xml:space="preserve">
<style type="text/css">
	.st0{fill:#1D1D1B;}
</style>
<g id="XMLID_6_">
	<path id="XMLID_29_" class="st0" d="M14,0C6.3,0,0,6.3,0,14s6.3,14,14,14c7.7,0,14-6.3,14-14S21.7,0,14,0z M19.6,14L19.6,14
		c0,0.1,0,0.1,0,0.2c0,0,0,0,0,0.1c0,0,0,0.1,0,0.1c0,0,0,0,0,0.1c0,0,0,0.1-0.1,0.1c0,0,0,0,0,0.1c0,0-0.1,0.1-0.1,0.1v0
		c0,0,0,0,0,0l-4.4,4.4c-0.4,0.4-1.1,0.4-1.5,0c-0.4-0.4-0.4-1.1,0-1.5l2.7-2.7H7.5c-0.6,0-1.1-0.5-1.1-1.1s0.5-1.1,1.1-1.1H16
		l-2.7-2.7c-0.4-0.4-0.4-1.1,0-1.5c0.4-0.4,1.1-0.4,1.5,0l4.4,4.4c0,0,0,0,0,0v0c0,0,0.1,0.1,0.1,0.1c0,0,0,0,0,0.1
		c0,0,0,0.1,0.1,0.1c0,0,0,0,0,0.1c0,0,0,0.1,0,0.1c0,0,0,0,0,0.1C19.6,13.9,19.6,13.9,19.6,14L19.6,14z"/>
</g>
</svg>
