<?xml version="1.0" encoding="utf-8"?>
<!-- Generator: Adobe Illustrator 19.0.0, SVG Export Plug-In . SVG Version: 6.00 Build 0)  -->
<svg version="1.1" id="Слой_1" xmlns="http://www.w3.org/2000/svg" xmlns:xlink="http://www.w3.org/1999/xlink" x="0px" y="0px"
	 viewBox="0 0 394.8 344.2" style="enable-background:new 0 0 394.8 344.2;" xml:space="preserve">
<style type="text/css">
	.st0{stroke:#000000;stroke-width:3;stroke-miterlimit:10;}
</style>
<g>
	<path class="st0" d="M251.7,219.3c-30.7-25.2-63.8-42.5-73.1-47.1v-45.8c6.6-5.3,10.4-13.3,10.4-21.8V52.9
		c0-28.3-23-51.4-51.4-51.4h-11.1c-28.3,0-51.4,23-51.4,51.4v51.7c0,8.6,3.8,16.5,10.4,21.8v45.8c-9.3,4.6-42.4,21.9-73.1,47.1
		c-6.9,5.7-10.9,14.1-10.9,23v53.4c0,2.6,2.2,4.8,4.8,4.8c2.6,0,4.8-2.2,4.8-4.8v-53.4c0-6.1,2.7-11.8,7.4-15.7
		c31.7-26,66.1-43.4,72.6-46.6c2.5-1.2,4-3.7,4-6.4v-49.8c0-1.6-0.8-3.1-2.2-4c-5.2-3.4-8.2-9.2-8.2-15.4V52.9
		c0-23,18.7-41.8,41.8-41.8h11.1c23,0,41.8,18.7,41.8,41.8v51.7c0,6.2-3.1,11.9-8.2,15.4c-1.4,0.9-2.2,2.4-2.2,4v49.8
		c0,2.7,1.5,5.2,4,6.4c6.6,3.2,41,20.6,72.6,46.6c4.6,3.8,7.4,9.5,7.4,15.7v53.4c0,2.6,2.2,4.8,4.8,4.8c2.6,0,4.8-2.2,4.8-4.8v-53.4
		C262.5,233.4,258.6,225,251.7,219.3L251.7,219.3z M251.7,219.3"/>
	<path class="st0" d="M153.9,188.1c0-2.6-2.2-4.8-4.8-4.8c-2.6,0-4.8,2.2-4.8,4.8c0,3.6-1.6,6.9-4.1,9.1c-0.5,0.2-0.9,0.6-1.2,1
		c-2,1.4-4.4,2.2-7,2.2c-6.8,0-12.3-5.5-12.3-12.3c0-2.6-2.2-4.8-4.8-4.8c-2.6,0-4.8,2.2-4.8,4.8c0,5.5,2,10.5,5.4,14.3l-5.2,120.6
		c-0.1,1.4,0.5,2.8,1.6,3.8l16.4,14.8c0.9,0.8,2.1,1.2,3.2,1.2c1.1,0,2.3-0.4,3.2-1.2l16.6-15c1-1,1.7-2.3,1.6-3.8l-5.4-119.2
		C151.4,199.5,153.9,194.1,153.9,188.1L153.9,188.1z M131.4,331.5l-11.5-10.4l4.9-112.3c2.2,0.8,4.7,1.2,7.2,1.2
		c2.2,0,4.2-0.3,6.2-0.9l5,111.8L131.4,331.5z M131.4,331.5"/>
	<path class="st0" d="M369.2,9.3H252c-13.3,0-24.1,10.8-24.1,24.1v71.5c0,13.3,10.8,24.1,24.1,24.1h10.3v29.4c0,1.9,1.1,3.7,2.9,4.4
		c0.6,0.2,1.3,0.4,1.9,0.4c1.2,0,2.4-0.5,3.4-1.4l34.3-32.8h64.5c13.3,0,24.1-10.8,24.1-24.1V33.4C393.3,20.1,382.5,9.3,369.2,9.3
		L369.2,9.3z M383.7,104.9c0,8-6.5,14.5-14.5,14.5h-66.4c-1.2,0-2.4,0.5-3.4,1.4L272,147.2v-23c0-2.6-2.2-4.8-4.8-4.8h-15.1
		c-8,0-14.5-6.5-14.5-14.5V33.4c0-8,6.5-14.5,14.5-14.5h117.2c8,0,14.5,6.5,14.5,14.5V104.9z M383.7,104.9"/>
	<path class="st0" d="M351.7,50.3h-82.2c-2.6,0-4.8,2.2-4.8,4.8c0,2.6,2.2,4.8,4.8,4.8h82.2c2.6,0,4.8-2.2,4.8-4.8
		C356.5,52.5,354.3,50.3,351.7,50.3L351.7,50.3z M351.7,50.3"/>
	<path class="st0" d="M351.7,79.6h-82.2c-2.6,0-4.8,2.2-4.8,4.8c0,2.6,2.2,4.8,4.8,4.8h82.2c2.6,0,4.8-2.2,4.8-4.8
		C356.5,81.7,354.3,79.6,351.7,79.6L351.7,79.6z M351.7,79.6"/>
</g>
</svg>
