<?xml version="1.0" encoding="utf-8"?>
<!-- Generator: Adobe Illustrator 19.0.0, SVG Export Plug-In . SVG Version: 6.00 Build 0)  -->
<svg version="1.1" id="Слой_1" xmlns="http://www.w3.org/2000/svg" xmlns:xlink="http://www.w3.org/1999/xlink" x="0px" y="0px"
	 viewBox="0 0 190.8 161.6" style="enable-background:new 0 0 190.8 161.6;" xml:space="preserve">
<path d="M0,80.8v76.7c0,2.2,1.8,4.1,4.1,4.1h174c2.2,0,4.1-1.8,4.1-4.1V8.1h4.6c2.2,0,4.1-1.8,4.1-4.1c0-2.2-1.8-4-4.1-4H50.6
	c-2.2,0-4.1,1.8-4.1,4c0,2.2,1.8,4.1,4.1,4.1h4.6v68.6H4.1C1.8,76.7,0,78.6,0,80.8z M174,153.5h-68.6V98.8H174V153.5z M115.2,90.7
	l24.5-15.6l24.5,15.6H115.2z M63.4,8.1H174v79.3l-32.1-20.5c-1.3-0.8-3-0.8-4.4,0L99.1,91.3c-1.2,0.7-1.9,2-1.9,3.4v58.7H63.4V8.1z
	 M8.1,84.8h47.2v68.6H8.1V84.8z"/>
<path d="M95.5,28.6H84.7c-2.2,0-4.1,1.8-4.1,4.1c0,2.2,1.8,4,4.1,4h10.9c2.2,0,4.1-1.8,4.1-4C99.6,30.4,97.8,28.6,95.5,28.6z"/>
<path d="M124.1,28.6h-10.9c-2.2,0-4.1,1.8-4.1,4.1c0,2.2,1.8,4,4.1,4h10.9c2.2,0,4.1-1.8,4.1-4C128.2,30.4,126.4,28.6,124.1,28.6z"
	/>
<path d="M152.7,28.6h-10.9c-2.2,0-4.1,1.8-4.1,4.1c0,2.2,1.8,4,4.1,4h10.9c2.2,0,4.1-1.8,4.1-4C156.8,30.4,155,28.6,152.7,28.6z"/>
<path d="M95.5,49.2H84.7c-2.2,0-4.1,1.8-4.1,4.1c0,2.2,1.8,4,4.1,4h10.9c2.2,0,4.1-1.8,4.1-4C99.6,51.1,97.8,49.2,95.5,49.2z"/>
<path d="M124.1,49.2h-10.9c-2.2,0-4.1,1.8-4.1,4.1c0,2.2,1.8,4,4.1,4h10.9c2.2,0,4.1-1.8,4.1-4C128.2,51.1,126.4,49.2,124.1,49.2z"
	/>
<path d="M152.7,49.2h-10.9c-2.2,0-4.1,1.8-4.1,4.1c0,2.2,1.8,4,4.1,4h10.9c2.2,0,4.1-1.8,4.1-4C156.8,51.1,155,49.2,152.7,49.2z"/>
</svg>
