<?xml version="1.0" encoding="utf-8"?>
<!-- Generator: Adobe Illustrator 19.0.0, SVG Export Plug-In . SVG Version: 6.00 Build 0)  -->
<svg version="1.1" id="Capa_1" xmlns="http://www.w3.org/2000/svg" xmlns:xlink="http://www.w3.org/1999/xlink" x="0px" y="0px"
	 viewBox="-239 109.7 480 342.5" style="enable-background:new -239 109.7 480 342.5;" xml:space="preserve">
<path d="M235,292.8c3.9-7,5.9-14.3,5.9-21.8c0-24.5-20.9-46.5-60.4-63.6c-34.5-14.9-81.7-25.2-133.3-29c-8.1-12.9-21.5-22.1-37-24.6
	c-4.4-25-26.3-44-52.5-44h-9.9c-5.5,0-10,4.5-10,10s4.5,10,10,10h9.9c15.3,0,28.3,10.4,32.1,24.6c-14.3,3.1-26.6,12-34.2,24
	c-51.8,3.7-99.2,14-133.9,28.9c-39.7,17.1-60.7,39.1-60.7,63.7c0,7.5,2,14.8,6,21.8c-4,7.1-6,14.4-6,21.9c0,7.5,2,14.7,5.9,21.7
	c-3.9,7-5.9,14.3-5.9,21.8c0,27,26.3,51.5,73.9,68.9c44.5,16.3,103.5,25.3,166.1,25.3s121.5-9,166.1-25.3
	c47.7-17.5,73.9-41.9,73.9-68.9c0-7.4-2-14.7-5.9-21.7c3.9-7,5.9-14.2,5.9-21.7C241,307.1,239,299.8,235,292.8z M109.2,374.7v-65
	c0,0,0-0.1,0-0.1c0-0.2,0-0.4,0-0.6c0-0.1,0-0.3,0-0.4c0-0.2,0-0.3-0.1-0.5c0-0.2-0.1-0.4-0.1-0.6c0,0,0-0.1,0-0.1
	c0-0.1-0.1-0.2-0.1-0.3c-0.1-0.2-0.1-0.4-0.2-0.6c0-0.1-0.1-0.3-0.1-0.4c-0.1-0.2-0.1-0.4-0.2-0.5c-0.1-0.1-0.1-0.3-0.2-0.4
	c-0.1-0.1-0.1-0.3-0.2-0.4c-0.1-0.2-0.2-0.3-0.3-0.4c-0.1-0.1-0.2-0.2-0.2-0.4c-0.1-0.1-0.2-0.3-0.3-0.4c-0.1-0.1-0.2-0.2-0.3-0.3
	c-0.1-0.1-0.2-0.3-0.4-0.4c-0.1-0.1-0.2-0.2-0.3-0.3c-0.1-0.1-0.2-0.2-0.4-0.3c-0.1-0.1-0.2-0.2-0.4-0.3c-0.1-0.1-0.2-0.2-0.4-0.3
	c-0.1-0.1-0.3-0.2-0.4-0.3c-0.1-0.1-0.2-0.1-0.3-0.2c-0.2-0.1-0.3-0.2-0.5-0.3c-0.1-0.1-0.2-0.1-0.3-0.2c-0.2-0.1-0.4-0.2-0.5-0.2
	c-0.1,0-0.2-0.1-0.4-0.1c-0.2-0.1-0.4-0.1-0.5-0.2c-0.1,0-0.3-0.1-0.4-0.1c-0.2,0-0.3-0.1-0.5-0.1c-0.2,0-0.3-0.1-0.5-0.1
	c-0.1,0-0.3,0-0.4-0.1c-0.2,0-0.4,0-0.6,0c-0.1,0-0.2,0-0.3,0c0,0-0.1,0-0.1,0c-0.2,0-0.4,0-0.5,0c-0.2,0-0.3,0-0.5,0
	c-0.1,0-0.3,0-0.4,0.1c-0.2,0-0.4,0.1-0.6,0.1c0,0-0.1,0-0.1,0c-28.6,6.7-61.8,10.3-96,10.3c-47.5,0-92.1-6.7-125.4-18.9
	c-29.3-10.7-46.8-24.9-46.8-37.8c0-20.5,44.2-45.3,119.1-53.8c-0.3,2.4-0.5,4.9-0.5,7.5c0,29.8,24.3,54.1,54.1,54.1
	s54.1-24.3,54.1-54.1c0-2.5-0.2-5-0.5-7.4c74.3,8.6,118.2,33.3,118.2,53.7c0,8.6-7.9,18-22.4,26.5c0,0,0,0,0,0
	c-0.3,0.2-0.5,0.3-0.7,0.5c0,0-0.1,0.1-0.1,0.1c-0.2,0.2-0.4,0.3-0.6,0.5c-0.1,0.1-0.1,0.1-0.2,0.2c-0.2,0.2-0.3,0.3-0.5,0.5
	c-0.1,0.1-0.1,0.1-0.2,0.2c-0.2,0.2-0.3,0.3-0.4,0.5c-0.1,0.1-0.1,0.1-0.2,0.2c-0.1,0.2-0.3,0.4-0.4,0.6c0,0.1-0.1,0.1-0.1,0.2
	c-0.1,0.2-0.2,0.4-0.4,0.7c0,0.1-0.1,0.1-0.1,0.2c-0.1,0.2-0.2,0.5-0.3,0.7c0,0.1,0,0.1-0.1,0.2c-0.1,0.2-0.2,0.5-0.2,0.8
	c0,0.1,0,0.1,0,0.2c-0.1,0.2-0.1,0.5-0.1,0.7c0,0.1,0,0.2,0,0.3c0,0.2-0.1,0.4-0.1,0.6c0,0.1,0,0.3,0,0.4c0,0.1,0,0.2,0,0.4v86.1
	c0,10.1-8.2,18.3-18.3,18.3S109.2,384.8,109.2,374.7z M165.9,340.3c23.6-8.5,42-18.7,54.6-30c0.3,1.4,0.5,2.9,0.5,4.3
	c0,4.9-1.7,9.9-5.1,14.8c-0.6,0.6-1.1,1.3-1.5,2.1c-8.6,11.2-25.3,22-48.5,31.1L165.9,340.3L165.9,340.3z M221,270.9
	c0,5.3-2,10.6-5.8,15.9c0,0,0,0.1-0.1,0.1c-8.4,11.5-25.4,22.7-49.2,32v-24.8c22.4-14.8,27.3-30.1,27.3-40.7c0-6-1.6-13.3-6.6-21
	C209,244.6,221,258.2,221,270.9z M1.4,173c18.8,0,34.1,15.3,34.1,34.1s-15.3,34.1-34.1,34.1c-18.8,0-34.1-15.3-34.1-34.1
	S-17.4,173,1.4,173z M-184.7,232.5c-4.2,6.4-6.5,13.4-6.5,21c0,22.3,21.3,42.4,59.9,56.6c35.5,13,82.5,20.2,132.3,20.2
	c31,0,61.2-2.8,88.3-8.1v52.6c0,2.6,0.3,5.1,0.7,7.5c-28.1,4.4-57.9,6.7-89,6.7c-109.3,0-190.7-27.8-213.5-57.6
	c-0.4-0.6-0.8-1.2-1.3-1.8c-3.4-5-5.2-10-5.2-14.9c0-1.4,0.2-2.9,0.5-4.4c12.5,11.2,30.5,21.2,53.5,29.6
	c44.5,16.3,103.5,25.3,166.1,25.3c19.1,0,38.1-0.8,56.4-2.5c5.5-0.5,9.6-5.4,9.1-10.9c-0.5-5.5-5.4-9.5-10.9-9.1
	c-17.8,1.6-36.1,2.4-54.6,2.4c-129.6,0-220-39.1-220-74.2C-219,258.2-207,244.6-184.7,232.5z M1,432.3c-129.6,0-220-39.1-220-74.2
	c0-1.4,0.1-2.8,0.4-4.2c12.5,11.2,30.5,21.3,53.5,29.7c44.5,16.3,103.5,25.3,166.1,25.3c34.5,0,67.7-2.7,98.7-8
	c7,7.4,16.9,12.1,27.9,12.1c17.8,0,32.7-12.1,37.1-28.5c24.2-8.6,43-18.9,55.9-30.5c0.3,1.4,0.4,2.8,0.4,4.1
	C221,393.2,130.6,432.3,1,432.3z"/>
</svg>
