<?xml version="1.0" encoding="utf-8"?>
<!-- Generator: Adobe Illustrator 19.0.0, SVG Export Plug-In . SVG Version: 6.00 Build 0)  -->
<svg version="1.1" id="Capa_1" xmlns="http://www.w3.org/2000/svg" xmlns:xlink="http://www.w3.org/1999/xlink" x="0px" y="0px"
	 viewBox="-450 251 59 59" style="enable-background:new -450 251 59 59;" xml:space="preserve">
<g>
	<path d="M-419.6,280.5l8.2-8.2h0l2.6-2.6l6.2-6.2l2.8-2.8l-0.7-0.7c-11.3-11.3-29.7-11.3-41,0c-5.5,5.5-8.5,12.8-8.5,20.5
		s3,15,8.5,20.5c5.7,5.7,13.1,8.5,20.5,8.5s14.9-2.8,20.5-8.5l0.7-0.7l-2.8-2.8L-419.6,280.5z M-412,268.5c0-1.1,0.9-2,2-2
		c0.4,0,0.9,0.1,1.2,0.4l-1.4,1.4l-1.4,1.4C-411.9,269.3-412,268.9-412,268.5z M-410,264.5c-2.2,0-4,1.8-4,4c0,1,0.4,1.9,1,2.6
		l-9.4,9.4l17,17c-9,8.3-23.1,8-31.8-0.7c-9-9-9-23.6,0-32.5c4.5-4.5,10.4-6.7,16.3-6.7c5.6,0,11.2,2,15.5,6l-1.9,1.9
		C-408.1,264.9-409,264.5-410,264.5z M-421,307.5c-7.2,0-14-2.8-19.1-7.9c-5.1-5.1-7.9-11.9-7.9-19.1s2.8-14,7.9-19.1
		c5.1-5.1,11.9-7.9,19.1-7.9c6.9,0,13.4,2.6,18.4,7.2l-1.4,1.4c-9.8-9-25.1-8.8-34.6,0.7c-9.7,9.7-9.7,25.6,0,35.4
		c4.9,4.9,11.3,7.3,17.7,7.3c6.1,0,12.2-2.2,17-6.6l1.4,1.4C-407.6,304.9-414.1,307.5-421,307.5z"/>
	<path d="M-397.6,265.6l-0.9-0.8l-17.4,14.6l-1,0.8l0,0l0,0l0.9,0.8l15,13.4l0.1-0.1l2.8,2.5l0.7-0.6c4.2-3.6,6.6-9.1,6.6-15.3
		C-391,274.7-393.4,269.1-397.6,265.6z M-413.8,280.3l4.9-4.1c0.7,0.8,1.8,1.3,2.9,1.3c2.2,0,4-1.8,4-4c0-0.9-0.3-1.8-0.8-2.4
		l1.5-1.2c2.7,2.5,4.4,6.6,4.4,11.1c0,4.3-1.5,8.2-4,10.8L-413.8,280.3z M-404,273.5c0,1.1-0.9,2-2,2c-0.5,0-1.1-0.2-1.4-0.6l3-2.6
		C-404.1,272.7-404,273.1-404,273.5z M-398.2,294.2l-1.3-1.2c2.8-2.9,4.5-7.3,4.5-12.1c0-4.9-1.8-9.5-4.9-12.4l1.3-1.1
		c3.5,3.2,5.5,8.1,5.5,13.5C-393,286.2-394.9,291-398.2,294.2z"/>
	<path d="M-402,280.5c-2.2,0-4,1.8-4,4s1.8,4,4,4s4-1.8,4-4S-399.8,280.5-402,280.5z M-402,286.5c-1.1,0-2-0.9-2-2s0.9-2,2-2
		s2,0.9,2,2S-400.9,286.5-402,286.5z"/>
	<path d="M-421,295.5c0,2.2,1.8,4,4,4s4-1.8,4-4s-1.8-4-4-4S-421,293.3-421,295.5z M-417,293.5c1.1,0,2,0.9,2,2s-0.9,2-2,2
		s-2-0.9-2-2S-418.1,293.5-417,293.5z"/>
	<path d="M-431,288.5c-2.2,0-4,1.8-4,4s1.8,4,4,4s4-1.8,4-4S-428.8,288.5-431,288.5z M-431,294.5c-1.1,0-2-0.9-2-2s0.9-2,2-2
		s2,0.9,2,2S-429.9,294.5-431,294.5z"/>
	<path d="M-438,277.5c-2.2,0-4,1.8-4,4s1.8,4,4,4s4-1.8,4-4S-435.8,277.5-438,277.5z M-438,283.5c-1.1,0-2-0.9-2-2s0.9-2,2-2
		s2,0.9,2,2S-436.9,283.5-438,283.5z"/>
	<path d="M-434,272.5c2.2,0,4-1.8,4-4s-1.8-4-4-4s-4,1.8-4,4S-436.2,272.5-434,272.5z M-434,266.5c1.1,0,2,0.9,2,2s-0.9,2-2,2
		s-2-0.9-2-2S-435.1,266.5-434,266.5z"/>
	<path d="M-422,259.5c-2.2,0-4,1.8-4,4s1.8,4,4,4s4-1.8,4-4S-419.8,259.5-422,259.5z M-422,265.5c-1.1,0-2-0.9-2-2s0.9-2,2-2
		s2,0.9,2,2S-420.9,265.5-422,265.5z"/>
	<path d="M-402,279.5c0.6,0,1-0.4,1-1c0-1.1,0.9-2,2-2c0.6,0,1-0.4,1-1s-0.4-1-1-1c-2.2,0-4,1.8-4,4
		C-403,279.1-402.6,279.5-402,279.5z"/>
	<path d="M-435,276.5c0,0.6,0.4,1,1,1s1-0.4,1-1c0-1.1,0.9-2,2-2c0.6,0,1-0.4,1-1s-0.4-1-1-1C-433.2,272.5-435,274.3-435,276.5z"/>
	<path d="M-424.3,295.1c-0.5-0.3-1.1-0.2-1.4,0.2c-0.3,0.4-0.2,1.1,0.2,1.4c0.9,0.6,1.1,1.9,0.5,2.8c-0.3,0.5-0.2,1.1,0.2,1.4
		c0.2,0.1,0.4,0.2,0.6,0.2c0.3,0,0.6-0.1,0.8-0.4C-422.1,298.9-422.5,296.4-424.3,295.1z"/>
	<path d="M-421,270.5c-0.6,0-1,0.4-1,1c0,0.1-0.1,0.3-0.3,0.3c-1.2,0-2.3,1-2.3,2.3c0,0.1-0.1,0.3-0.3,0.3c-1.2,0-2.3,1-2.3,2.3
		c0,0.6,0.4,1,1,1s1-0.4,1-1c0-0.1,0.1-0.3,0.3-0.3c1.2,0,2.3-1,2.3-2.3c0-0.1,0.1-0.3,0.3-0.3c1.2,0,2.3-1,2.3-2.3
		C-420,270.9-420.4,270.5-421,270.5z"/>
	<path d="M-424.7,285.1c0.4,0,0.8-0.1,1.1-0.3c0.5-0.3,0.6-0.9,0.4-1.4c-0.3-0.5-0.9-0.6-1.4-0.4c-0.1,0-0.1,0-0.2,0
		c0,0-0.1,0-0.2-0.1c-0.6-1.1-2-1.5-3.1-0.8c-0.1,0.1-0.3,0-0.3-0.1c-0.3-0.5-0.8-0.9-1.4-1.1c-0.6-0.2-1.2-0.1-1.7,0.2
		c-0.5,0.3-0.6,0.9-0.4,1.4c0.3,0.5,0.9,0.6,1.4,0.4c0.1,0,0.1,0,0.2,0c0,0,0.1,0,0.2,0.1c0.6,1.1,2,1.5,3.1,0.8
		c0.1-0.1,0.3,0,0.3,0.1c0.3,0.5,0.8,0.9,1.4,1.1C-425.1,285.1-424.9,285.1-424.7,285.1z"/>
	<path d="M-422.7,289.4c0,0-0.1,0.1-0.2,0c-0.6-0.1-1.2,0-1.7,0.3s-0.8,0.8-1,1.4c-0.1,0.5,0.2,1.1,0.8,1.2c0.1,0,0.1,0,0.2,0
		c0.5,0,0.9-0.3,1-0.8c0-0.1,0.1-0.1,0.1-0.2c0,0,0.1-0.1,0.2,0c0.6,0.1,1.2,0,1.7-0.3c0.5-0.3,0.8-0.8,1-1.4c0-0.1,0.1-0.1,0.1-0.2
		c0,0,0.1-0.1,0.2,0c1.2,0.3,2.4-0.5,2.7-1.7c0.1-0.5-0.2-1.1-0.8-1.2c-0.5-0.1-1.1,0.2-1.2,0.8c0,0.1-0.2,0.2-0.3,0.2
		c-0.6-0.1-1.2,0-1.7,0.3c-0.5,0.3-0.8,0.8-1,1.4C-422.6,289.3-422.6,289.3-422.7,289.4z"/>
</g>
</svg>
