<?xml version="1.0" encoding="utf-8"?>
<!-- Generator: Adobe Illustrator 19.0.0, SVG Export Plug-In . SVG Version: 6.00 Build 0)  -->
<svg version="1.1" id="Capa_1" xmlns="http://www.w3.org/2000/svg" xmlns:xlink="http://www.w3.org/1999/xlink" x="0px" y="0px"
	 viewBox="-351.7 215 165.5 171" style="enable-background:new -351.7 215 165.5 171;" xml:space="preserve">
<g>
	<path d="M-186.3,294.9c-0.2-1.4-1.2-2.6-2.6-2.9l-31.7-7c0,0,0,0,0,0c0,0,0,0,0,0l-17.8-3.6c-1.8-0.4-3.6,0.8-4,2.6
		c-0.4,1.8,0.8,3.6,2.6,4l8.3,1.7l-17.7,9c10.7-69.8,16.2-71.5,16.2-71.9c0.2-1.8-1-3.5-2.9-3.8l-10.4-1.4c-1.8-0.2-3.5,1-3.8,2.9
		l-17.7,83.7l-1.5,0.8l-3.4-1.7c0.1-0.3,0.2-0.7,0.2-1.1c-0.6-62.4-2.2-87.3-2.2-87.9c0-0.9-0.4-1.8-1.1-2.4
		c-0.7-0.6-1.5-0.9-2.4-0.9l-10.5,0.4c-1.8,0.1-3.3,1.6-3.2,3.4l2.6,80.2l-17.5-8.6l12.1-2.3c1.8-0.4,3-2.1,2.7-4
		c-0.4-1.8-2.1-3-4-2.7l-21.1,4.1c-0.2,0-0.3,0.1-0.4,0.1c-0.2,0-0.3,0-0.5,0.1l-31,6.6c-1.4,0.3-2.5,1.5-2.7,2.9
		c-0.2,1.4,0.6,2.8,1.9,3.4l26.7,12.7l6.4,53.2c0.1,1.2,0.9,2.2,2.1,2.7l44.2,18.4c0.1,0,0.2,0.1,0.3,0.1c0,0,0,0,0,0
		c0.1,0,0.3,0.1,0.4,0.1c0,0,0.1,0,0.1,0c0.2,0,0.3,0,0.5,0c0,0,0,0,0,0c0.1,0,0.3,0,0.4,0c0,0,0.1,0,0.1,0c0.1,0,0.3-0.1,0.4-0.1
		c0,0,0,0,0.1,0c0.1,0,0.1,0,0.2-0.1l47.3-18.4c1.1-0.4,1.9-1.5,2.1-2.7l8.1-55.1l22.3-11.3C-186.8,297.7-186.1,296.3-186.3,294.9z
		 M-243.8,228.7l3.8,0.5c-1.6,11.3-7.1,12.1-16.5,73.2l-3.8,1.9L-243.8,228.7z M-285.1,222l3.8-0.2c0.3,13.9,1.6,28.7,2.1,82.1
		l-3.2-1.6L-285.1,222z M-317.8,292.6l39.9,19.5l-16.2,5.7l-43.8-20.9L-317.8,292.6z M-315.9,314.9l20.2,9.6c0.5,0.2,1,0.3,1.5,0.3
		c0.4,0,0.8-0.1,1.1-0.2l20.6-7.2v60.2l-37.7-15.7L-315.9,314.9z M-224.9,361.8l-40.9,15.9v-60.4l21.6,7.3c0.8,0.3,1.7,0.2,2.5-0.1
		l23.9-11.3L-224.9,361.8z M-216.6,305.2l-26.8,12.6l-17.2-5.8l39.7-20.2l21.3,4.7L-216.6,305.2z"/>
</g>
</svg>
