<?xml version="1.0" encoding="utf-8"?>
<!-- Generator: Adobe Illustrator 19.0.0, SVG Export Plug-In . SVG Version: 6.00 Build 0)  -->
<svg version="1.1" id="Layer_1" xmlns="http://www.w3.org/2000/svg" xmlns:xlink="http://www.w3.org/1999/xlink" x="0px" y="0px"
	 viewBox="-199 50 367 463" style="enable-background:new -199 50 367 463;" xml:space="preserve">
<g>
	<g>
		<g>
			<path d="M160.5,266h-352c-4.1,0-7.5,3.4-7.5,7.5s3.4,7.5,7.5,7.5h0.5v16.5c0,5.9,3.3,11,8.2,13.6c1.7,34.4,19.1,66.4,49.5,90.7
				c4.3,3.5,8.9,6.7,13.6,9.7l-21.6,86.4h-10.1c-4.1,0-7.5,3.4-7.5,7.5s3.4,7.5,7.5,7.5h16c0,0,0,0,0,0c0,0,0,0,0,0h16
				c4.1,0,7.5-3.4,7.5-7.5s-3.4-7.5-7.5-7.5h-6.4l19.6-78.5c26.8,14,58.1,21.5,90.8,21.5s63.9-7.5,90.8-21.5L94.9,498h-6.4
				c-4.1,0-7.5,3.4-7.5,7.5s3.4,7.5,7.5,7.5h16c0,0,0,0,0,0c0,0,0,0,0,0h16c4.1,0,7.5-3.4,7.5-7.5s-3.4-7.5-7.5-7.5h-10.1
				l-21.6-86.4c4.7-3,9.2-6.3,13.6-9.7c30.4-24.3,47.8-56.3,49.5-90.7c4.9-2.6,8.2-7.8,8.2-13.6V281h0.5c4.1,0,7.5-3.4,7.5-7.5
				S164.6,266,160.5,266z M-15.5,426c-80.9,0-147.3-50-152.2-113h304.4C131.8,376,65.4,426-15.5,426z M145,297.5
				c0,0.3-0.2,0.5-0.5,0.5h-320c-0.3,0-0.5-0.2-0.5-0.5V281h321V297.5z"/>
			<path d="M-152.3,249c0.3,0,0.5,0,0.8,0c3.8,0,7.1-2.9,7.5-6.7c3.7-37,22.5-58.1,42.3-80.5c11.6-13.1,23.5-26.6,32.5-43.5
				c6.3,6.7,15.7,17.7,23.3,30.9c1.1,1.9,3,3.3,5.2,3.7c2.2,0.4,4.4-0.2,6.1-1.7c1.1-0.9,25.2-21.9,40-81.3
				c10.2,7.5,27.9,21.7,45.6,41.7c24.7,28,54.1,73.2,54.1,129.8c0,4.1,3.4,7.5,7.5,7.5s7.5-3.4,7.5-7.5c0-48.5-20-96.8-57.9-139.7
				C33.7,69.6,5.7,51.9,4.5,51.1c-2.1-1.3-4.7-1.5-6.9-0.5c-2.3,1-3.9,3-4.4,5.3C-16,99-30.4,122.5-38.4,133
				c-12.9-19.5-27.4-32.5-28.1-33.1c-1.8-1.6-4.3-2.2-6.6-1.7c-2.4,0.5-4.3,2.2-5.3,4.4c-8.2,19.4-21,33.9-34.6,49.2
				c-20.5,23.2-41.8,47.2-46,88.9C-159.4,244.9-156.4,248.5-152.3,249z"/>
			<path d="M21.6,148c-1.7-1.6-4-2.2-6.3-1.9c-2.3,0.4-4.2,1.7-5.4,3.7c-0.2,0.3-14.7,26-32.9,41.6l-11.3-11.3
				c-2.6-2.6-6.8-2.9-9.8-0.7c-36.6,27.5-42.6,59.3-42.9,60.7c-0.7,4.1,2,7.9,6,8.7c4.1,0.7,8-2,8.7-6c0-0.3,4.9-24.7,32-47.3
				l11.3,11.3c2.6,2.6,6.7,2.9,9.7,0.8C-3.2,196,10.5,177.1,17.6,166c9.1,11.4,25.7,36.8,31.4,76.6c0.5,3.7,3.7,6.4,7.4,6.4
				c0.4,0,0.7,0,1.1-0.1c4.1-0.6,6.9-4.4,6.4-8.5C55.1,179.5,22.9,149.2,21.6,148z"/>
			<path d="M92,358c1.3,1,2.9,1.5,4.5,1.5c2.3,0,4.6-1.1,6-3c3.7-5,6.9-10.3,9.4-15.7c1.8-3.7,0.2-8.2-3.6-10
				c-3.7-1.8-8.2-0.2-10,3.6c-2.1,4.5-4.8,9-7.9,13.2C88,350.8,88.7,355.5,92,358z"/>
			<path d="M8.5,407.3c0.4,0,0.7,0,1.1-0.1c25.2-3.6,48.5-12.6,67.3-26c3.4-2.4,4.2-7.1,1.8-10.5c-2.4-3.4-7.1-4.2-10.5-1.8
				c-16.9,12-37.9,20.1-60.7,23.3c-4.1,0.6-6.9,4.4-6.4,8.5C1.6,404.6,4.8,407.3,8.5,407.3z"/>
		</g>
	</g>
</g>
</svg>
