<?xml version="1.0" encoding="utf-8"?>
<!-- Generator: Adobe Illustrator 19.0.0, SVG Export Plug-In . SVG Version: 6.00 Build 0)  -->
<svg version="1.1" id="Слой_1" xmlns="http://www.w3.org/2000/svg" xmlns:xlink="http://www.w3.org/1999/xlink" x="0px" y="0px"
	 viewBox="0 0 386.1 386.1" style="enable-background:new 0 0 386.1 386.1;" xml:space="preserve">
<path d="M329.5,56.6c-5.6-5.6-14.7-5.6-20.4,0l-43.9,43.9c-5.6,5.6-5.6,14.7,0,20.4c5.6,5.6,14.7,5.6,20.4,0L319,87.5
	c54.1,64.4,50.9,161-9.8,221.6c-64,64-168.2,64-232.2,0S13,141,77,77c39.4-39.4,95.4-56,149.9-44.6c7.6,1.6,15.3-3.4,16.9-11.2
	c1.6-7.8-3.4-15.4-11.1-17c-64.1-13.4-130,6.2-176.2,52.4C20.1,93,0,141.5,0,193c0,51.5,20.1,100,56.6,136.5
	C93,366,141.4,386.1,193,386.1c51.6,0,100-20.1,136.5-56.6C366,293,386.1,244.6,386.1,193C386.1,141.4,366,93,329.5,56.6L329.5,56.6
	z M329.5,56.6"/>
<path d="M193,58.7c-7.9,0-14.4,6.5-14.4,14.4V187l-57.4,57.4c-5.6,5.6-5.6,14.7,0,20.4c2.8,2.8,6.5,4.2,10.2,4.2
	c3.7,0,7.4-1.4,10.2-4.2l61.7-61.7c0.3-0.3,0.6-0.7,1-1c0.2-0.2,0.2-0.3,0.3-0.5c0.2-0.2,0.3-0.4,0.5-0.6c0.2-0.2,0.2-0.4,0.4-0.6
	c0.1-0.2,0.2-0.4,0.3-0.6c0.1-0.2,0.2-0.4,0.3-0.6c0.1-0.2,0.2-0.4,0.3-0.6c0.1-0.2,0.2-0.4,0.2-0.6l0.2-0.7
	c0.1-0.2,0.1-0.4,0.2-0.6c0.1-0.2,0.2-0.5,0.2-0.7c0.1-0.2,0.1-0.5,0.1-0.8c0-0.2,0.1-0.4,0.1-0.6c0.1-0.5,0.1-1,0.1-1.4V73.1
	C207.4,65.2,200.9,58.7,193,58.7L193,58.7z M193,58.7"/>
</svg>
