<?xml version="1.0" encoding="utf-8"?>
<!-- Generator: Adobe Illustrator 19.0.0, SVG Export Plug-In . SVG Version: 6.00 Build 0)  -->
<svg version="1.1" id="Слой_1" xmlns="http://www.w3.org/2000/svg" xmlns:xlink="http://www.w3.org/1999/xlink" x="0px" y="0px"
	 viewBox="0 0 28 28" style="enable-background:new 0 0 28 28;" xml:space="preserve">
<style type="text/css">
	.st0{fill:#E47E29;}
	.st1{fill:none;stroke:#E47E29;stroke-width:2;stroke-linecap:round;stroke-linejoin:round;stroke-miterlimit:10;}
</style>
<path id="XMLID_2_" class="st0" d="M12,11.2c0-0.1,0-0.2,0-0.2c0-0.7,0-1.4,0-2c0-1.4,0.9-2.5,2.3-2.7c0.3,0,0.7-0.1,1-0.1
	c0.7,0,1.4,0,2.1,0c0.1,0,0.2,0,0.2,0.2c0,0.8,0,1.6,0,2.3c0,0.1-0.1,0.2-0.2,0.2c-0.4,0-0.9,0-1.3,0c-0.6,0-0.9,0.3-0.9,0.9
	c0,0.5,0,0.9,0,1.4c0.8,0,1.6,0,2.4,0c0,0.4-0.1,0.8-0.1,1.2c0,0.4-0.1,0.9-0.1,1.3c0,0.2-0.1,0.2-0.2,0.2c-0.6,0-1.3,0-1.9,0
	c0,0.1,0,0.2,0,0.3c0,2.4,0,4.9,0,7.3c0,0.3,0,0.3-0.3,0.3c-0.9,0-1.8,0-2.7,0c-0.2,0-0.3,0-0.3-0.3c0-2.4,0-4.8,0-7.2
	c0-0.3,0-0.3-0.3-0.3c-0.4,0-0.8,0-1.3,0c-0.2,0-0.2,0-0.2-0.2c0-0.8,0-1.6,0-2.4c0-0.2,0.1-0.2,0.2-0.2C11,11.2,11.5,11.2,12,11.2z
	"/>
<path id="XMLID_10_" class="st1" d="M27,14c0,3.3-1.3,6.7-3.8,9.2c-5.1,5.1-13.3,5.1-18.4,0s-5.1-13.3,0-18.4s13.3-5.1,18.4,0"/>
</svg>
