<?xml version="1.0" encoding="utf-8"?>
<!-- Generator: Adobe Illustrator 19.0.0, SVG Export Plug-In . SVG Version: 6.00 Build 0)  -->
<svg version="1.1" id="Слой_1" xmlns="http://www.w3.org/2000/svg" xmlns:xlink="http://www.w3.org/1999/xlink" x="0px" y="0px"
	 viewBox="0 0 386.1 290" style="enable-background:new 0 0 386.1 290;" xml:space="preserve">
<path d="M367.4,0H18.8C8.4,0,0,8.4,0,18.8v252.5C0,281.6,8.4,290,18.8,290h348.6c10.4,0,18.8-8.4,18.8-18.8V18.8
	c0-5-1.9-9.7-5.4-13.2C377.1,2,372.4,0,367.4,0z M362.3,263.7c0,1.4-1.1,2.5-2.5,2.5H26.3c-1.4,0-2.5-1.1-2.5-2.5V26.3
	c0-1.4,1.1-2.5,2.5-2.5H342c1,0,2,0.7,2.3,1.6s0.1,2.1-0.7,2.8L196.7,153.8c-0.9,0.8-2.3,0.8-3.2,0L86.7,62.4
	c-5-4.3-12.5-3.7-16.8,1.3c-2.1,2.4-3.1,5.5-2.8,8.7c0.2,3.2,1.7,6,4.2,8.1l116.2,99.4c0,0,0,0,0.1,0.1c0.2,0.1,0.3,0.2,0.4,0.3
	c0.1,0.1,0.2,0.2,0.3,0.3l0.1,0c0.1,0.1,0.3,0.2,0.4,0.3c0.2,0.1,0.3,0.2,0.5,0.3c0.1,0,0.1,0.1,0.1,0.1c0.3,0.2,0.5,0.3,0.7,0.3
	c0.1,0,0.2,0.1,0.4,0.2c0.1,0,0.2,0.1,0.4,0.2c0.1,0,0.1,0,0.2,0.1c0.2,0.1,0.4,0.1,0.5,0.2c0,0,0.1,0,0.1,0c0.1,0,0.1,0,0.2,0.1
	l0.6,0.2c0.2,0,0.3,0.1,0.5,0.1c0,0,0.1,0,0.1,0c0.3,0.1,0.4,0.1,0.5,0.1c0.2,0,0.5,0,1,0.1c0.5,0,1.4,0.1,1.9,0c0,0,0.1,0,0.1,0
	c0,0,0.1,0,0.1,0c0.3-0.1,0.5-0.1,0.8-0.1c0.1,0,0.1,0,0.2,0c0.1,0,0.2,0,0.3-0.1c0.1,0,0.1,0,0.2-0.1l0.7-0.2c0.1,0,0.1,0,0.1-0.1
	c0.1-0.1,0.3-0.1,0.5-0.2c0.1,0,0.2-0.1,0.4-0.1c0.2-0.1,0.3-0.2,0.4-0.2c0.1,0,0.1-0.1,0.2-0.1c0.2-0.1,0.5-0.2,0.8-0.4
	c0,0,0.1-0.1,0.1-0.1c0.1-0.1,0.3-0.2,0.5-0.3c0,0,0.1,0,0.1-0.1c0.1-0.1,0.3-0.2,0.6-0.4l0,0c0.1-0.1,0.3-0.2,0.4-0.3c0,0,0,0,0,0
	c0,0,0.1-0.1,0.1-0.1L358.2,47c0.7-0.6,1.8-0.8,2.7-0.4c0.9,0.4,1.5,1.3,1.5,2.3V263.7z"/>
</svg>
