<?xml version="1.0" encoding="utf-8"?>
<!-- Generator: Adobe Illustrator 19.0.0, SVG Export Plug-In . SVG Version: 6.00 Build 0)  -->
<svg version="1.1" id="Слой_1" xmlns="http://www.w3.org/2000/svg" xmlns:xlink="http://www.w3.org/1999/xlink" x="0px" y="0px"
	 viewBox="0 0 392.6 376" style="enable-background:new 0 0 392.6 376;" xml:space="preserve">
<path d="M389,148.5c-1.8-3.3-4.1-6.2-7-8.6L230,12.3c-19.6-16.4-48-16.4-67.6,0L48.5,108c-6.1,5.1-6.9,14.2-1.8,20.3
	c5.1,6.1,14.2,6.9,20.3,1.8L181,34.4c8.9-7.4,21.7-7.4,30.6,0l143.6,120.6l-61,41.6c-6.6,4.5-8.2,13.4-3.8,20
	c2.8,4.1,7.3,6.2,11.9,6.2c2.8,0,5.6-0.8,8.1-2.5l53.4-36.4v143l-122-122c-12.2-12.2-28.3-18.9-45.6-18.9s-33.4,6.7-45.6,18.9
	l-15.9,15.9L23.3,145.5c-3.7-2.5-8.3-3.1-12.6-1.8c-4.2,1.4-7.6,4.7-9,8.9C0.6,155.7,0,159,0,162.3v184.4c0,7.8,3,15.1,8.6,20.6
	c2.8,2.8,6.5,4.2,10.2,4.2c3.7,0,7.4-1.4,10.2-4.2c0.1-0.1,0.2-0.2,0.2-0.3L171,225.2c6.7-6.7,15.7-10.4,25.2-10.4
	c9.5,0,18.5,3.7,25.2,10.4l122,122H86.6c-7.9,0-14.4,6.5-14.4,14.4c0,7.9,6.5,14.4,14.4,14.4h276.7c7.8,0,15-3.1,20.3-8.2
	c0.2-0.1,0.2-0.2,0.4-0.3l0.3-0.3c5.1-5.3,8.2-12.5,8.2-20.3V162.4C392.6,157.5,391.4,152.8,389,148.5L389,148.5z M28.7,326.8V184
	l85.2,57.6L28.7,326.8z M28.7,326.8"/>
</svg>
