<?xml version="1.0" encoding="utf-8"?>
<!-- Generator: Adobe Illustrator 19.0.0, SVG Export Plug-In . SVG Version: 6.00 Build 0)  -->
<svg version="1.1" id="Слой_1" xmlns="http://www.w3.org/2000/svg" xmlns:xlink="http://www.w3.org/1999/xlink" x="0px" y="0px"
	 viewBox="0 0 53.1 53.1" style="enable-background:new 0 0 53.1 53.1;" xml:space="preserve">
<style type="text/css">
	.st0{fill:#FFFFFF;}
</style>
<g>
	<path d="M26.6,53.1C11.9,53.1,0,41.2,0,26.6C0,11.9,11.9,0,26.6,0c14.6,0,26.6,11.9,26.6,26.6C53.1,41.2,41.2,53.1,26.6,53.1z
		 M26.6,2.7C13.4,2.7,2.7,13.4,2.7,26.6s10.7,23.8,23.8,23.8s23.8-10.7,23.8-23.8S39.7,2.7,26.6,2.7z"/>
	<path d="M26.6,47.7c-11.7,0-21.2-9.5-21.2-21.2c0-11.7,9.5-21.2,21.2-21.2c11.7,0,21.2,9.5,21.2,21.2c0,2.4-0.4,4.8-1.2,7.1
		c-0.3,0.7-1,1.1-1.7,0.8c-0.7-0.3-1.1-1-0.8-1.7c0.7-2,1.1-4.1,1.1-6.2c0-10.2-8.3-18.4-18.4-18.4S8.1,16.4,8.1,26.6
		S16.4,45,26.6,45c3.6,0,7-1,10-2.9c0.6-0.4,1.5-0.2,1.9,0.4c0.4,0.6,0.2,1.5-0.4,1.9C34.6,46.5,30.6,47.7,26.6,47.7z"/>
	<g>
		<g>
			<path d="M20.8,35.6V17.5c0-0.2,0-0.4,0.1-0.5c0.1-0.2,0.2-0.3,0.3-0.4c0.1-0.1,0.3-0.2,0.4-0.3c0.2-0.1,0.3-0.1,0.5-0.1h5
				c0.9,0,1.7,0.2,2.5,0.5c0.8,0.3,1.5,0.8,2,1.4c0.6,0.6,1,1.3,1.4,2c0.3,0.8,0.5,1.6,0.5,2.5c0,0.6-0.1,1.1-0.2,1.7
				c-0.1,0.5-0.4,1.1-0.6,1.5c-0.3,0.5-0.6,0.9-1.1,1.3c-0.4,0.4-0.9,0.8-1.5,1.1l4.2,6.7c0.1,0.2,0.2,0.5,0.2,0.8
				c0,0.2,0,0.4-0.1,0.5c-0.1,0.2-0.2,0.3-0.3,0.4c-0.1,0.1-0.3,0.2-0.4,0.3C33.6,37,33.5,37,33.3,37c-0.5,0-0.9-0.2-1.2-0.7
				L27.5,29h-3.9v6.7c0,0.4-0.1,0.7-0.4,1c-0.3,0.3-0.6,0.4-1,0.4c-0.4,0-0.7-0.1-1-0.4C20.9,36.3,20.8,36,20.8,35.6z M23.6,18.9
				v7.3h3.7c0.5,0,1-0.1,1.4-0.3c0.4-0.2,0.8-0.5,1.2-0.8c0.3-0.3,0.6-0.7,0.8-1.2c0.2-0.4,0.3-0.9,0.3-1.4c0-0.5-0.1-1-0.3-1.4
				c-0.2-0.4-0.5-0.8-0.8-1.2c-0.3-0.3-0.7-0.6-1.2-0.8c-0.4-0.2-0.9-0.3-1.4-0.3H23.6z"/>
			<path class="st0" d="M33.3,37.1c-0.5,0-0.9-0.2-1.3-0.7l-4.6-7.3h-3.7v6.6c0,0.4-0.1,0.8-0.4,1c-0.3,0.3-0.6,0.4-1,0.4
				c-0.4,0-0.8-0.1-1-0.4c-0.3-0.3-0.4-0.6-0.4-1V17.5c0-0.2,0-0.4,0.1-0.6c0.1-0.2,0.2-0.3,0.3-0.5c0.1-0.1,0.3-0.2,0.5-0.3
				C21.8,16,22,16,22.2,16h5c0.9,0,1.7,0.2,2.5,0.5c0.8,0.3,1.5,0.8,2.1,1.4c0.6,0.6,1.1,1.3,1.4,2.1c0.3,0.8,0.5,1.6,0.5,2.5
				c0,0.6-0.1,1.2-0.2,1.7c-0.1,0.5-0.4,1.1-0.7,1.6c-0.3,0.5-0.6,0.9-1.1,1.4c-0.4,0.4-0.9,0.8-1.4,1.1l4.1,6.6
				c0.2,0.3,0.2,0.5,0.2,0.8c0,0.2,0,0.4-0.1,0.6c-0.1,0.2-0.2,0.3-0.3,0.5c-0.1,0.1-0.3,0.2-0.5,0.3C33.7,37.1,33.5,37.1,33.3,37.1
				z M23.6,28.9h3.9c0,0,0.1,0,0.1,0l4.6,7.4c0.3,0.4,0.6,0.6,1.1,0.6c0.2,0,0.3,0,0.5-0.1c0.2-0.1,0.3-0.2,0.4-0.3
				c0.1-0.1,0.2-0.3,0.3-0.4c0.1-0.2,0.1-0.3,0.1-0.5c0-0.2-0.1-0.5-0.2-0.7l-4.2-6.7c0,0,0,0,0-0.1c0,0,0,0,0-0.1
				c0.5-0.3,1-0.7,1.5-1.1c0.4-0.4,0.8-0.9,1-1.3c0.3-0.5,0.5-1,0.6-1.5c0.1-0.5,0.2-1.1,0.2-1.7c0-0.9-0.2-1.7-0.5-2.5
				c-0.3-0.8-0.8-1.4-1.4-2c-0.6-0.6-1.2-1-2-1.4c-0.8-0.3-1.6-0.5-2.5-0.5h-5c-0.2,0-0.4,0-0.5,0.1c-0.2,0.1-0.3,0.2-0.4,0.3
				c-0.1,0.1-0.2,0.3-0.3,0.4c-0.1,0.2-0.1,0.3-0.1,0.5v18.1c0,0.4,0.1,0.7,0.4,0.9c0.3,0.3,0.6,0.4,0.9,0.4c0.4,0,0.7-0.1,0.9-0.4
				c0.3-0.3,0.4-0.6,0.4-0.9L23.6,28.9C23.5,28.9,23.5,28.9,23.6,28.9z M27.2,26.3h-3.7c-0.1,0-0.1,0-0.1-0.1v-7.3
				c0-0.1,0-0.1,0.1-0.1h3.7c0.5,0,1,0.1,1.5,0.3c0.5,0.2,0.9,0.5,1.2,0.8c0.3,0.3,0.6,0.7,0.8,1.2c0.2,0.5,0.3,0.9,0.3,1.5
				c0,0.5-0.1,1-0.3,1.4c-0.2,0.4-0.5,0.9-0.8,1.2c-0.3,0.3-0.7,0.6-1.2,0.8C28.2,26.2,27.7,26.3,27.2,26.3z M23.7,26.1h3.6
				c0.5,0,1-0.1,1.4-0.3c0.4-0.2,0.8-0.4,1.1-0.8c0.3-0.3,0.6-0.7,0.8-1.1c0.2-0.4,0.3-0.9,0.3-1.4c0-0.5-0.1-1-0.3-1.4
				c-0.2-0.4-0.4-0.8-0.8-1.1c-0.3-0.3-0.7-0.6-1.1-0.8c-0.4-0.2-0.9-0.3-1.4-0.3h-3.6V26.1z"/>
		</g>
	</g>
</g>
</svg>
