<?xml version="1.0" encoding="utf-8"?>
<!-- Generator: Adobe Illustrator 19.0.0, SVG Export Plug-In . SVG Version: 6.00 Build 0)  -->
<svg version="1.1" id="Capa_1" xmlns="http://www.w3.org/2000/svg" xmlns:xlink="http://www.w3.org/1999/xlink" x="0px" y="0px"
	 viewBox="-452 254 54 54" style="enable-background:new -452 254 54 54;" xml:space="preserve">
<path d="M-406.5,274.2h-5V267c0-0.2-0.1-0.4-0.2-0.5c0.1-0.5,0.2-1,0.2-1.5c0-3.9-3.1-7-7-7c-1.2,0-2.3,0.3-3.4,0.9
	c-1.3-1.8-3.4-2.9-5.6-2.9c-0.7,0-1.4,0.1-2.1,0.3c-1.4-1.5-3.3-2.3-5.4-2.3c-3.2,0-6,2.1-7.1,5c-0.1,0-0.3,0-0.4,0
	c-3.3,0-6,2.7-6,6v8c0,1.7,1.3,3,3,3h1c0.4,0,0.7-0.1,1-0.2v4.2v21v1c0,3.3,2.7,6,6,6h20c3.3,0,6-2.7,6-6v-1v-2.8h5c2.8,0,5-2.2,5-5
	v-14C-401.5,276.5-403.7,274.2-406.5,274.2z M-419.5,300h-4v-20c0-1.1,0.9-2,2-2s2,0.9,2,2V300z M-421.5,276c-1.2,0-2.3,0.5-3,1.4
	c-0.7-0.8-1.8-1.4-3-1.4s-2.3,0.5-3,1.4c-0.7-0.8-1.8-1.4-3-1.4s-2.3,0.5-3,1.4c-0.7-0.8-1.8-1.4-3-1.4c-0.7,0-1.4,0.2-2,0.6V273
	v-0.1c0.4,0.1,0.7,0.1,1.1,0.1h2c1.1,0,2.2-0.4,3.1-1.1c1.3,1.3,3.1,2.1,5,2.1c3.5,0,6.4-2.6,6.9-6h10v7.2v1.3
	c-0.6-0.3-1.3-0.6-2-0.6c-1.2,0-2.3,0.5-3,1.4C-419.2,276.5-420.3,276-421.5,276z M-425.5,300h-4v-20c0-1.1,0.9-2,2-2s2,0.9,2,2V300
	z M-431.5,300h-4v-20c0-1.1,0.9-2,2-2s2,0.9,2,2V300z M-437.5,300h-4v-20c0-1.1,0.9-2,2-2s2,0.9,2,2V300z M-417.5,280
	c0-1.1,0.9-2,2-2s2,0.9,2,2v13.2v4v2.8h-4V280z M-411.5,280.2h3c0.6,0,1,0.4,1,1v10c0,0.6-0.4,1-1,1h-3V280.2z M-444.5,274h-1
	c-0.6,0-1-0.4-1-1v-8c0-2.2,1.8-4,4-4c0.3,0,0.6,0,0.9,0.1c0.3,0.1,0.5,0,0.8-0.1c0.2-0.1,0.4-0.4,0.4-0.6c0.5-2.5,2.8-4.4,5.4-4.4
	c1.7,0,3.3,0.8,4.3,2.1c0.3,0.4,0.8,0.5,1.2,0.3c0.6-0.3,1.3-0.4,2-0.4c1.9,0,3.6,1,4.4,2.7c0.1,0.3,0.4,0.5,0.7,0.5
	c0.3,0.1,0.6,0,0.8-0.2c0.9-0.7,1.9-1,3.1-1c2.8,0,5,2.2,5,5c0,0.3,0,0.7-0.1,1h-10.8c-0.6,0-1,0.4-1,1c0,2.8-2.2,5-5,5
	c-1.6,0-3.1-0.8-4.1-2.1c-0.2-0.3-0.5-0.4-0.8-0.4c-0.3,0-0.6,0.1-0.8,0.4c-0.6,0.7-1.4,1.2-2.3,1.2h-2c-0.5,0-1.1-0.2-1.5-0.4
	c-0.3-0.2-0.7-0.2-1,0c-0.3,0.2-0.5,0.5-0.5,0.9v1.6C-443.5,273.6-443.9,274-444.5,274z M-417.5,306h-20c-2.2,0-4-1.8-4-4h5h6h6h6h5
	C-413.5,304.2-415.3,306-417.5,306z M-403.5,293.2c0,1.7-1.3,3-3,3h-5v-2h3c1.7,0,3-1.3,3-3v-10c0-1.7-1.3-3-3-3h-3v-2h5
	c1.7,0,3,1.3,3,3V293.2z"/>
</svg>
