<?xml version="1.0" encoding="utf-8"?>
<!-- Generator: Adobe Illustrator 19.0.0, SVG Export Plug-In . SVG Version: 6.00 Build 0)  -->
<svg version="1.1" id="Слой_1" xmlns="http://www.w3.org/2000/svg" xmlns:xlink="http://www.w3.org/1999/xlink" x="0px" y="0px"
	 viewBox="0 0 382.4 386" style="enable-background:new 0 0 382.4 386;" xml:space="preserve">
<style type="text/css">
	.st0{fill:none;stroke:#000000;stroke-width:21;stroke-linecap:round;stroke-linejoin:round;stroke-miterlimit:10;}
</style>
<path class="st0" d="M52.7,72.1c66.8-75.5,182.1-82.6,257.6-15.8s82.6,182.1,15.8,257.6S144,396.5,68.5,329.7
	c-31-27.4-50.4-63-58-100.6"/>
<g>
	<path d="M143.5,147c0,3.2-1.1,5.9-3.4,8.1c-2.3,2.3-5,3.4-8.1,3.4c-3.2,0-5.9-1.1-8.1-3.4c-2.3-2.2-3.4-5-3.4-8.1
		c0-19.1,6.7-35.3,20.2-48.8c13.5-13.5,29.7-20.2,48.8-20.2c19.1,0,35.3,6.7,48.8,20.2c13.5,13.5,20.2,29.7,20.2,48.8
		c0,19.1-6.7,35.3-20.2,48.8l-23.7,22c-9,9-13.5,19.9-13.5,32.6c0,3.2-1.1,5.9-3.4,8.1c-2.3,2.3-5,3.4-8.1,3.4
		c-3.2,0-5.9-1.1-8.1-3.4c-2.3-2.2-3.4-5-3.4-8.1c0-19.1,6.7-35.3,20.2-48.8l23.7-22c9-9,13.5-19.9,13.5-32.6
		c0-12.7-4.5-23.6-13.4-32.5c-9-9-19.8-13.4-32.5-13.4c-12.7,0-23.6,4.5-32.5,13.4C147.9,123.5,143.5,134.3,143.5,147z M206.6,290.7
		c0,4.8-1.7,8.9-5,12.2c-3.4,3.4-7.4,5-12.2,5c-4.8,0-8.9-1.7-12.2-5c-3.4-3.4-5-7.4-5-12.2c0-4.8,1.7-8.9,5-12.2
		c3.4-3.4,7.4-5,12.2-5c4.8,0,8.9,1.7,12.2,5C205,281.8,206.6,285.9,206.6,290.7z"/>
</g>
</svg>
