<?xml version="1.0" encoding="utf-8"?>
<!-- Generator: Adobe Illustrator 19.0.0, SVG Export Plug-In . SVG Version: 6.00 Build 0)  -->
<svg version="1.1" id="Слой_1" xmlns="http://www.w3.org/2000/svg" xmlns:xlink="http://www.w3.org/1999/xlink" x="0px" y="0px"
	 viewBox="0 0 389.6 389.1" style="enable-background:new 0 0 389.6 389.1;" xml:space="preserve">
<path d="M317.1,292.3c-4.4-4.7-9-9.2-13.4-13.5c-2.2-2.2-4.5-4.4-6.7-6.6l-19.5-19.5c-8.3-8.3-18.1-12.7-28.1-12.7
	c-10.1,0-19.8,4.4-28.1,12.7c-2,2-4.1,4-6.1,6c-4.6,4.6-9.4,9.3-14.1,14.2c-8.2-4-16.6-9.5-26.4-17.2
	c-12.7-10.4-23.6-20.8-33.3-31.8c-5.2-6-14.3-6.6-20.3-1.4c-6,5.2-6.6,14.3-1.4,20.3c10.7,12.3,22.8,23.9,36.9,35.4
	c0.1,0,0.1,0.1,0.2,0.1c14.2,11.2,26.1,18.6,38.8,23.8c0.3,0.2,0.6,0.2,1,0.3c3,1,12.2,4.1,21.1-4.8l0.6-0.6
	c5.4-6.2,11.2-11.8,17.3-17.8c2.1-2,4.2-4.1,6.2-6.2c1.9-1.9,4.9-4.3,7.8-4.3c2.9,0,5.8,2.3,7.8,4.3l19.5,19.5
	c2.3,2.3,4.7,4.6,7,6.9c4.5,4.3,8.6,8.5,12.6,12.7c0.1,0.2,0.2,0.2,0.3,0.3c3,3,6.3,7.8-0.2,14.7l-24.4,24.4
	c-5.2,5.2-11,7.9-18.2,8.6c-12.4,1-25.6-1.4-42.8-7.8c-28.6-10.6-55.4-26.6-84.2-50.6C92,272.5,64.5,237.5,45.2,197.6
	c-6.9-14.5-15-33.7-16.3-54.1c-0.7-11.4,2.3-19.5,9.7-26.4c5.4-4.5,10.1-9.4,14.6-14c2.9-3,5.6-5.8,8.5-8.5l0.1-0.1
	c5.7-5.4,10.4-5.5,15.7-0.2l39.4,39.4l0.2,0.2c1.7,1.6,3.7,4.1,3.8,6.8c0,2.9-2.2,5.7-3.9,7.5l-24.5,24.5c-5.6,5.6-5.6,14.7,0,20.4
	c5.6,5.6,14.7,5.6,20.4,0l24.5-24.5c8.2-8.2,12.5-17.9,12.4-28.2c-0.1-10-4.4-19.4-12.5-27.2L97.8,74c-16.5-16.5-38.9-16.6-55.9-0.2
	c-3.4,3.1-6.4,6.3-9.4,9.4c-4.2,4.4-8.2,8.6-12.6,12.2c-0.2,0.2-0.3,0.3-0.6,0.5c-14,12.7-20.4,29.4-19.2,49.5
	c1.7,25.3,11,47.8,19,64.6v0.1c21.2,43.7,51.1,81.9,89.1,113.8c31.4,26.1,60.9,43.8,92.6,55.5c11.7,4.3,28.7,9.8,47.6,9.8
	c2.5,0,5-0.1,7.6-0.3h0.1c14-1.2,26.2-6.9,36.2-16.9l24.5-24.5l0.2-0.2C332.9,330.8,332.8,308.2,317.1,292.3L317.1,292.3z
	 M317.1,292.3"/>
<path d="M311.4,194.5c-5-29.1-18.7-55.7-39.8-76.8c-20.9-21-47.4-34.7-76.6-39.7c-7.8-1.4-15.3,3.9-16.6,11.8
	c-1.4,7.8,3.9,15.3,11.8,16.6c23.2,3.9,44.4,15,61.2,31.8c16.8,16.8,27.8,38,31.8,61.2c1.2,7,7.3,12,14.2,12c0.8,0,1.6-0.1,2.4-0.2
	C307.5,209.7,312.8,202.3,311.4,194.5L311.4,194.5z M311.4,194.5"/>
<path d="M389.3,190.9c-8.1-47.7-30.6-91.1-65.1-125.6c-34.5-34.5-77.9-57-125.6-65.1C190.8-1.1,183.3,4.1,182,12
	c-1.4,7.8,3.9,15.3,11.8,16.6c41.8,7.1,79.8,26.8,110.1,57c30.2,30.2,50,68.3,57,110.1c1.2,7,7.3,12,14.2,12c0.8,0,1.6-0.1,2.4-0.2
	C385.4,206.2,390.7,198.8,389.3,190.9L389.3,190.9z M389.3,190.9"/>
</svg>
