<?xml version="1.0" encoding="utf-8"?>
<!-- Generator: Adobe Illustrator 19.0.0, SVG Export Plug-In . SVG Version: 6.00 Build 0)  -->
<svg version="1.1" id="Capa_1" xmlns="http://www.w3.org/2000/svg" xmlns:xlink="http://www.w3.org/1999/xlink" x="0px" y="0px"
	 viewBox="-455 257 48 48" style="enable-background:new -455 257 48 48;" xml:space="preserve">
<g>
	<g>
		<path d="M-445.7,285.6c-5.1,0-9.2-4.1-9.2-9.2c0-5.1,4.1-9.2,9.2-9.2c0.5,0,1.1,0,1.6,0.1c1.5-6,6.9-10.3,13.3-10.3
			c6.8,0,12.5,5,13.5,11.5c0.7-0.2,1.4-0.3,2.1-0.3c4.5,0,8.1,3.6,8.1,8.1s-3.6,8.1-8.1,8.1c-2.7,0-5.2-1.3-6.7-3.5
			c-2.5,2.2-5.6,3.4-9,3.4c-2.7,0-5.4-0.8-7.6-2.3C-440.2,284.3-442.9,285.6-445.7,285.6z M-445.7,269.2c-4,0-7.2,3.2-7.2,7.2
			c0,4,3.2,7.2,7.2,7.2c2.5,0,4.8-1.3,6.1-3.4l0.6-1l0.9,0.7c2.1,1.6,4.6,2.5,7.2,2.5c3.2,0,6.2-1.3,8.5-3.7l1-1.1l0.6,1.3
			c1,2.1,3.2,3.5,5.5,3.5c3.4,0,6.1-2.7,6.1-6.1c0-3.4-2.7-6.1-6.1-6.1c-0.9,0-1.8,0.2-2.6,0.6l-1.3,0.6l-0.1-1.5
			c-0.4-6.2-5.5-11-11.7-11c-5.7,0-10.5,4.1-11.5,9.7l-0.2,1.1l-1.1-0.3C-444.3,269.3-445,269.2-445.7,269.2z"/>
	</g>
	<g>
		<path d="M-417.4,305h-27.3l-3.9-20.3c-0.1-0.5,0.3-1.1,0.8-1.2c0.5-0.1,1.1,0.3,1.2,0.8l3.6,18.7h24l3.7-19.6
			c0.1-0.5,0.6-0.9,1.2-0.8c0.5,0.1,0.9,0.6,0.8,1.2L-417.4,305z"/>
	</g>
	<g>
		<path d="M-430.9,305c-0.6,0-1-0.4-1-1v-13.1c0-0.6,0.4-1,1-1s1,0.4,1,1V304C-429.9,304.6-430.4,305-430.9,305z"/>
	</g>
	<g>
		<path d="M-437.7,305c-0.5,0-1-0.4-1-0.9l-1.1-13.1c0-0.6,0.4-1,0.9-1.1c0.5-0.1,1,0.4,1.1,0.9l1.1,13.1
			C-436.6,304.5-437,305-437.7,305C-437.6,305-437.7,305-437.7,305z"/>
	</g>
	<g>
		<path d="M-424.2,305c0,0-0.1,0-0.1,0c-0.5-0.1-0.9-0.6-0.9-1.1l1.6-13.1c0.1-0.5,0.6-0.9,1.1-0.9c0.5,0.1,0.9,0.6,0.9,1.1
			l-1.6,13.1C-423.3,304.6-423.7,305-424.2,305z"/>
	</g>
	<g>
		<path d="M-438.2,271c-0.6,0-1-0.4-1-1c0-4.4,3.6-8,8-8c0.6,0,1,0.4,1,1s-0.4,1-1,1c-3.3,0-6,2.7-6,6
			C-437.2,270.5-437.7,271-438.2,271z"/>
	</g>
</g>
</svg>
