<?xml version="1.0" encoding="utf-8"?>
<!-- Generator: Adobe Illustrator 19.0.0, SVG Export Plug-In . SVG Version: 6.00 Build 0)  -->
<svg version="1.1" id="Слой_1" xmlns="http://www.w3.org/2000/svg" xmlns:xlink="http://www.w3.org/1999/xlink" x="0px" y="0px"
	 viewBox="0 0 345 370.6" style="enable-background:new 0 0 345 370.6;" xml:space="preserve">
<g>
	<path d="M202.8,319.4c-7.7,0-14,6.3-14,14c0,7.7,6.3,14,14,14H331c7.7,0,14-6.3,14-14V110.7c0-4-1.6-7.7-4.4-10.3L235.7,3.7
		c-2.6-2.3-6.1-3.7-9.6-3.7H69.9c-7.7,0-14,6.3-14,14v151.5c0,7.7,6.3,14,14,14c7.7,0,14-6.3,14-14V28h111.9v121.2
		c0,7.7,6.3,14,14,14h104.9c0.7,0,1.6,0,2.3-0.2v156.4L202.8,319.4L202.8,319.4z M314.7,135.2h-90.9V30.8l93.2,86v18.6
		C316.3,135.2,315.4,135.2,314.7,135.2L314.7,135.2z M0,298.4c0-7.7,6.3-14,14-14h42v-44.3c0-7.7,6.3-14,14-14c7.7,0,14,6.3,14,14
		v44.3h46.6c7.7,0,14,6.3,14,14c0,7.7-6.3,14-14,14H83.9v44.3c0,7.7-6.3,14-14,14c-7.7,0-14-6.3-14-14v-44.3H14
		C6.3,312.4,0,306.1,0,298.4L0,298.4z M0,298.4"/>
</g>
</svg>
