<?xml version="1.0" encoding="utf-8"?>
<!-- Generator: Adobe Illustrator 19.0.0, SVG Export Plug-In . SVG Version: 6.00 Build 0)  -->
<svg version="1.1" id="Слой_1" xmlns="http://www.w3.org/2000/svg" xmlns:xlink="http://www.w3.org/1999/xlink" x="0px" y="0px"
	 viewBox="0 0 50.8 47.6" style="enable-background:new 0 0 50.8 47.6;" xml:space="preserve">
<g>
	<path d="M27,11.2h-3.2c-0.8,0-1.5,0.7-1.5,1.5s0.7,1.5,1.5,1.5H27c0.8,0,1.5-0.7,1.5-1.5S27.8,11.2,27,11.2z"/>
	<circle cx="33.4" cy="12.7" r="1.5"/>
	<circle cx="17.4" cy="12.7" r="1.5"/>
	<path d="M50.7,12.1c-0.1-0.4-0.4-0.7-0.8-0.8L26,0.1c-0.4-0.2-0.9-0.2-1.3,0L0.9,11.3c-0.4,0.2-0.6,0.5-0.8,0.8
		C0,12.5,0,12.9,0.1,13.3c0.2,0.4,0.5,0.6,0.8,0.8c0.4,0.1,0.8,0.1,1.1-0.1l0.9-0.4c0,0,0.1,0,0.1,0c0,0,0,0,0,0.1v32.5
		c0,0.8,0.7,1.5,1.5,1.5c0.8,0,1.5-0.7,1.5-1.5V20.6c0-0.1,0-0.1,0.1-0.1h38.3c0.1,0,0.1,0,0.1,0.1v25.5c0,0.8,0.7,1.5,1.5,1.5
		c0.8,0,1.5-0.7,1.5-1.5V13.7c0,0,0-0.1,0-0.1c0,0,0.1,0,0.1,0l0.9,0.4c0.2,0.1,0.4,0.1,0.6,0.1c0.6,0,1.1-0.3,1.4-0.9
		C50.9,12.9,50.9,12.5,50.7,12.1z M44.7,12.3c0,0.1-0.1,0.2-0.1,0.4v4.8c0,0.1,0,0.1-0.1,0.1H6.3c-0.1,0-0.1,0-0.1-0.1v-4.8
		c0-0.1,0-0.2-0.1-0.4l0-0.1c0,0,0-0.1,0.1-0.1l19.2-9c0,0,0.1,0,0.1,0l19.2,9C44.7,12.2,44.7,12.2,44.7,12.3L44.7,12.3z"/>
	<path d="M23.7,39.8c0-0.8-0.7-1.5-1.5-1.5h-9.6c-0.8,0-1.5,0.7-1.5,1.5v6.4c0,0.8,0.7,1.5,1.5,1.5h9.6c0.8,0,1.5-0.7,1.5-1.5V39.8z
		 M20.7,44.5C20.7,44.6,20.7,44.6,20.7,44.5l-6.5,0.1c-0.1,0-0.1,0-0.1-0.1v-3.2c0-0.1,0-0.1,0.1-0.1h6.4c0.1,0,0.1,0,0.1,0.1V44.5z
		"/>
	<path d="M38.2,38.3h-9.6c-0.8,0-1.5,0.7-1.5,1.5v6.4c0,0.8,0.7,1.5,1.5,1.5h9.6c0.8,0,1.5-0.7,1.5-1.5v-6.4
		C39.7,38.9,39,38.3,38.2,38.3z M36.7,44.5C36.7,44.6,36.6,44.6,36.7,44.5l-6.5,0.1c-0.1,0-0.1,0-0.1-0.1v-3.2c0-0.1,0-0.1,0.1-0.1
		h6.4c0.1,0,0.1,0,0.1,0.1V44.5z"/>
	<path d="M23.7,27c0-0.8-0.7-1.5-1.5-1.5h-9.6c-0.8,0-1.5,0.7-1.5,1.5v6.4c0,0.8,0.7,1.5,1.5,1.5h9.6c0.8,0,1.5-0.7,1.5-1.5V27z
		 M20.7,31.8C20.7,31.8,20.7,31.9,20.7,31.8l-6.5,0.1c-0.1,0-0.1,0-0.1-0.1v-3.2c0-0.1,0-0.1,0.1-0.1h6.4c0.1,0,0.1,0,0.1,0.1V31.8z
		"/>
	<path d="M38.2,25.5h-9.6c-0.8,0-1.5,0.7-1.5,1.5v6.4c0,0.8,0.7,1.5,1.5,1.5h9.6c0.8,0,1.5-0.7,1.5-1.5V27
		C39.7,26.2,39,25.5,38.2,25.5z M36.7,31.8C36.7,31.8,36.6,31.9,36.7,31.8l-6.5,0.1c-0.1,0-0.1,0-0.1-0.1v-3.2c0-0.1,0-0.1,0.1-0.1
		h6.4c0.1,0,0.1,0,0.1,0.1V31.8z"/>
</g>
</svg>
