<?xml version="1.0" encoding="utf-8"?>
<!-- Generator: Adobe Illustrator 19.0.0, SVG Export Plug-In . SVG Version: 6.00 Build 0)  -->
<svg version="1.1" id="Слой_1" xmlns="http://www.w3.org/2000/svg" xmlns:xlink="http://www.w3.org/1999/xlink" x="0px" y="0px"
	 viewBox="0 0 48.1 58" style="enable-background:new 0 0 48.1 58;" xml:space="preserve">
<style type="text/css">
	.st0{fill:#1D1D1B;}
</style>
<g>
	<g>
		<path d="M47.2,34.3c-0.4-0.2-0.8-0.1-1.1,0.2l-1.8,1.8V23.3c0-3.7-2.2-7-5.5-8.5v-9c0.1-0.2,0.2-0.3,0.2-0.6V1.2c0-0.6-0.5-1-1-1
			h-6.4c-0.6,0-1,0.5-1,1v3.9c0,0.2,0.1,0.4,0.2,0.6v9c-3.3,1.5-5.5,4.9-5.5,8.5v11.9l-0.6-0.6c-0.2-0.2-0.5-0.3-0.7-0.3v-7.7
			c0-1.4-0.7-2.7-1.6-3.6c1-0.5,1.6-1.5,1.6-2.7c0-1.7-1.4-3.2-3.2-3.2H6.5c-1.8,0-3.2,1.4-3.2,3.2c0,1.2,0.7,2.2,1.6,2.7
			c-1,0.9-1.6,2.2-1.6,3.6v9.4l-1.4-1.4c-0.3-0.3-0.7-0.4-1.1-0.2c-0.4,0.1-0.6,0.5-0.6,0.9v21.5c0,0.6,0.5,1,1,1h45.6
			c0.6,0,1-0.5,1-1l0-21.5C47.9,34.8,47.6,34.5,47.2,34.3L47.2,34.3z M45.8,55.8H2.2v-18l1.1,1.1l1,1l1,1l0.8,0.8
			c0.4,0.4,1.1,0.4,1.4,0l5-5l5,5c0.4,0.4,1.1,0.4,1.4,0l3-3l2-2l1.4,1.4l2,2l1.3,1.3l0.3,0.3c0.4,0.4,1.1,0.4,1.4,0l5-5l4.7,4.7
			l0.3,0.3c0.4,0.4,1.1,0.4,1.4,0l0.3-0.3h0.1v-0.1l2-2l1.5-1.5L45.8,55.8z M5.4,20.2c0-0.6,0.5-1.1,1.1-1.1h14.3
			c0.6,0,1.1,0.5,1.1,1.1c0,0.6-0.5,1.1-1.1,1.1H6.5C5.9,21.3,5.4,20.8,5.4,20.2L5.4,20.2z M8.3,23.6h10.8c1.6,0,2.9,1.3,2.9,2.9v3
			H5.4v-3C5.4,24.9,6.7,23.6,8.3,23.6L8.3,23.6z M5.4,31.5H22v4.2l-3.7,3.7l-4.9-4.9c-0.4-0.4-1.2-0.4-1.6,0l-4.9,4.9L5.4,38V31.5z
			 M32.9,2.2h3.9v1.9h-3.9V2.2z M27.4,23.3c0-3.1,1.9-5.8,4.8-6.9c0.4-0.1,0.7-0.5,0.7-1V6.2h3.9v9.2c0,0.4,0.3,0.8,0.7,1
			c2.9,1.1,4.8,3.9,4.8,6.9v1.1H27.4V23.3z M27.4,26.5h14.8v11.9l-1.1,1.1l-4.9-4.9c-0.4-0.4-1.2-0.4-1.6,0l-4.9,4.9l-2.3-2.3
			L27.4,26.5L27.4,26.5z M27.4,26.5"/>
		<path class="st0" d="M46.8,58H1.2C0.5,58,0,57.5,0,56.8V35.3c0-0.5,0.3-0.9,0.8-1.1c0.5-0.2,1-0.1,1.3,0.3l1.1,1.1v-9
			c0-1.3,0.5-2.6,1.5-3.6c-1-0.6-1.5-1.6-1.5-2.8c0-1.9,1.5-3.4,3.4-3.4h14.3c1.9,0,3.4,1.5,3.4,3.4c0,1.1-0.6,2.1-1.5,2.8
			c1,1,1.5,2.3,1.5,3.6v7.6c0.3,0,0.5,0.1,0.7,0.3l0.3,0.3V23.3c0-3.7,2.1-7.1,5.5-8.7V5.8c-0.1-0.2-0.2-0.4-0.2-0.6V1.2
			C30.4,0.5,31,0,31.6,0H38c0.7,0,1.2,0.5,1.2,1.2v3.9c0,0.2-0.1,0.4-0.2,0.6v8.8c3.3,1.6,5.5,5,5.5,8.7v12.6l1.5-1.5
			c0.3-0.3,0.9-0.4,1.3-0.3l0,0c0.5,0.2,0.7,0.6,0.7,1.1l0,21.5C48,57.5,47.5,58,46.8,58z M1.2,34.4c-0.1,0-0.2,0-0.3,0.1
			c-0.3,0.1-0.5,0.4-0.5,0.8v21.5c0,0.5,0.4,0.8,0.8,0.8h45.6c0.5,0,0.8-0.4,0.8-0.8l0-21.5c0-0.3-0.2-0.6-0.5-0.8
			c-0.3-0.1-0.7-0.1-0.9,0.2l-2.1,2.1V23.3c0-3.6-2.1-6.9-5.4-8.4l-0.1-0.1V5.6l0-0.1c0.1-0.2,0.2-0.3,0.2-0.5V1.2
			c0-0.5-0.4-0.8-0.8-0.8h-6.4c-0.5,0-0.8,0.4-0.8,0.8v3.9c0,0.2,0.1,0.3,0.2,0.5l0,0.1v9.2l-0.1,0.1c-3.3,1.5-5.4,4.8-5.4,8.4v12.3
			l-0.9-0.9c-0.1-0.1-0.4-0.2-0.6-0.2h-0.2v-7.9c0-1.3-0.6-2.6-1.6-3.5l-0.2-0.2l0.2-0.1c1-0.6,1.5-1.5,1.5-2.6c0-1.7-1.3-3-3-3H6.5
			c-1.7,0-3,1.3-3,3c0,1.1,0.6,2,1.5,2.6l0.2,0.1L5.1,23c-1,0.9-1.6,2.2-1.6,3.5v9.9l-1.7-1.7C1.6,34.5,1.4,34.4,1.2,34.4z M46,56H2
			V37.3l4.2,4.2c0.3,0.3,0.9,0.3,1.2,0l5.1-5.1l5.1,5.1c0.3,0.3,0.9,0.3,1.2,0l5.1-5.1l5.1,5.1c0.1,0.1,0.4,0.2,0.6,0.2h0
			c0.2,0,0.4-0.1,0.6-0.2l5.1-5.1l5.1,5.1c0.3,0.3,0.9,0.3,1.2,0l4.2-4.2L46,56z M2.4,55.6h43.2l0-17.4l-3.2,3.2v0.2h-0.2L42,41.8
			c-0.4,0.4-1.2,0.5-1.7,0l-0.3-0.3l-4.6-4.6l-4.9,4.9c-0.2,0.2-0.5,0.3-0.9,0.3c0,0,0,0,0,0c-0.3,0-0.6-0.1-0.9-0.3l-0.3-0.3
			L24,36.9l-4.8,4.9c-0.5,0.5-1.3,0.5-1.7,0l-4.9-4.9l-4.9,4.9c-0.4,0.5-1.2,0.5-1.7,0l-3.6-3.6V55.6z M29.7,39.7l-2.5-2.5V26.5h0.2
			v-0.2h15v12.2l-1.3,1.3l-5.1-5.1c-0.3-0.3-1-0.3-1.3,0L29.7,39.7z M35.5,34.1c0.3,0,0.7,0.1,0.9,0.3l4.8,4.8l0.9-0.9V26.7H27.6
			v10.4l2.1,2.1l4.8-4.8C34.8,34.2,35.1,34.1,35.5,34.1z M6.9,39.7l-1.7-1.7v-6.7h17v4.5l-3.9,3.9l-5.1-5.1c-0.3-0.3-1-0.3-1.3,0
			L6.9,39.7z M12.6,34.1c0.3,0,0.7,0.1,0.9,0.3l4.8,4.8l3.5-3.5v-4H5.6v6.2l1.3,1.3l4.8-4.8C11.9,34.2,12.3,34.1,12.6,34.1z
			 M22.2,29.7h-17v-3.2c0-1.7,1.4-3.1,3.1-3.1h10.8c1.7,0,3.1,1.4,3.1,3.1V29.7z M5.6,29.3h16.3v-2.8c0-1.5-1.2-2.7-2.7-2.7H8.3
			c-1.5,0-2.7,1.2-2.7,2.7V29.3z M42.4,24.6H27.2v-1.3c0-3.1,2-6,4.9-7.1c0.3-0.1,0.5-0.4,0.5-0.8V6H37v9.4c0,0.4,0.2,0.7,0.5,0.8
			c3,1.1,4.9,4,4.9,7.1V24.6z M27.6,24.2h14.4v-1c0-3-1.9-5.7-4.7-6.7c-0.5-0.2-0.8-0.6-0.8-1.1V6.3h-3.5v9.1c0,0.5-0.3,1-0.8,1.1
			c-2.8,1-4.7,3.8-4.7,6.7V24.2z M20.9,21.5H6.5c-0.7,0-1.3-0.6-1.3-1.3c0-0.7,0.6-1.3,1.3-1.3h14.3c0.7,0,1.3,0.6,1.3,1.3
			C22.2,20.9,21.6,21.5,20.9,21.5z M6.5,19.2c-0.5,0-1,0.4-1,1c0,0.5,0.4,1,1,1h14.3c0.5,0,1-0.4,1-1c0-0.5-0.4-1-1-1H6.5z M37,4.3
			h-4.2V2H37V4.3z M33.1,3.9h3.5V2.4h-3.5V3.9z"/>
	</g>
</g>
</svg>
