<?xml version="1.0" encoding="utf-8"?>
<!-- Generator: Adobe Illustrator 19.0.0, SVG Export Plug-In . SVG Version: 6.00 Build 0)  -->
<svg version="1.1" id="Слой_1" xmlns="http://www.w3.org/2000/svg" xmlns:xlink="http://www.w3.org/1999/xlink" x="0px" y="0px"
	 viewBox="0 0 67.1 58.5" style="enable-background:new 0 0 67.1 58.5;" xml:space="preserve">
<g>
	<path d="M52.1,36.4c0-2.4-1.9-4.3-4.3-4.3h-9.2c-2.4,0-4.3,1.9-4.3,4.3v7c0,2.4,1.9,4.3,4.3,4.3h9.2c2.4,0,4.3-1.9,4.3-4.3V36.4z
		 M49.2,43.5c0,0.8-0.7,1.5-1.5,1.5h-9.2c-0.8,0-1.5-0.7-1.5-1.5v-7c0-0.8,0.7-1.5,1.5-1.5h9.2c0.8,0,1.5,0.7,1.5,1.5V43.5z"/>
	<path d="M61.4,27.8c3.5-1.5,5.7-4.9,5.7-8.7c0-0.3-0.1-0.5-0.2-0.7l-10-17.7C56.6,0.3,56.1,0,55.6,0H11.5c-0.5,0-1,0.3-1.2,0.7
		l-10,17.7C0.1,18.6,0,18.8,0,19.1c0,3.7,2.2,7.1,5.7,8.6c0.1,0,0.1,0.1,0.1,0.2v29.1c0,0.8,0.6,1.4,1.4,1.4h52.6
		c0.8,0,1.4-0.6,1.4-1.4V28.2c0-0.1,0-0.1,0-0.1C61.2,27.9,61.3,27.8,61.4,27.8z M4.4,16.8L12.2,3c0-0.1,0.1-0.1,0.2-0.1h42.2
		c0.1,0,0.2,0,0.2,0.1l7.9,13.8c0,0.1,0,0.2,0,0.2c0,0.1-0.1,0.1-0.2,0.1H4.6c-0.1,0-0.2,0-0.2-0.1C4.3,17,4.3,16.9,4.4,16.8z
		 M48.1,20.2c-0.6,3.2-3.3,5.4-6.5,5.4c-3.2,0-5.9-2.3-6.5-5.4c0-0.1,0-0.1,0.1-0.2c0-0.1,0.1-0.1,0.2-0.1h12.5c0.1,0,0.1,0,0.2,0.1
		C48.1,20.1,48.1,20.2,48.1,20.2z M32,20.2c-0.6,3.2-3.3,5.4-6.5,5.4c-3.2,0-5.9-2.3-6.5-5.4c0-0.1,0-0.1,0.1-0.2
		c0-0.1,0.1-0.1,0.2-0.1h12.5c0.1,0,0.1,0,0.2,0.1C32,20.1,32,20.2,32,20.2z M3,20.2c0-0.1,0-0.1,0.1-0.2C3.1,20,3.1,20,3.2,20h12.5
		c0.1,0,0.1,0,0.2,0.1c0,0.1,0.1,0.1,0.1,0.2c-0.6,3.2-3.3,5.4-6.5,5.4c0,0,0,0,0,0C6.2,25.7,3.5,23.4,3,20.2z M27.8,55.4
		c0,0.1-0.1,0.2-0.2,0.2h-9.5c-0.1,0-0.2-0.1-0.2-0.2V37.5c0-1.4,1.2-2.6,2.6-2.6h4.8c1.4,0,2.6,1.2,2.6,2.6V55.4z M58.4,55.4
		c0,0.1-0.1,0.2-0.2,0.2H30.9c-0.1,0-0.2-0.1-0.2-0.2V37.5c0-3-2.4-5.4-5.4-5.4h-4.8c-3,0-5.4,2.4-5.4,5.4v17.9
		c0,0.1-0.1,0.2-0.2,0.2H8.9c-0.1,0-0.2-0.1-0.2-0.2V28.8c0-0.1,0-0.1,0.1-0.2c0,0,0.1-0.1,0.2-0.1c0.2,0,0.4,0,0.6,0
		c3.1,0,6.1-1.6,7.8-4.2c0.1-0.1,0.3-0.1,0.4,0c1.8,2.6,4.7,4.2,7.8,4.2c3.1,0,6.1-1.6,7.8-4.2c0-0.1,0.1-0.1,0.2-0.1h0
		c0.1,0,0.2,0,0.2,0.1c1.8,2.6,4.7,4.2,7.8,4.2s6.1-1.6,7.8-4.2c0-0.1,0.1-0.1,0.2-0.1s0.2,0,0.2,0.1c1.8,2.6,4.7,4.2,7.8,4.2
		c0.1,0,0.2,0,0.3,0c0.1,0,0.2,0,0.3,0c0.1,0,0.2,0.1,0.2,0.2V55.4z M57.6,25.7c-3.2,0-5.9-2.3-6.5-5.4c0-0.1,0-0.1,0.1-0.2
		c0-0.1,0.1-0.1,0.2-0.1h12.5c0.1,0,0.1,0,0.2,0.1c0,0.1,0.1,0.1,0.1,0.2C63.5,23.4,60.8,25.7,57.6,25.7z"/>
</g>
</svg>
