<?xml version="1.0" encoding="utf-8"?>
<!-- Generator: Adobe Illustrator 19.0.0, SVG Export Plug-In . SVG Version: 6.00 Build 0)  -->
<svg version="1.1" id="Слой_1" xmlns="http://www.w3.org/2000/svg" xmlns:xlink="http://www.w3.org/1999/xlink" x="0px" y="0px"
	 viewBox="0 0 46.1 57.6" style="enable-background:new 0 0 46.1 57.6;" xml:space="preserve">
<g>
	<path d="M41.2,11.2h-6.7l0-0.3C34.2,4.8,29.2,0,23.1,0S12,4.8,11.6,10.8l0,0.3H5c-0.9,0-1.6,0.7-1.7,1.5L0,49.7c0,0,0,0.1,0,0.1
		c0,0,0,0,0,0.1c0,4.3,3.9,7.7,8.7,7.7h28.7c4.8,0,8.7-3.5,8.7-7.7c0,0,0-0.1,0-0.1l-3.3-37C42.8,11.8,42.1,11.2,41.2,11.2z
		 M15,10.8c0.3-4.2,3.9-7.4,8-7.4c4.2,0,7.7,3.3,8,7.4l0,0.4H15L15,10.8z M37.4,54.2H8.7c-2.9,0-5.3-1.9-5.3-4.3l3.1-35.4h5.1v4.7
		c0,0.9,0.8,1.7,1.7,1.7c0.9,0,1.7-0.8,1.7-1.7v-4.7h16.1v4.7c0,0.9,0.8,1.7,1.7,1.7c0.9,0,1.7-0.8,1.7-1.7v-4.7h5.1l3.1,35.4
		C42.7,52.3,40.4,54.2,37.4,54.2z"/>
	<path d="M15,36.9l4.4,4.4c0.6,0.6,1.8,0.6,2.4,0l9.4-9.4c0.3-0.3,0.5-0.7,0.5-1.2c0-0.5-0.2-0.9-0.5-1.2c-0.3-0.3-0.7-0.5-1.2-0.5
		c-0.5,0-0.9,0.2-1.2,0.5l-8.2,8.2l-3.2-3.2c-0.3-0.3-0.8-0.5-1.2-0.5c-0.4,0-0.9,0.2-1.2,0.5c-0.3,0.3-0.5,0.7-0.5,1.2
		C14.5,36.2,14.7,36.6,15,36.9z"/>
</g>
</svg>
