<?xml version="1.0" encoding="utf-8"?>
<!-- Generator: Adobe Illustrator 21.0.0, SVG Export Plug-In . SVG Version: 6.00 Build 0)  -->
<svg version="1.1" id="Layer_1" xmlns="http://www.w3.org/2000/svg" xmlns:xlink="http://www.w3.org/1999/xlink" x="0px" y="0px"
	 viewBox="-49 141 512 512" style="enable-background:new -49 141 512 512;" xml:space="preserve">
<g>
	<path d="M79.7,478.9c0-6.4-5.2-11.6-11.6-11.6c-6.4,0-11.6,5.2-11.6,11.6c0,7.4,2.8,15.3,8,22.8c2.3,3.2,5.9,4.9,9.5,4.9
		c2.3,0,4.6-0.7,6.7-2.1c5.2-3.7,6.5-10.9,2.8-16.2C81,484.8,79.7,481.5,79.7,478.9z"/>
	<path d="M142.3,513.6c-5.2-0.8-10.7-1.7-16.6-2.9c-6.3-1.2-12.4,2.9-13.6,9.2c-1.2,6.3,2.9,12.4,9.2,13.6c6.3,1.2,12.1,2.2,17.7,3
		c0.6,0.1,1.1,0.1,1.7,0.1c5.7,0,10.6-4.2,11.5-9.9C153.1,520.4,148.7,514.5,142.3,513.6z"/>
	<path d="M213.1,512.2c-5.3,1.2-10.7,2.1-16.1,2.7c-6.4,0.8-10.9,6.6-10.1,12.9c0.7,5.9,5.7,10.2,11.5,10.2c0.5,0,0.9,0,1.4-0.1
		c6.1-0.7,12.2-1.8,18.2-3.1c6.3-1.4,10.2-7.6,8.9-13.8C225.6,514.8,219.4,510.8,213.1,512.2z"/>
	<path d="M290.9,504.2c5.4-3.4,7.1-10.5,3.7-16c-3.4-5.4-10.5-7.1-16-3.7c-4.8,3-9.7,5.8-14.4,8.4c-5.6,3-7.8,10.1-4.7,15.7
		c2.1,3.9,6.1,6.1,10.2,6.1c1.9,0,3.7-0.4,5.5-1.4C280.4,510.5,285.7,507.4,290.9,504.2z"/>
	<path d="M451.4,540.3H329c17.1-11.4,34.2-24.9,51.4-40.4c6.4,5.2,10.9,4.6,12.4,4.6c2.4,0,4.8-0.8,6.8-2.2
		c32.4-23.6,42.9-65.3,25-95.8c8.4-7.7,21.4-22.4,24.7-42.6c1-6.3-3.2-12.3-9.6-13.3c-6.3-1-12.3,3.2-13.3,9.6
		c-2.2,13.2-11.2,23.5-17.1,28.9c-13-10.2-29.7-14.9-46.8-14l19.6-30.6c0.1-0.1,0.2-0.3,0.3-0.5c6-10.5,7.7-22.7,4.5-34.3
		c-2.9-10.8-9.6-20-18.9-26.1l62.5-39.7c5.4-3.4,7-10.6,3.6-16s-10.6-7-16-3.6l-42.4,26.9l36.1-65.3c3.1-5.6,1.1-12.7-4.5-15.8
		c-5.6-3.1-12.7-1.1-15.8,4.5l-37.7,68.3l-0.6-56.8c-0.1-6.4-5.3-11.6-11.7-11.5c-6.4,0.1-11.5,5.3-11.5,11.7l0.8,75.6
		c-10-5.2-21.5-6.4-32.5-3.5c-11.7,3.1-21.4,10.6-27.5,21.1c-0.1,0.1-0.1,0.3-0.2,0.4l-25.9,49c-6.2-13.8-14.3-26.6-24.4-38.2
		c-18.8-21.6-48.8-30.4-76.4-22.6c-0.8,0.2-1.7,0.5-2.5,0.7c-3.7-66.2-46.3-81.3-51.5-82.9c-9.5-2.9-19.6-2-28.3,2.6
		c-8.8,4.6-15.2,12.4-18.2,21.9c-5.4,17.6,3,36.6,19.4,44.5c1,1.5,3.3,5.7,4.1,14.9c-1.1-0.3-2.2-0.5-3.4-0.8
		c-28.5-7.3-58.8,2.3-77.3,24.5c-22.9,27.6-35.5,62.6-35.3,98.6c0.2,50,24.7,94.7,62.4,122.7c4.1,9,9.7,17.5,16.6,25.5h-66.8
		c-6.4,0-11.6,5.2-11.6,11.6c0,40.5,33,73.5,73.5,73.5h364.4c40.5,0,73.5-33,73.5-73.5C463,545.5,457.8,540.3,451.4,540.3z
		 M402.5,415.1c13.7,18.8,8.4,46.5-11.4,64.3c-6.5-3.5-7.6-6.9-10-14.2c-2.1-6.4-5.1-15.1-12.5-25.4c-7.5-10.3-14.9-15.8-20.3-19.8
		c-4.4-3.3-7.1-5.3-8.8-8.8l5.5-8.6C366.3,393.6,390.2,398.1,402.5,415.1z M268.5,333.6l21.9,12.6c1.8,1.1,3.8,1.6,5.8,1.6
		c4,0,7.9-2.1,10.1-5.8c3.2-5.6,1.3-12.6-4.2-15.9L279.4,313L291,291c3-5,7.7-8.6,13.3-10.1c5.7-1.5,11.6-0.7,16.7,2.2l33.2,19.1
		c5.1,2.9,8.7,7.7,10.3,13.4c1.5,5.6,0.8,11.5-2.1,16.5l-33.5,52.3c0,0,0,0-0.1,0l-30-17.3c-5.6-3.2-12.7-1.3-15.9,4.2
		c-3.2,5.6-1.3,12.6,4.2,15.9l29.2,16.5l-9.3,14.7c-14.9,9.4-31,14.8-48.3,16.3l-5.8-3.4c3.4-12.8,5.2-26.1,5.2-39.8
		c0-10.8-1.1-21.5-3.4-31.9L268.5,333.6z M202.9,306c20.7,23.7,32.1,54.1,32.1,85.6c0,14.4-2.3,28.4-6.8,41.7
		c-5.8-1-11.7-2.3-17.8-4.1c-8.7-2.5-17.2-6.3-25.4-11.3c5-27.9,3.8-53.2-3.5-75.9c-7.8-24.1-21.3-40.5-33.1-51
		c0.6-0.2,1.3-0.3,1.9-0.5C169.3,285.1,189.9,291.2,202.9,306z M116.2,296.8c4,1.9,31.4,16,43.2,52.4c5,15.6,6.4,33.3,4.3,52.7
		c-13.8-10.8-30.2-17.7-47.5-20V296.8z M65.6,217.4c1.1-3.6,3.5-6.5,6.8-8.2c3.3-1.7,7.1-2.1,10.7-1c3.6,1.1,33.4,11.9,35.2,64.8
		c-9.2,0.9-18.7,1.1-27.9,0.4c-1-25.1-9.9-34.5-14-37.5c-0.8-0.6-1.7-1.1-2.6-1.4C67.1,231.8,63.5,224.3,65.6,217.4z M92.9,296.8
		C92.9,296.8,93,296.8,92.9,296.8l0,84.7c-17.7,1.9-34,8.5-47.7,18.5c-1.9-18.5-0.4-35.3,4.3-50.3C61.2,313.2,88.5,298.9,92.9,296.8
		z M-25.8,392.1c-0.1-30.5,10.5-60.2,30-83.6c9.9-11.9,24.8-18.5,40.2-18.5c4.5,0,9,0.6,13.4,1.7c0.6,0.2,1.2,0.3,1.8,0.4
		c-11.6,10.5-24.4,26.6-32,50c-7.6,23.3-8.5,49.6-3,78.5C13.1,436.1,6,455.1,5.4,475.8C-13.9,453.1-25.7,423.9-25.8,392.1z
		 M28.5,478.9c0-41.2,33.5-74.7,74.7-74.7c18.1,0,35.5,6.5,49.1,18.4c15.9,13.9,33.3,23.6,51.6,28.9c33.1,9.6,79.7,13.2,123.3-18.6
		c2.3,2.1,4.8,3.9,7.2,5.8c4.9,3.6,9.9,7.4,15.3,14.8c5.4,7.4,7.4,13.4,9.3,19.1c1.3,3.8,2.5,7.6,4.5,11.3
		c-28.5,25.5-55.2,43.7-80.3,56.5h-219C43.7,525.5,28.5,503.7,28.5,478.9z M389.5,602.2H25.1c-23.7,0-43.7-16.5-48.9-38.7h462.3
		C433.2,585.7,413.2,602.2,389.5,602.2z"/>
</g>
</svg>
