<?xml version="1.0" encoding="utf-8"?>
<!-- Generator: Adobe Illustrator 19.0.0, SVG Export Plug-In . SVG Version: 6.00 Build 0)  -->
<svg version="1.1" id="Слой_1" xmlns="http://www.w3.org/2000/svg" xmlns:xlink="http://www.w3.org/1999/xlink" x="0px" y="0px"
	 viewBox="289.3 108.9 381.1 342.6" style="enable-background:new 289.3 108.9 381.1 342.6;" xml:space="preserve">
<path d="M670.4,346c0-10.2-4.5-19.8-12.4-26.3c-25.1-20.6-52.1-35.9-66-43.3l-2.4-1.3v-38.4l1.2-1.3c5.6-5.9,8.8-13.8,8.8-22.1
	v-49.7c0-30.2-24.5-54.7-54.7-54.7h-10.6c-30.2,0-54.7,24.5-54.7,54.7v49.7c0,8.3,3.1,16.2,8.8,22.1l1.2,1.3v38.4l-2.4,1.3
	c-14,7.4-41.1,22.8-66,43.3c-7.9,6.5-12.4,16.1-12.4,26.3v85.5h-99.6v-79.1c0-2.9,1.2-5.6,3.4-7.4c24.6-20.2,50.8-33.3,55.8-35.8
	c4-2,6.6-6.1,6.6-10.5v-39c0-3.3-1.6-6.3-4.4-8.2c-1.8-1.1-3.8-3.5-3.8-7V204c0-14.7,11.9-26.6,26.6-26.6h8.7
	c14.7,0,26.6,11.9,26.6,26.6v40.5c0,3.4-2,5.9-3.9,7c-2.1,1.4-3.6,3.6-4.1,6.2c-0.5,2.6,0,5.3,1.5,7.5c3,4.5,9.2,5.8,13.8,2.7
	c7.9-5.2,12.5-14,12.5-23.4V204c0-25.6-20.8-46.4-46.4-46.4h-8.7c-25.6,0-46.4,20.8-46.4,46.4v40.5c0,6.8,2.5,13.5,7,18.6l1.1,1.3
	v29.4l-2.4,1.3c-8.7,4.5-31.3,17-52.6,34.6c-6.8,5.7-10.8,14-10.8,22.9v89c0,5.5,4.4,9.9,9.9,9.9h119.4c0.3,0,0.7,0,1.1-0.1h0.2
	h240.4c5.5,0,9.9-4.4,9.9-9.9V346H670.4z M650.7,431.5h-222V346c0-4.3,1.9-8.3,5.2-11c28.8-23.7,59.9-39.8,68.8-44.2
	c4.1-2,6.8-6.3,6.8-10.9V232c0-3.3-1.7-6.4-4.4-8.3c-3.5-2.4-5.6-6.2-5.6-10.4v-49.7c0-19.2,15.7-34.9,34.9-34.9h10.7
	c19.2,0,34.9,15.7,34.9,34.9v49.7c0,4.2-2.2,8.2-5.7,10.4c-2.7,1.8-4.3,4.9-4.3,8.2v47.9c0,4.6,2.7,8.9,6.8,10.9
	c8.9,4.4,40.2,20.6,68.8,44.2c3.3,2.7,5.2,6.7,5.2,11v85.6H650.7z"/>
</svg>
