<?xml version="1.0" encoding="utf-8"?>
<!-- Generator: Adobe Illustrator 19.0.0, SVG Export Plug-In . SVG Version: 6.00 Build 0)  -->
<svg version="1.1" id="Capa_1" xmlns="http://www.w3.org/2000/svg" xmlns:xlink="http://www.w3.org/1999/xlink" x="0px" y="0px"
	 viewBox="-454 256 50 50" style="enable-background:new -454 256 50 50;" xml:space="preserve">
<g>
	<path d="M-440.5,283c3.2,0,6.5-1.2,6.5-3.5s-3.3-3.5-6.5-3.5s-6.5,1.2-6.5,3.5S-443.7,283-440.5,283z M-440.5,278
		c2.9,0,4.5,1.1,4.5,1.5s-1.6,1.5-4.5,1.5s-4.5-1.1-4.5-1.5S-443.4,278-440.5,278z"/>
	<path d="M-448,293c-0.6,0-1,0.4-1,1v6c0,0.6,0.4,1,1,1s1-0.4,1-1v-6C-447,293.4-447.4,293-448,293z"/>
	<path d="M-448,287c-0.6,0-1,0.4-1,1v3c0,0.6,0.4,1,1,1s1-0.4,1-1v-3C-447,287.4-447.4,287-448,287z"/>
	<path d="M-423,293c-0.6,0-1,0.4-1,1v6c0,0.6,0.4,1,1,1s1-0.4,1-1v-6C-422,293.4-422.4,293-423,293z"/>
	<path d="M-423,287c-0.6,0-1,0.4-1,1v3c0,0.6,0.4,1,1,1s1-0.4,1-1v-3C-422,287.4-422.4,287-423,287z"/>
	<path d="M-428.5,267c3.2,0,6.5-1.2,6.5-3.5s-3.3-3.5-6.5-3.5s-6.5,1.2-6.5,3.5S-431.7,267-428.5,267z M-428.5,262
		c2.9,0,4.5,1.1,4.5,1.5s-1.6,1.5-4.5,1.5s-4.5-1.1-4.5-1.5S-431.4,262-428.5,262z"/>
	<path d="M-417.5,283c3.2,0,6.5-1.2,6.5-3.5s-3.3-3.5-6.5-3.5s-6.5,1.2-6.5,3.5S-420.7,283-417.5,283z M-417.5,278
		c2.9,0,4.5,1.1,4.5,1.5s-1.6,1.5-4.5,1.5s-4.5-1.1-4.5-1.5S-420.4,278-417.5,278z"/>
	<path d="M-404,281.9c0-0.5,0-1.1-0.2-1.6c-1.4-4.4-5.3-7.3-9.8-7.3h-1v-6.8l0-0.3c0-0.5,0-1.1-0.2-1.6c-1.2-3.7-2.8-7.3-7.8-7.3
		h-11c-5,0-6.6,3.6-7.8,7.3c-0.1,0.4-0.2,0.7-0.2,1.1l0,0v7.6h-4c-5,0-6.6,3.6-7.8,7.3c-0.1,0.4-0.2,0.7-0.2,1.1l0,0v17.4
		c0,3.4,2.8,6.2,6.2,6.2h14.5c1.6,0,3.1-0.6,4.3-1.7c1.1,1.1,2.7,1.7,4.2,1.7h14.5c3.4,0,6.2-2.8,6.2-6.2v-16.6L-404,281.9z
		 M-414,275c3.6,0,6.7,2.3,7.9,5.9c0.1,0.3,0.1,0.7,0.1,1l0,0c0,0.1,0,0.2-0.1,0.2c0,0.1,0,0.1-0.1,0.2c0,0.1-0.1,0.2-0.1,0.2
		c0,0.1-0.1,0.2-0.1,0.3c0,0.1-0.1,0.1-0.1,0.2c-0.1,0.1-0.2,0.2-0.3,0.3c0,0-0.1,0.1-0.1,0.1c-0.1,0.1-0.2,0.2-0.3,0.2
		c0,0-0.1,0-0.1,0c-0.1,0.1-0.3,0.1-0.4,0.1c0,0-0.1,0-0.1,0c-0.2,0-0.3,0.1-0.5,0.1h-18.5c-0.1,0-0.2,0-0.3,0v-1.8l0-0.3
		c0-0.2,0-0.4,0-0.7c0,0,0-0.1,0-0.1c0-0.3-0.1-0.6-0.2-0.8c-0.2-0.7-0.4-1.3-0.7-1.9c0-0.1,0-0.1,0.1-0.2c0-0.1,0.1-0.2,0.1-0.3
		c0-0.1,0.1-0.3,0.1-0.4c0-0.1,0-0.2,0.1-0.2c0-0.1,0.1-0.3,0.1-0.4c0-0.1,0-0.1,0-0.2c0-0.2,0-0.3,0.1-0.5c0.2-1.2,0.2-1.2,1.4-1.2
		h11H-414z M-439.9,264.9c1.3-3.9,2.5-5.9,5.9-5.9h11c3.3,0,4.6,2,5.9,5.9c0.1,0.3,0.1,0.7,0.1,1l0,0c0,0.1,0,0.2-0.1,0.2
		c0,0.1,0,0.1-0.1,0.2c0,0.1-0.1,0.2-0.1,0.2c0,0.1-0.1,0.2-0.1,0.3c0,0.1-0.1,0.1-0.1,0.2c-0.1,0.1-0.2,0.2-0.3,0.3
		c0,0-0.1,0.1-0.1,0.1c-0.1,0.1-0.2,0.2-0.3,0.2c0,0-0.1,0-0.1,0c-0.1,0.1-0.3,0.1-0.4,0.1c0,0-0.1,0-0.1,0c-0.2,0-0.3,0.1-0.5,0.1
		h-18.5c-0.2,0-0.3,0-0.5-0.1c0,0-0.1,0-0.1,0c-0.1,0-0.3-0.1-0.4-0.1c0,0-0.1,0-0.1,0c-0.1-0.1-0.2-0.1-0.3-0.2
		c0,0-0.1-0.1-0.1-0.1c-0.1-0.1-0.2-0.2-0.3-0.3c0-0.1-0.1-0.1-0.1-0.2c-0.1-0.1-0.1-0.2-0.1-0.3c0-0.1-0.1-0.2-0.1-0.2
		c0-0.1,0-0.1-0.1-0.2c0-0.1,0-0.2-0.1-0.2l0,0C-440,265.6-440,265.3-439.9,264.9z M-440,269.3c0.1,0,0.1,0.1,0.2,0.1
		c0.1,0,0.2,0.1,0.3,0.1c0.1,0,0.1,0.1,0.2,0.1c0.1,0,0.2,0.1,0.3,0.1c0.1,0,0.1,0,0.2,0.1c0.1,0,0.2,0.1,0.4,0.1c0.1,0,0.1,0,0.2,0
		c0.2,0,0.4,0,0.6,0h18.5c0.2,0,0.4,0,0.6,0c0.1,0,0.1,0,0.2,0c0.1,0,0.2,0,0.4-0.1c0.1,0,0.1,0,0.2-0.1c0.1,0,0.2-0.1,0.3-0.1
		c0.1,0,0.1-0.1,0.2-0.1c0.1,0,0.2-0.1,0.3-0.1c0.1,0,0.1-0.1,0.2-0.1v3.7h-9c-0.3,0-0.6,0-0.9,0.1c-0.1,0-0.2,0-0.3,0.1
		c-0.2,0-0.3,0.1-0.5,0.1c-0.1,0-0.2,0.1-0.2,0.1c-0.1,0-0.2,0.1-0.3,0.2c-0.1,0-0.1,0.1-0.2,0.1c-0.1,0.1-0.2,0.1-0.2,0.2
		c-0.1,0.1-0.1,0.1-0.1,0.2c-0.1,0.1-0.1,0.2-0.2,0.2c0,0.1-0.1,0.1-0.1,0.2c0,0.1-0.1,0.2-0.1,0.3c0,0.1,0,0.2-0.1,0.2
		c0,0.1-0.1,0.2-0.1,0.3c0,0.1,0,0.2,0,0.3c0,0.1,0,0.1,0,0.1c-0.1-0.2-0.3-0.4-0.4-0.5c0,0,0,0,0,0c-0.2-0.2-0.3-0.3-0.5-0.5
		c0,0,0,0,0,0c-0.2-0.2-0.4-0.3-0.5-0.4c0,0,0,0,0,0c-0.2-0.1-0.4-0.3-0.6-0.4c0,0,0,0-0.1,0c-0.2-0.1-0.4-0.2-0.6-0.3
		c0,0-0.1,0-0.1,0c-0.2-0.1-0.4-0.1-0.7-0.2c-0.1,0-0.1,0-0.2,0c-0.2,0-0.5-0.1-0.7-0.1c-0.1,0-0.1,0-0.2,0c-0.3,0-0.6-0.1-1-0.1h-5
		V269.3z M-451.9,280.9c1.3-3.9,2.5-5.9,5.9-5.9h4h7c0.4,0,0.7,0,1.1,0.1c0.1,0,0.2,0,0.2,0c0.2,0.1,0.5,0.1,0.7,0.2
		c0.1,0,0.1,0.1,0.2,0.1c0.2,0.1,0.5,0.2,0.7,0.4c0,0,0.1,0,0.1,0.1c0.2,0.2,0.4,0.4,0.6,0.6c0.1,0.1,0.2,0.2,0.3,0.3
		c0.1,0.1,0.2,0.3,0.3,0.4c0.1,0.1,0.2,0.3,0.3,0.5c0.1,0.1,0.2,0.3,0.2,0.4c0.1,0.2,0.2,0.3,0.3,0.5c0.1,0.2,0.2,0.4,0.3,0.6
		c0.1,0.2,0.1,0.3,0.2,0.5c0.1,0.4,0.3,0.8,0.4,1.2c0.1,0.2,0.1,0.4,0.1,0.6c0,0,0,0.1,0,0.1c0,0.2,0,0.3-0.1,0.5c0,0,0,0.1,0,0.1
		c0,0,0,0,0,0c0,0.2-0.1,0.4-0.2,0.5c0,0,0,0,0,0.1c-0.1,0.2-0.2,0.4-0.4,0.5l-0.1,0.1c0,0,0,0,0,0c-0.1,0.1-0.2,0.2-0.3,0.2
		c0,0-0.1,0-0.1,0c-0.1,0.1-0.3,0.1-0.4,0.1c0,0-0.1,0-0.1,0c-0.2,0-0.3,0.1-0.5,0.1h-18.5c-0.2,0-0.3,0-0.5-0.1c0,0-0.1,0-0.1,0
		c-0.1,0-0.3-0.1-0.4-0.1c0,0-0.1,0-0.1,0c-0.1-0.1-0.2-0.1-0.3-0.2c0,0-0.1-0.1-0.1-0.1c-0.1-0.1-0.2-0.2-0.3-0.3
		c0-0.1-0.1-0.1-0.1-0.2c-0.1-0.1-0.1-0.2-0.1-0.3c0-0.1-0.1-0.2-0.1-0.2c0-0.1,0-0.1-0.1-0.2c0-0.1,0-0.2-0.1-0.2l0,0
		C-452,281.6-452,281.3-451.9,280.9z M-433.2,303h-14.5c-2.3,0-4.2-1.9-4.2-4.2v-13.4c0.1,0,0.1,0.1,0.2,0.1c0.1,0,0.2,0.1,0.3,0.1
		c0.1,0,0.1,0.1,0.2,0.1c0.1,0,0.2,0.1,0.3,0.1c0.1,0,0.1,0,0.2,0.1c0.1,0,0.2,0.1,0.4,0.1c0.1,0,0.1,0,0.2,0c0.2,0,0.4,0,0.6,0
		h18.5c0.2,0,0.4,0,0.6,0c0.1,0,0.1,0,0.2,0c0.1,0,0.2,0,0.4-0.1c0.1,0,0.1,0,0.2-0.1c0.1,0,0.2-0.1,0.3-0.1c0.1,0,0.1-0.1,0.2-0.1
		c0.1,0,0.2-0.1,0.3-0.1c0.1,0,0.1-0.1,0.2-0.1v13.4v0c0,0.3,0,0.5-0.1,0.8c0,0.1,0,0.2-0.1,0.3c0,0.1-0.1,0.3-0.1,0.4
		c0,0.1-0.1,0.3-0.2,0.4c0,0.1-0.1,0.1-0.1,0.2c-0.1,0.1-0.2,0.3-0.3,0.4l0,0C-430.6,302.3-431.8,303-433.2,303z M-406,298.8
		c0,2.3-1.9,4.2-4.2,4.2h-14.5c-1.1,0-2.2-0.5-3-1.3c0.2-0.4,0.4-0.9,0.5-1.4c0,0,0-0.1,0-0.1c0-0.2,0.1-0.4,0.1-0.6
		c0-0.1,0-0.1,0-0.2c0-0.2,0-0.5,0-0.7v0V286c0.1,0,0.2,0,0.3,0h18.5c0.2,0,0.4,0,0.6,0c0.1,0,0.1,0,0.2,0c0.1,0,0.2,0,0.4-0.1
		c0.1,0,0.1,0,0.2-0.1c0.1,0,0.2-0.1,0.3-0.1c0.1,0,0.1-0.1,0.2-0.1c0.1,0,0.2-0.1,0.3-0.1c0.1,0,0.1-0.1,0.2-0.1L-406,298.8
		L-406,298.8z"/>
</g>
</svg>
