<?xml version="1.0" encoding="utf-8"?>
<!-- Generator: Adobe Illustrator 19.0.0, SVG Export Plug-In . SVG Version: 6.00 Build 0)  -->
<svg version="1.1" id="Режим_изоляции"
	 xmlns="http://www.w3.org/2000/svg" xmlns:xlink="http://www.w3.org/1999/xlink" x="0px" y="0px" viewBox="0 0 160.2 153.9"
	 style="enable-background:new 0 0 160.2 153.9;" xml:space="preserve">
<style type="text/css">
	.st0{stroke:#000000;stroke-width:3;stroke-miterlimit:10;}
</style>
<path class="st0" d="M121.9,99.4c-0.5-1.6,0.1-3.3,1.4-4.3l29.9-22c4.8-3.5,6.7-9.4,4.8-15c-1.8-5.6-6.8-9.3-12.7-9.3l-37.1-0.2
	c-1.7,0-3.1-1.1-3.6-2.6L92.9,10.7C91.1,5.1,86,1.5,80.1,1.5c-5.9,0-10.9,3.6-12.8,9.2l-5.2,15.9c-0.8,2.5,0.5,5.2,3.1,6.1
	c2.5,0.8,5.2-0.5,6.1-3.1l5.2-15.9c0.8-2.5,3-2.7,3.7-2.7c0.7,0,2.9,0.2,3.7,2.7L95.4,49c1.8,5.5,6.9,9.2,12.7,9.2l37.1,0.2
	c2.6,0,3.4,2,3.7,2.7c0.2,0.6,0.7,2.8-1.4,4.3l-29.9,22c-4.7,3.4-6.6,9.4-4.9,14.9l11.3,35.4c0.8,2.5-0.9,3.9-1.4,4.3
	c-0.5,0.4-2.4,1.5-4.5,0L88,120.3c-4.7-3.4-11-3.4-15.7,0L42.1,142c-2.1,1.5-4,0.4-4.5,0c-0.5-0.4-2.2-1.8-1.4-4.3l11.3-35.4
	c1.8-5.5-0.2-11.5-4.9-14.9l-29.9-22c-2.1-1.5-1.6-3.7-1.4-4.3c0.2-0.6,1.1-2.7,3.7-2.7l37.1-0.2c2.6,0,4.8-2.2,4.8-4.8
	c0-2.6-2.2-4.8-4.8-4.8h0l-37.1,0.2C9,48.9,4,52.5,2.2,58.1c-1.8,5.6,0.1,11.5,4.8,15l29.9,22c1.3,1,1.9,2.7,1.4,4.3L27,134.8
	c-1.8,5.6,0.1,11.5,4.9,15c2.4,1.7,5.2,2.6,7.9,2.6c2.7,0,5.5-0.9,7.9-2.6l30.1-21.7c1.3-1,3.2-1,4.5,0l30.1,21.7
	c4.8,3.5,11,3.4,15.8,0c4.8-3.5,6.7-9.4,4.9-15L121.9,99.4z M121.9,99.4"/>
</svg>
