<?xml version="1.0" encoding="utf-8"?>
<!-- Generator: Adobe Illustrator 21.0.0, SVG Export Plug-In . SVG Version: 6.00 Build 0)  -->
<svg version="1.1" id="Слой_1" xmlns="http://www.w3.org/2000/svg" xmlns:xlink="http://www.w3.org/1999/xlink" x="0px" y="0px"
	 viewBox="0 0 375.4 392.3" style="enable-background:new 0 0 375.4 392.3;" xml:space="preserve">
<g>
	<path d="M348,277.5c-7.1,3.6-10,12.2-6.4,19.4c3.2,6.4,4.9,13.4,4.9,20.6c0,25.4-20.6,46.1-46.1,46.1c-25.4,0-46.1-20.6-46.1-46.1
		c0-25.4,20.7-46.1,46.2-46.1c7.9,0,14.4-6.5,14.4-14.4c0-7.9-6.5-14.4-14.4-14.4c-23.6,0-44.7,11-58.5,28.2l-95.1-54.2
		c1.9-6.6,2.9-13.5,2.9-20.6c0-7.1-1-14-2.9-20.6l94.7-54c13.8,17.3,35,28.5,58.9,28.5c41.3,0,74.9-33.6,74.9-74.9
		c0-11.8-2.6-23-7.9-33.5c-3.6-7.1-12.2-10-19.4-6.4c-7.1,3.6-10,12.2-6.4,19.4c3.2,6.4,4.9,13.4,4.9,20.6
		c0,25.4-20.6,46.1-46.1,46.1c-25.4,0-46.1-20.6-46.1-46.1c0-25.4,20.6-46.1,46.1-46.1c7.9,0,14.4-6.5,14.4-14.4
		c0-7.9-6.5-14.4-14.4-14.4c-41.3,0-74.9,33.6-74.9,74.9c0,7.2,1,14.1,2.9,20.6l-106.6,60.7c-5.9,3.4-8.6,10.4-6.6,16.9
		c0.3,0.9,0.6,1.8,1,2.6c3,6.3,4.6,13,4.6,20.2c0,25.4-20.6,46.1-46.1,46.1c-25.4,0-46.1-20.6-46.1-46.1c0-25.4,20.6-46.1,46-46.1
		c7.9,0,14.4-6.5,14.4-14.4c0-7.9-6.5-14.4-14.4-14.4C33.6,121,0,154.6,0,195.8s33.6,74.9,74.9,74.9c23.8,0,45.1-11.2,58.8-28.6
		l94.9,54.1c-2,6.7-3,13.8-3,21.2c0,41.3,33.6,74.9,74.9,74.9c41.3,0,74.9-33.6,74.9-74.9c0-11.8-2.6-23-7.9-33.5
		C363.8,276.8,355.1,273.9,348,277.5L348,277.5z M348,277.5"/>
</g>
</svg>
