<?xml version="1.0" encoding="utf-8"?>
<!-- Generator: Adobe Illustrator 19.0.0, SVG Export Plug-In . SVG Version: 6.00 Build 0)  -->
<svg version="1.1" id="Слой_1" xmlns="http://www.w3.org/2000/svg" xmlns:xlink="http://www.w3.org/1999/xlink" x="0px" y="0px"
	 viewBox="0 0 66 57.7" style="enable-background:new 0 0 66 57.7;" xml:space="preserve">
<g>
	<g>
		<path d="M48,45.1c-3.3,0-6,2.7-6,6c0,3.3,2.7,6,6,6c3.3,0,6-2.7,6-6C54,47.8,51.3,45.1,48,45.1L48,45.1z M48,54.8
			c-2,0-3.6-1.6-3.6-3.6c0-2,1.6-3.6,3.6-3.6c2,0,3.6,1.6,3.6,3.6C51.6,53.1,49.9,54.8,48,54.8L48,54.8z M48,54.8"/>
		<path d="M48,57.7c-3.6,0-6.5-2.9-6.5-6.5c0-3.6,2.9-6.5,6.5-6.5c3.6,0,6.5,2.9,6.5,6.5C54.5,54.7,51.5,57.7,48,57.7z M48,45.6
			c-3.1,0-5.6,2.5-5.6,5.6s2.5,5.6,5.6,5.6s5.6-2.5,5.6-5.6S51,45.6,48,45.6z M48,55.2c-2.3,0-4.1-1.8-4.1-4.1
			c0-2.3,1.8-4.1,4.1-4.1c2.3,0,4.1,1.8,4.1,4.1C52,53.4,50.2,55.2,48,55.2z M48,48c-1.7,0-3.2,1.4-3.2,3.2c0,1.7,1.4,3.2,3.2,3.2
			c1.7,0,3.2-1.4,3.2-3.2C51.1,49.4,49.7,48,48,48z"/>
	</g>
	<g>
		<path d="M23.8,45.1c-3.3,0-6,2.7-6,6c0,3.3,2.7,6,6,6c3.3,0,6-2.7,6-6C29.9,47.8,27.1,45.1,23.8,45.1L23.8,45.1z M23.8,54.8
			c-2,0-3.6-1.6-3.6-3.6c0-2,1.6-3.6,3.6-3.6c2,0,3.6,1.6,3.6,3.6C27.4,53.1,25.8,54.8,23.8,54.8L23.8,54.8z M23.8,54.8"/>
		<path d="M23.8,57.7c-3.6,0-6.5-2.9-6.5-6.5c0-3.6,2.9-6.5,6.5-6.5c3.6,0,6.5,2.9,6.5,6.5C30.3,54.7,27.4,57.7,23.8,57.7z
			 M23.8,45.6c-3.1,0-5.6,2.5-5.6,5.6s2.5,5.6,5.6,5.6s5.6-2.5,5.6-5.6S26.9,45.6,23.8,45.6z M23.8,55.2c-2.3,0-4.1-1.8-4.1-4.1
			c0-2.3,1.8-4.1,4.1-4.1s4.1,1.8,4.1,4.1C27.9,53.4,26.1,55.2,23.8,55.2z M23.8,48c-1.7,0-3.2,1.4-3.2,3.2c0,1.7,1.4,3.2,3.2,3.2
			s3.2-1.4,3.2-3.2C27,49.4,25.6,48,23.8,48z"/>
	</g>
	<g>
		<path d="M64.9,10.5c-0.7-1-1.8-1.6-3-1.6H12.7l-0.7-3.6c-0.5-2.8-3-4.8-5.9-4.8H1.7C1,0.5,0.5,1,0.5,1.7c0,0.7,0.5,1.2,1.2,1.2H6
			c1.7,0,3.2,1.2,3.5,2.9l0.9,4.6c0,0.1,0.1,0.2,0.1,0.4l5.2,27.2c0.6,2.8,3.1,4.9,6,4.9h28.2c2.5,0,4.8-1.6,5.7-3.9l9.6-25
			C65.7,12.7,65.5,11.4,64.9,10.5L64.9,10.5z M63,13l-9.6,25c-0.5,1.4-1.9,2.4-3.4,2.4H21.8c-1.7,0-3.2-1.3-3.6-3l-3.6-18.8h28.5
			c0.7,0,1.2-0.5,1.2-1.2c0-0.7-0.5-1.2-1.2-1.2h-29l-0.9-4.8h48.7c0.4,0,0.7,0.2,1,0.5C63.1,12.2,63.2,12.6,63,13L63,13z M63,13"/>
		<path d="M49.9,43.2H21.7c-3.1,0-5.8-2.2-6.4-5.3l-5.2-27.1C10,10.8,10,10.6,10,10.4L9.1,5.9C8.8,4.4,7.5,3.3,6,3.3H1.7
			C0.8,3.3,0,2.6,0,1.7C0,0.8,0.8,0,1.7,0H6c3.1,0,5.8,2.2,6.4,5.2L13,8.4h48.9c1.3,0,2.6,0.7,3.3,1.8c0.8,1.1,0.9,2.6,0.4,3.8
			l-9.6,25C55.1,41.6,52.7,43.2,49.9,43.2z M1.7,0.9c-0.4,0-0.7,0.3-0.7,0.7c0,0.4,0.3,0.7,0.7,0.7H6c2,0,3.6,1.3,4,3.3l0.9,4.7
			c0,0,0,0.1,0.1,0.1l0,0.1l5.2,27.2c0.6,2.6,2.9,4.5,5.5,4.5h28.2c2.3,0,4.4-1.4,5.2-3.6l9.6-25c0.4-1,0.3-2.1-0.3-2.9l0,0
			c-0.6-0.9-1.5-1.4-2.6-1.4H12.3l-0.8-4C11,2.8,8.7,0.9,6,0.9H1.7z M50,40.8H21.8c-1.9,0-3.6-1.4-4-3.3L14,18.1h29
			c0.4,0,0.7-0.3,0.7-0.7c0-0.4-0.3-0.7-0.7-0.7H13.7l-1.1-5.8h49.3c0.5,0,1,0.2,1.3,0.7c0.4,0.5,0.4,1.1,0.2,1.6l-9.6,25
			C53.2,39.7,51.7,40.8,50,40.8z M15.2,19l3.5,18.2c0.3,1.5,1.6,2.6,3.1,2.6H50c1.3,0,2.5-0.8,2.9-2l9.6-25c0.1-0.2,0.1-0.4-0.1-0.7
			c-0.1-0.2-0.3-0.3-0.6-0.3H13.8l0.7,3.9h28.6c0.9,0,1.7,0.8,1.7,1.7c0,0.9-0.8,1.7-1.7,1.7H15.2z"/>
	</g>
	<g>
		<path d="M50.3,16.2h-1.8c-0.7,0-1.2,0.5-1.2,1.2c0,0.7,0.5,1.2,1.2,1.2h1.8c0.7,0,1.2-0.5,1.2-1.2C51.5,16.7,51,16.2,50.3,16.2
			L50.3,16.2z M50.3,16.2"/>
		<path d="M50.3,19h-1.8c-0.9,0-1.7-0.8-1.7-1.7c0-0.9,0.8-1.7,1.7-1.7h1.8c0.9,0,1.7,0.8,1.7,1.7C52,18.3,51.2,19,50.3,19z
			 M48.5,16.6c-0.4,0-0.7,0.3-0.7,0.7c0,0.4,0.3,0.7,0.7,0.7h1.8c0.4,0,0.7-0.3,0.7-0.7c0-0.4-0.3-0.7-0.7-0.7H48.5z"/>
	</g>
</g>
</svg>
