<?xml version="1.0" encoding="utf-8"?>
<!-- Generator: Adobe Illustrator 19.0.0, SVG Export Plug-In . SVG Version: 6.00 Build 0)  -->
<svg version="1.1" id="Режим_изоляции"
	 xmlns="http://www.w3.org/2000/svg" xmlns:xlink="http://www.w3.org/1999/xlink" x="0px" y="0px" viewBox="0 0 473.5 517"
	 style="enable-background:new 0 0 473.5 517;" xml:space="preserve">
<style type="text/css">
	.st0{stroke:#000000;stroke-width:5;stroke-miterlimit:10;}
</style>
<g id="X1OBjU_1_">
	<g>
		<path class="st0" d="M362.8,2.5c7.1,3.9,9.6,9.8,9.4,17.8c-0.3,21.7,0,43.3-0.2,65c0,4.6,1.3,6,5.9,6c16.2-0.3,32.3,0.3,48.5-0.2
			c23.8-0.7,43.5,19.8,43.9,39.3c0.1,4,0.6,7.9,0.6,11.9c0,64.8,0,129.7,0,194.5c0,8.4-0.9,16.7-4.9,24.2
			c-8.7,16.6-22.9,24-41.1,24.4c-7.8,0.2-15.7,0.8-23.4-0.6c-7.5-1.4-12-6.5-12.2-13.6c-0.3-7.6,4.2-13.5,11.7-15.2
			c7.4-1.7,14.9-0.6,22.4-0.7c13-0.1,17.4-4.4,17.4-17.3c0-67.2-0.1-134.3-0.1-201.5c0-10.4-5.1-15.7-15.5-15.8c-21.7,0-43.3,0-65,0
			c-12.1,0-17.7-5.6-17.7-17.7c0-21.7-0.1-43.3,0.1-65c0-4.6-1-6.4-6-6.4c-66.5,0.2-133,0.1-199.5,0c-4.5,0-6.1,1.1-6,5.9
			c0.3,16,0.3,32,0.1,48c-0.1,4.5,1.5,5.6,5.8,5.6c33.3-0.1,66.7-0.1,100,0c8.2,0,13.8,5.3,14.8,13.4c0.8,6.9-4,13.5-11.4,15.5
			c-2.3,0.7-4.6,0.7-6.9,0.7c-17.3,0-34.7,0-52,0c-43.8,0-87.7,0-131.5,0c-12.3,0-17,4.6-17.1,16.7c0,67,0,134,0,201
			c0,12.3,4.5,16.7,17,16.7c7.8,0,15.7-0.1,23.5,0.2c8,0.4,13.8,5.8,14.7,13.1c0.8,6.6-3.1,13.2-9.3,15.5c-3,1.1-6.2,1.2-9.4,1.3
			c-9.5,0.2-19,0.2-28.5-0.6c-18.6-1.6-35.7-18.9-37.5-37.3c-1.5-16.3-0.8-32.6-0.8-48.9c-0.1-53.3-0.1-106.7-0.1-160
			c0-23.7,13.1-41.3,34.6-46.5c3-0.7,5.9-0.8,8.9-0.8c16.5,0,33-0.1,49.5,0.1c4.5,0.1,6.1-1.2,6-5.9c-0.2-21.5,0.1-43-0.2-64.5
			c-0.1-8.1,2.3-14.3,9.4-18.4C194.8,2.5,278.8,2.5,362.8,2.5z"/>
		<path class="st0" d="M131.8,514.5c-7.5-3.3-10.4-9.1-10.4-17.1c0.1-68.3,0-136.6,0-204.9c0-6.6-0.1-6.6-6.6-6.6
			c-6.3,0-12.7,0-19-0.1c-9.5-0.2-15.6-6.3-15.5-15.2c0.1-8.7,6.2-14.3,15.7-14.3c93.9,0,187.9,0,281.8,0c9.2,0,15.5,6,15.6,14.6
			c0.2,8.6-6.1,14.8-15.3,15c-6.8,0.1-13.7,0.3-20.5,0c-4.3-0.2-5.8,1.1-5.8,5.6c0.2,37.5,0.1,75,0.1,112.4
			c0,31.6-0.1,63.3,0.1,94.9c0,7.4-3.4,12.3-9.4,15.8C272.5,514.5,202.2,514.5,131.8,514.5z M322.5,385.8c0-31.2-0.1-62.3,0.1-93.5
			c0-4.9-1-6.6-6.3-6.6c-53,0.2-106,0.2-158.9,0c-4.7,0-6.3,1.2-6.3,6.1c0.2,62.5,0.2,125,0,187.4c0,5,1.6,6.1,6.3,6.1
			c53-0.1,106-0.1,158.9,0c4.7,0,6.3-1.2,6.3-6.1C322.4,448.1,322.5,416.9,322.5,385.8z"/>
		<path class="st0" d="M104.1,182.7c0,10-8.2,18.1-18.2,18c-9.8-0.1-17.8-8.4-17.7-18.5c0.1-9.7,8.2-17.8,17.9-17.9
			C96,164.3,104.2,172.7,104.1,182.7z"/>
	</g>
</g>
</svg>
