<?xml version="1.0" encoding="utf-8"?>
<!-- Generator: Adobe Illustrator 19.0.0, SVG Export Plug-In . SVG Version: 6.00 Build 0)  -->
<svg version="1.1" id="Слой_1" xmlns="http://www.w3.org/2000/svg" xmlns:xlink="http://www.w3.org/1999/xlink" x="0px" y="0px"
	 viewBox="0 0 28 28" style="enable-background:new 0 0 28 28;" xml:space="preserve">
<style type="text/css">
	.st0{fill:#E47E29;}
	.st1{fill:none;stroke:#E47E29;stroke-width:2;stroke-linecap:round;stroke-linejoin:round;stroke-miterlimit:10;}
</style>
<g id="XMLID_3_">
	<path id="XMLID_7_" class="st0" d="M15.7,17.7c0.6,0.6,1.1,1.1,1.6,1.6c0.2,0.2,0.5,0.5,0.7,0.8c0.3,0.4,0.4,0.8,0.3,1.3
		c-0.2,0.5-0.5,0.8-1,0.8c-0.4,0.1-0.8-0.1-1.1-0.4c-0.7-0.7-1.5-1.5-2.2-2.2c0,0-0.1-0.1-0.1-0.1c0,0,0,0.1-0.1,0.1
		c-0.7,0.7-1.5,1.5-2.2,2.2c-0.4,0.4-1.1,0.5-1.6,0.2c-0.7-0.4-0.8-1.4-0.3-1.9c0.8-0.8,1.5-1.5,2.3-2.3c0,0,0,0,0.1-0.1
		c-0.2-0.1-0.3-0.1-0.5-0.1c-0.7-0.2-1.3-0.5-2-0.9c-0.5-0.3-0.7-0.8-0.6-1.3c0.1-0.5,0.5-0.9,1.1-1c0.3,0,0.6,0,0.8,0.2
		c0.5,0.3,1.1,0.6,1.7,0.7c0.5,0.1,1,0.1,1.5,0.1c0.9-0.1,1.7-0.3,2.5-0.8c0.8-0.5,1.7,0,1.9,0.8c0.1,0.5-0.1,1-0.6,1.3
		C17.4,17.2,16.7,17.5,15.7,17.7C15.8,17.7,15.8,17.7,15.7,17.7z"/>
	<path id="XMLID_4_" class="st0" d="M14,5.8c2.3,0,4.3,1.9,4.3,4.3c0,2.4-2,4.3-4.3,4.3c-2.4,0-4.3-1.9-4.3-4.3
		C9.7,7.5,11.8,5.7,14,5.8z M14,8.3c-0.9,0-1.7,0.7-1.7,1.7c0,1,0.8,1.7,1.7,1.7c0.9,0,1.7-0.7,1.7-1.7C15.7,9,14.9,8.3,14,8.3z"/>
</g>
<path id="XMLID_9_" class="st1" d="M27,14c0,3.3-1.3,6.7-3.8,9.2c-5.1,5.1-13.3,5.1-18.4,0s-5.1-13.3,0-18.4s13.3-5.1,18.4,0"/>
</svg>
