<?xml version="1.0" encoding="utf-8"?>
<!-- Generator: Adobe Illustrator 19.0.0, SVG Export Plug-In . SVG Version: 6.00 Build 0)  -->
<svg version="1.1" id="Слой_1" xmlns="http://www.w3.org/2000/svg" xmlns:xlink="http://www.w3.org/1999/xlink" x="0px" y="0px"
	 viewBox="470.2 270.3 19.5 19.5" style="enable-background:new 470.2 270.3 19.5 19.5;" xml:space="preserve">
<style type="text/css">
	.st0{stroke:#000000;stroke-width:0.5;stroke-linecap:round;stroke-linejoin:round;stroke-miterlimit:10;}
</style>
<g>
	<path class="st0" d="M480,270.5c-0.2,0-0.3,0.1-0.3,0.3v4.2c0,0.2,0.1,0.3,0.3,0.3s0.3-0.1,0.3-0.3v-3.9c4.7,0.2,8.5,4.1,8.5,8.9
		c0,4.9-4,8.9-8.9,8.9s-8.9-4-8.9-8.9c0-2.4,0.9-4.6,2.6-6.3c0.1-0.1,0.1-0.3,0-0.4s-0.3-0.1-0.4,0c-1.8,1.8-2.8,4.2-2.8,6.7
		c0,5.2,4.3,9.5,9.5,9.5s9.5-4.3,9.5-9.5C489.5,274.8,485.2,270.5,480,270.5L480,270.5z"/>
	<path class="st0" d="M479.5,281.1c0.2,0.3,0.5,0.4,0.8,0.5h0.1c0.3,0,0.6-0.1,0.8-0.3c0.2-0.2,0.4-0.6,0.3-0.9
		c0-0.3-0.2-0.6-0.5-0.8l-4.1-3c-0.1-0.1-0.3-0.1-0.4,0s-0.1,0.3,0,0.4L479.5,281.1z"/>
</g>
</svg>
