<?xml version="1.0" encoding="utf-8"?>
<!-- Generator: Adobe Illustrator 21.0.0, SVG Export Plug-In . SVG Version: 6.00 Build 0)  -->
<svg version="1.1" id="Слой_1" xmlns="http://www.w3.org/2000/svg" xmlns:xlink="http://www.w3.org/1999/xlink" x="0px" y="0px"
	 viewBox="0 0 327.4 286.4" style="enable-background:new 0 0 327.4 286.4;" xml:space="preserve">
<path d="M148.3,186.8c1.7,2.6,1.7,5.9,0,8.5l-8.8,13.9c-1.5,2.4-4.1,3.7-6.8,3.7c-1.5,0-2.9-0.4-4.3-1.2c-3.7-2.4-4.8-7.3-2.5-11
	l6.1-9.6l-13.6-21.5c-2.4-3.7-1.2-8.7,2.5-11c3.7-2.4,8.7-1.3,11,2.5L148.3,186.8z M260,92.2c-9.8-13.1-10.4-33.1-0.6-50
	c11-19.2,32.1-28.9,50-23.1c1.1,0.3,2.1,0.9,2.9,1.7c14,12.6,16.1,35.7,5.1,54.9c-9.7,16.9-27.2,26.5-43.5,24.5l-5.6,9.8
	c-1.5,2.6-4.2,4-6.9,4c-1.4,0-2.7-0.3-4-1.1c-3.8-2.2-5.1-7.1-2.9-10.9L260,92.2z M269.4,75.7l12.3-21.4c1.5-2.6,4.2-4,6.9-4
	c1.4,0,2.7,0.3,4,1.1c3.8,2.2,5.1,7.1,2.9,10.9l-12.3,21.4c7.7-1.9,15.4-7.7,20.2-16.1c6.8-11.8,6.4-26-0.7-33.8
	c-10.3-2.2-22.8,4.5-29.6,16.3C268.4,58.6,267.2,68.1,269.4,75.7L269.4,75.7z M177.9,87.5c-11-19.2-8.9-42.2,5.1-54.9
	c0.8-0.8,1.8-1.3,2.9-1.7c17.9-5.8,39,4,50,23.1c9.7,16.9,9.2,36.8-0.6,50l5.6,9.8c2.2,3.8,0.9,8.7-2.9,10.9c-1.3,0.7-2.6,1.1-4,1.1
	c-2.8,0-5.5-1.4-6.9-4l-5.6-9.8C205.1,113.9,187.6,104.4,177.9,87.5L177.9,87.5z M191.7,79.5c4.8,8.4,12.5,14.2,20.2,16.1
	l-12.3-21.4c-2.2-3.8-0.9-8.7,2.9-10.9c3.8-2.2,8.7-0.9,10.9,2.9l12.3,21.4c2.3-7.6,1-17.2-3.8-25.6c-6.8-11.8-19.2-18.6-29.6-16.3
	C185.3,53.5,184.9,67.7,191.7,79.5L191.7,79.5z M327.4,233.2c0,4.4-3.6,8-8,8h-25.6c-0.1,0-0.2,0-0.3,0H258l-25,41.3
	c-1.4,2.4-4,3.9-6.8,3.9h-125c-2.8,0-5.4-1.5-6.8-3.9l-25-41.3H8c-4.4,0-8-3.6-8-8s3.6-8,8-8h26.7c-3-4.3-5.7-8.8-7.9-13.5
	c-0.1-0.3-0.3-0.5-0.4-0.8c-2.7-5.9-4.8-12-6.1-18.2c-0.2-1.1-0.2-2.3,0-3.4c10.2-47.4,59.7-81.7,117.9-81.7
	c39.7,0,76.4,16.2,98.6,42.9c14.6-17.6,35.6-30.8,60.3-37.7c2.7-0.8,5.6,0,7.7,1.9c2,1.9,2.9,4.8,2.3,7.6
	c-5,21.7-8.5,44.8-10.4,68.7c0.9,11.5,2.2,23,3.9,34.1h18.9C323.8,225.2,327.4,228.8,327.4,233.2L327.4,233.2z M239.3,241.2H88.1
	l17.7,29.2h116L239.3,241.2z M280.6,190.4c1.6-19.9,4.2-39.3,7.8-57.8c-19.1,7.8-34.8,20.2-45,35.7c-1.5,2.3-4,3.6-6.7,3.6
	c-2.7,0-5.2-1.4-6.7-3.6c-18-27.6-53.2-44.7-91.9-44.7c-49.9,0-92.4,28.2-101.8,67.4c0.7,3,1.7,5.9,2.8,8.8h18.1c4.4,0,8,3.6,8,8
	s-3.6,8-8,8h-9.5c2.3,3.2,4.8,6.3,7.6,9.3H221c3.4-3.6,6.4-7.5,9-11.5c1.5-2.3,4-3.6,6.7-3.6c2.7,0,5.2,1.4,6.7,3.6
	c2.6,4,5.6,7.8,9,11.5h31.8c-1.6-11-2.8-22.2-3.7-33.5C280.6,191.3,280.6,190.9,280.6,190.4L280.6,190.4z M73.2,170.8h-1.8
	c-4.4,0-8,3.6-8,8c0,4.4,3.6,8,8,8h1.8c4.4,0,8-3.6,8-8C81.2,174.3,77.6,170.8,73.2,170.8L73.2,170.8z M29.7,54.7h90.8
	c2.7,0,4.9,2.2,4.9,4.9c0,2.7-2.2,4.9-4.9,4.9H69.1c-11.5,0-20.9,9.4-20.9,20.9v12.9c0,4.4,3.6,8,8,8c4.4,0,8-3.6,8-8V85.4
	c0-2.7,2.2-4.9,4.9-4.9h51.4c11.5,0,20.9-9.4,20.9-20.9c0-11.5-9.4-20.9-20.9-20.9H29.7c-2.7,0-4.9-2.2-4.9-4.9
	c0-2.7,2.2-4.9,4.9-4.9H86c11.5,0,20.9-9.4,20.9-20.9c0-4.4-3.6-8-8-8s-8,3.6-8,8c0,2.7-2.2,4.9-4.9,4.9H29.7
	c-11.5,0-20.9,9.4-20.9,20.9C8.8,45.3,18.1,54.7,29.7,54.7L29.7,54.7z M168.4,161.1c-2.4-3.7-7.3-4.8-11-2.5
	c-3.7,2.4-4.8,7.3-2.5,11l13.6,21.4l-6.1,9.6c-2.4,3.7-1.2,8.7,2.5,11c1.3,0.8,2.8,1.2,4.3,1.2c2.7,0,5.3-1.3,6.8-3.7l8.8-13.9
	c1.7-2.6,1.7-5.9,0-8.6L168.4,161.1z M168.4,161.1"/>
</svg>
