<?xml version="1.0" encoding="utf-8"?>
<!-- Generator: Adobe Illustrator 19.0.0, SVG Export Plug-In . SVG Version: 6.00 Build 0)  -->
<svg version="1.1" id="Слой_1" xmlns="http://www.w3.org/2000/svg" xmlns:xlink="http://www.w3.org/1999/xlink" x="0px" y="0px"
	 viewBox="0 0 90.8 108.5" style="enable-background:new 0 0 90.8 108.5;" xml:space="preserve">
<g>
	<path d="M80.5,71c-3-4.3-4.5-9.1-4.5-14.5c0-4.9,1.4-9.4,4.2-13.5c1.5-2.2,4-4.8,7.4-7.7c-2.3-2.8-4.5-5-6.8-6.5
		c-4.1-2.8-8.7-4.2-13.9-4.2c-3.1,0-6.8,0.7-11.3,2.2c-4.3,1.5-7.4,2.2-9.3,2.2c-1.5,0-4.5-0.7-9-2c-4.6-1.3-8.4-2-11.5-2
		c-7.5,0-13.6,3.1-18.5,9.4C2.5,40.8,0,48.9,0,58.8c0,10.5,3.2,21.4,9.6,32.8c6.5,11.3,13,16.9,19.6,16.9c2.2,0,5.1-0.7,8.6-2.2
		c3.5-1.4,6.6-2.2,9.3-2.2c2.8,0,6.1,0.7,9.8,2.1c4,1.4,7,2.1,9.1,2.1c5.6,0,11.1-4.3,16.8-12.8c3.6-5.4,6.3-10.9,8-16.3
		C86.9,78,83.5,75.3,80.5,71L80.5,71z M80.5,71"/>
	<path d="M58.3,20.6c2.7-2.7,4.8-5.7,6.1-9c1.3-3.3,1.9-6.2,1.9-8.9c0-0.2,0-0.4,0-0.7c0-0.3,0-0.5,0-0.7c0-0.1-0.1-0.4-0.2-0.7
		C66,0.4,65.9,0.1,65.9,0c-7.6,1.8-13.1,5-16.3,9.6c-3.3,4.7-5,10.3-5.1,16.8c2.9-0.3,5.2-0.6,6.8-1.1C53.6,24.5,56,22.9,58.3,20.6
		L58.3,20.6z M58.3,20.6"/>
</g>
</svg>
