<?xml version="1.0" encoding="utf-8"?>
<!-- Generator: Adobe Illustrator 19.0.0, SVG Export Plug-In . SVG Version: 6.00 Build 0)  -->
<svg version="1.1" id="Слой_1" xmlns="http://www.w3.org/2000/svg" xmlns:xlink="http://www.w3.org/1999/xlink" x="0px" y="0px"
	 viewBox="0 0 52.3 50.7" style="enable-background:new 0 0 52.3 50.7;" xml:space="preserve">
<g>
	<g>
		<path d="M39,17.4c-3.1,0-5.9-1.6-8.4-3c-0.2-0.1-0.4-0.2-0.5-0.3c-4.7-2.6-7.8-3.9-11.5-0.2c-0.5,0.5-1.3,0.5-1.8,0
			c-0.5-0.5-0.5-1.3,0-1.8c5.3-5.4,10.4-2.5,14.5-0.2c0,0,0.1,0,0.1,0.1c0.1,0,0.1,0.1,0.2,0.1c0,0,0.1,0,0.1,0.1
			c5.1,2.9,8.4,4.3,12.7,0c0.5-0.5,1.3-0.5,1.8,0c0.5,0.5,0.5,1.3,0,1.8C43.8,16.6,41.3,17.4,39,17.4L39,17.4z M35.5,6.6
			c0.7,0,1.2-0.6,1.2-1.2c0-1.5,1.2-2.8,2.8-2.8c1.5,0,2.7,1.1,2.8,2.6c0,0.6,0.6,1.1,1.2,1.2c3.5,0.1,6.3,3,6.3,6.5
			c0,3.5-2.8,6.4-6.3,6.5c-0.6,0-1.1,0.5-1.2,1.2c-0.1,1.5-1.3,2.6-2.8,2.6c-1.5,0-2.8-1.2-2.8-2.8c0-0.7-0.6-1.2-1.2-1.2
			c-0.7,0-1.2,0.6-1.2,1.2c0,2.9,2.4,5.3,5.3,5.3c2.4,0,4.5-1.6,5.1-3.9c1.9-0.3,3.7-1.2,5.1-2.6c1.6-1.7,2.5-3.9,2.5-6.2
			c0-2.3-0.9-4.6-2.5-6.3c-1.4-1.4-3.2-2.4-5.1-2.6c-0.6-2.2-2.7-3.9-5.1-3.9c-2.9,0-5.3,2.4-5.3,5.3C34.3,6,34.8,6.6,35.5,6.6
			L35.5,6.6z M11.6,14.3c0.1,0,0.3,0.1,0.4,0.1c0.5,0,1-0.3,1.2-0.8c1.9-5.3,6.8-7.1,10.4-7c2.8,0.1,5.3,1.2,9.3,3.4l0,0
			c1.4,0.8,2.9,1.7,4.6,2c2.1,0.5,3.9-0.1,5.3-1.5c0.5-0.5,0.5-1.3,0-1.8c-0.5-0.5-1.3-0.5-1.8,0c-1.8,1.8-3.9,0.8-6.9-0.9l0,0
			c0,0,0,0,0,0c-3.7-2.1-6.8-3.7-10.4-3.8C19.2,4,13.2,6.1,10.9,12.7C10.6,13.3,11,14,11.6,14.3L11.6,14.3z M40.8,39.5
			c0.7,0,1.2-0.6,1.2-1.2v-2.4c0-0.7-0.6-1.2-1.2-1.2c-0.7,0-1.2,0.6-1.2,1.2v2.4C39.5,39,40.1,39.5,40.8,39.5L40.8,39.5z
			 M52.3,49.4c0,0.7-0.6,1.2-1.2,1.2H29.8c0,0,0,0,0,0H19.6c-0.7,0-1.2-0.6-1.2-1.2v-4.1c0-0.7,0.6-1.2,1.2-1.2
			c0.7,0,1.2,0.6,1.2,1.2v2.8h7.5l-3.7-28.3H9.2L5.5,48.1H13v-2.8c0-0.7,0.6-1.2,1.2-1.2c0.7,0,1.2,0.6,1.2,1.2v4.1
			c0,0.3-0.1,0.6-0.4,0.9c-0.2,0.2-0.5,0.4-0.9,0.4l-10.1,0c0,0,0,0,0,0H1.3c-0.7,0-1.2-0.6-1.2-1.2c0-0.7,0.6-1.2,1.2-1.2H3
			l3.9-29.7c0.1-0.6,0.6-1.1,1.2-1.1h17.6c0.6,0,1.1,0.5,1.2,1.1l1.6,12.3h19.7c0.7,0,1.2,0.6,1.2,1.2v16.1H51
			C51.7,48.1,52.3,48.7,52.3,49.4L52.3,49.4z M47,33.2H28.9l1.9,14.9H47L47,33.2L47,33.2z M35.1,39.5c0.7,0,1.2-0.6,1.2-1.2v-2.4
			c0-0.7-0.6-1.2-1.2-1.2s-1.2,0.6-1.2,1.2v2.4C33.8,39,34.4,39.5,35.1,39.5L35.1,39.5z M35.1,39.5"/>
		<path d="M14.3,50.7l-12.9,0c-0.7,0-1.3-0.6-1.3-1.3C0,48.6,0.6,48,1.3,48h1.6l3.9-29.6c0.1-0.7,0.7-1.2,1.3-1.2h17.6
			c0.7,0,1.2,0.5,1.3,1.2l1.6,12.3h19.6c0.7,0,1.3,0.6,1.3,1.3v16H51c0.7,0,1.3,0.6,1.3,1.3c0,0.7-0.6,1.3-1.3,1.3H29.8c0,0,0,0,0,0
			H19.6c-0.7,0-1.3-0.6-1.3-1.3v-4.1c0-0.7,0.6-1.3,1.3-1.3c0.7,0,1.3,0.6,1.3,1.3V48h7.3l-3.7-28.1H9.3L5.6,48h7.3v-2.7
			c0-0.7,0.6-1.3,1.3-1.3c0.7,0,1.3,0.6,1.3,1.3v4.1c0,0.4-0.1,0.7-0.4,0.9C14.9,50.6,14.6,50.7,14.3,50.7z M1.3,48.2
			c-0.6,0-1.1,0.5-1.1,1.1c0,0.6,0.5,1.1,1.1,1.1l12.9,0c0.3,0,0.6-0.1,0.8-0.3c0.2-0.2,0.3-0.5,0.3-0.8v-4.1c0-0.6-0.5-1.1-1.1-1.1
			c-0.6,0-1.1,0.5-1.1,1.1v2.8c0,0.1,0,0.1-0.1,0.1H5.5c0,0-0.1,0-0.1,0c0,0,0,0,0-0.1l3.7-28.3c0,0,0-0.1,0.1-0.1h15.5
			c0,0,0.1,0,0.1,0.1l3.7,28.3c0,0,0,0.1,0,0.1c0,0,0,0-0.1,0h-7.5c-0.1,0-0.1,0-0.1-0.1v-2.8c0-0.6-0.5-1.1-1.1-1.1
			c-0.6,0-1.1,0.5-1.1,1.1v4.1c0,0.6,0.5,1.1,1.1,1.1h10.1c0,0,0,0,0,0H51c0.6,0,1.1-0.5,1.1-1.1c0-0.6-0.5-1.1-1.1-1.1h-1.5
			c-0.1,0-0.1,0-0.1-0.1V32c0-0.6-0.5-1.1-1.1-1.1H28.6c0,0-0.1,0-0.1-0.1l-1.6-12.3c-0.1-0.6-0.6-1-1.1-1H8.1c-0.6,0-1.1,0.4-1.1,1
			L3.1,48.1c0,0,0,0.1-0.1,0.1H1.3z M47,48.2H30.8c0,0-0.1,0-0.1-0.1l-1.9-14.9c0,0,0-0.1,0-0.1c0,0,0,0,0.1,0H47
			c0.1,0,0.1,0,0.1,0.1L47,48.2C47.1,48.2,47.1,48.2,47,48.2C47.1,48.2,47,48.2,47,48.2z M30.9,48h16V33.3H29L30.9,48z M40.8,39.6
			c-0.7,0-1.3-0.6-1.3-1.3v-2.4c0-0.7,0.6-1.3,1.3-1.3c0.7,0,1.3,0.6,1.3,1.3v2.4C42.1,39,41.5,39.6,40.8,39.6z M40.8,34.7
			c-0.6,0-1.1,0.5-1.1,1.1v2.4c0,0.6,0.5,1.1,1.1,1.1c0.6,0,1.1-0.5,1.1-1.1v-2.4C41.9,35.2,41.4,34.7,40.8,34.7z M35.1,39.6
			c-0.7,0-1.3-0.6-1.3-1.3v-2.4c0-0.7,0.6-1.3,1.3-1.3s1.3,0.6,1.3,1.3v2.4C36.4,39,35.8,39.6,35.1,39.6z M35.1,34.7
			c-0.6,0-1.1,0.5-1.1,1.1v2.4c0,0.6,0.5,1.1,1.1,1.1c0.6,0,1.1-0.5,1.1-1.1v-2.4C36.2,35.2,35.7,34.7,35.1,34.7z M39.5,25.7
			c-3,0-5.4-2.4-5.4-5.4c0-0.7,0.6-1.3,1.3-1.3c0.7,0,1.3,0.6,1.3,1.3c0,1.5,1.2,2.7,2.7,2.7c1.4,0,2.6-1.1,2.7-2.5
			c0-0.7,0.6-1.2,1.3-1.2c3.5-0.1,6.2-3,6.2-6.4c0-3.5-2.7-6.3-6.2-6.4c-0.7,0-1.2-0.6-1.3-1.2c-0.1-1.4-1.3-2.5-2.7-2.5
			c-1.5,0-2.7,1.2-2.7,2.7c0,0.7-0.6,1.3-1.3,1.3c-0.7,0-1.3-0.6-1.3-1.3c0-3,2.4-5.4,5.4-5.4c2.4,0,4.5,1.6,5.1,3.9
			c2,0.3,3.7,1.2,5.1,2.7c1.6,1.7,2.6,3.9,2.6,6.3c0,2.4-0.9,4.6-2.6,6.3c-1.4,1.4-3.2,2.4-5.1,2.7C44,24.1,41.9,25.7,39.5,25.7z
			 M35.5,19.2c-0.6,0-1.1,0.5-1.1,1.1c0,2.8,2.3,5.2,5.2,5.2c2.3,0,4.4-1.6,5-3.8c0,0,0-0.1,0.1-0.1c1.9-0.3,3.7-1.2,5.1-2.6
			c1.6-1.7,2.5-3.9,2.5-6.2c0-2.3-0.9-4.5-2.5-6.2c-1.4-1.4-3.1-2.3-5.1-2.6c0,0-0.1,0-0.1-0.1c-0.6-2.2-2.7-3.8-5-3.8
			c-2.8,0-5.2,2.3-5.2,5.2c0,0.6,0.5,1.1,1.1,1.1c0.6,0,1.1-0.5,1.1-1.1c0-1.6,1.3-2.9,2.9-2.9c1.5,0,2.8,1.2,2.9,2.7
			c0,0.6,0.5,1,1.1,1.1c3.6,0.1,6.4,3,6.4,6.6c0,3.6-2.8,6.5-6.4,6.6c-0.6,0-1.1,0.5-1.1,1.1c-0.1,1.5-1.4,2.7-2.9,2.7
			c-1.6,0-2.9-1.3-2.9-2.9C36.7,19.7,36.1,19.2,35.5,19.2z M39,17.5c-3.1,0-5.9-1.6-8.4-3c-0.2-0.1-0.4-0.2-0.5-0.3
			c-4.6-2.6-7.7-3.9-11.3-0.2c-0.2,0.3-0.6,0.4-0.9,0.4c-0.4,0-0.7-0.1-1-0.4c-0.5-0.5-0.5-1.4,0-1.9c5.4-5.5,10.5-2.6,14.6-0.3
			c0,0,0.1,0,0.1,0.1c0.1,0,0.1,0.1,0.2,0.1c0,0,0.1,0,0.1,0.1c5,2.8,8.4,4.2,12.6,0c0.5-0.5,1.4-0.5,1.9,0c0.3,0.3,0.4,0.6,0.4,0.9
			c0,0.4-0.1,0.7-0.4,0.9C44,16.4,41.7,17.5,39,17.5z M23.4,11.6c2,0,4.1,1.1,6.7,2.5c0.2,0.1,0.3,0.2,0.5,0.3c2.5,1.4,5.3,3,8.3,3
			c2.6,0,4.9-1.1,7.2-3.4c0.2-0.2,0.3-0.5,0.3-0.8c0-0.3-0.1-0.6-0.3-0.8c-0.4-0.4-1.2-0.4-1.6,0c-4.3,4.3-7.7,2.9-12.8,0
			c0,0-0.1,0-0.1-0.1c-0.1,0-0.2-0.1-0.2-0.1c0,0-0.1,0-0.1-0.1C27.3,9.8,22.2,7,17,12.3c-0.4,0.5-0.4,1.2,0,1.6
			c0.2,0.2,0.5,0.3,0.8,0.3c0.3,0,0.6-0.1,0.8-0.3C20.3,12.2,21.8,11.6,23.4,11.6z M12,14.4c-0.2,0-0.3,0-0.4-0.1h0
			c-0.7-0.2-1.1-1-0.8-1.7c2.3-6.6,8.4-8.8,12.8-8.7c3.7,0.1,6.8,1.7,10.5,3.8l0,0c3,1.7,5,2.7,6.8,0.9c0.3-0.3,0.6-0.4,0.9-0.4
			c0,0,0,0,0,0c0.4,0,0.7,0.1,0.9,0.4c0.3,0.3,0.4,0.6,0.4,0.9c0,0.4-0.1,0.7-0.4,0.9c-1.5,1.5-3.3,2-5.4,1.6
			c-1.6-0.4-3.2-1.3-4.6-2.1c-4-2.2-6.5-3.4-9.2-3.4c-3.6-0.1-8.4,1.7-10.3,6.9C13.1,14.1,12.6,14.4,12,14.4z M11.7,14.2
			c0.1,0,0.3,0.1,0.4,0.1c0.5,0,0.9-0.3,1.1-0.8c1.9-5.3,6.8-7.1,10.4-7c2.8,0.1,5.3,1.2,9.3,3.5c0,0,0,0,0,0c1.4,0.8,2.9,1.7,4.5,2
			c2,0.4,3.8-0.1,5.2-1.5c0.2-0.2,0.3-0.5,0.3-0.8c0-0.3-0.1-0.6-0.3-0.8c-0.2-0.2-0.5-0.3-0.8-0.3c-0.3,0-0.6,0.1-0.8,0.3
			c-1.8,1.9-4,0.9-7-0.9l0,0c-3.7-2.1-6.8-3.7-10.4-3.8C19.2,4.1,13.3,6.2,11,12.7C10.8,13.3,11.1,14,11.7,14.2L11.7,14.2z"/>
	</g>
</g>
</svg>
