<?xml version="1.0" encoding="utf-8"?>
<!-- Generator: Adobe Illustrator 19.0.0, SVG Export Plug-In . SVG Version: 6.00 Build 0)  -->
<svg version="1.1" id="Слой_1" xmlns="http://www.w3.org/2000/svg" xmlns:xlink="http://www.w3.org/1999/xlink" x="0px" y="0px"
	 viewBox="0 0 28 28" style="enable-background:new 0 0 28 28;" xml:space="preserve">
<style type="text/css">
	.st0{fill:#E47E29;}
	.st1{fill:none;stroke:#E47E29;stroke-width:2;stroke-linecap:round;stroke-linejoin:round;stroke-miterlimit:10;}
</style>
<path id="XMLID_8_" class="st0" d="M6.6,9.1c0.4,0,0.7,0,1.1,0c0.5,0,0.7,0.2,0.9,0.6c0.3,0.7,0.6,1.4,1,2.1
	c0.3,0.6,0.7,1.2,1.2,1.7c0.1,0.1,0.3,0.3,0.4,0.4c0.2,0.1,0.4,0,0.5-0.2c0.1-0.3,0.2-0.6,0.2-0.9c0-0.5,0-1.1,0-1.6
	c0-0.3,0-0.6-0.1-0.9c-0.1-0.5-0.4-0.7-0.9-0.8c-0.2-0.1-0.3-0.1-0.1-0.3c0.3-0.3,0.6-0.4,1-0.5c0.6-0.1,1.3-0.1,1.9-0.1
	c0.4,0,0.8,0.1,1.1,0.1c0.4,0.1,0.6,0.3,0.6,0.7c0,0.6,0,1.1,0,1.7c0,0.7,0,1.3,0,2c0,0.2,0.1,0.3,0.2,0.5c0.1,0.2,0.3,0.2,0.4,0.1
	c0.2-0.2,0.4-0.3,0.6-0.5c0.8-1,1.4-2.1,1.9-3.3c0.1-0.1,0.1-0.3,0.2-0.4c0.1-0.3,0.3-0.4,0.6-0.4c0.9,0,1.7,0,2.6,0
	c0.3,0,0.5,0,0.8,0c0.3,0,0.5,0.2,0.5,0.5c0,0.1,0,0.2-0.1,0.3c-0.2,0.5-0.4,0.9-0.7,1.3c-0.6,0.8-1.2,1.6-1.7,2.3
	c-0.2,0.2-0.3,0.4-0.4,0.6c-0.2,0.3-0.2,0.7,0.1,0.9c0.3,0.3,0.6,0.6,1,0.9c0.6,0.5,1.1,1.1,1.6,1.8c0.1,0.2,0.2,0.4,0.3,0.7
	c0.1,0.2,0,0.4-0.2,0.5c-0.2,0.2-0.4,0.2-0.6,0.2c-0.5,0-1.1,0-1.6,0c-0.3,0-0.6,0-0.9,0c-0.7,0-1.2-0.2-1.7-0.7
	c-0.3-0.3-0.6-0.7-0.9-1c-0.2-0.2-0.4-0.5-0.7-0.7c-0.4-0.3-0.7-0.2-0.9,0.2c-0.2,0.3-0.2,0.7-0.3,1.1c0,0.1,0,0.3,0,0.4
	c0,0.4-0.3,0.6-0.6,0.6c-0.5,0-1.1,0-1.6,0c-0.9-0.1-1.7-0.3-2.4-0.7c-1-0.5-1.8-1.3-2.5-2.1c-1-1.2-1.8-2.6-2.5-4
	c-0.4-0.8-0.8-1.7-1.2-2.5c0-0.1-0.1-0.2-0.1-0.3c0-0.2,0-0.4,0.3-0.4c0.2,0,0.4-0.1,0.6-0.1c0.2,0,0.4,0,0.6,0
	C6.2,9.1,6.4,9.1,6.6,9.1C6.6,9.1,6.6,9.1,6.6,9.1z"/>
<path id="XMLID_11_" class="st1" d="M27,14c0,3.3-1.3,6.7-3.8,9.2c-5.1,5.1-13.3,5.1-18.4,0s-5.1-13.3,0-18.4s13.3-5.1,18.4,0"/>
</svg>
