<?xml version="1.0" encoding="utf-8"?>
<!-- Generator: Adobe Illustrator 19.0.0, SVG Export Plug-In . SVG Version: 6.00 Build 0)  -->
<svg version="1.1" id="Слой_1" xmlns="http://www.w3.org/2000/svg" xmlns:xlink="http://www.w3.org/1999/xlink" x="0px" y="0px"
	 viewBox="0 0 381.1 381.1" style="enable-background:new 0 0 381.1 381.1;" xml:space="preserve">
<path d="M380.7,178c-0.1-1-0.1-1.9-0.2-2.9c-0.1-1.4-0.2-2.7-0.4-4.1c0-0.4-0.1-0.9-0.1-1.3l-0.1-0.5c-0.1-1.3-0.3-2.5-0.5-3.8
	c-0.1-0.5-0.1-1-0.2-1.5c-0.2-1.6-0.5-3.2-0.7-4.8l-0.1-0.4c-4.2-25.2-13.3-48.9-27-70.4l-0.5-0.8c-0.7-1.1-1.5-2.2-2.2-3.3
	c-0.5-0.8-1.1-1.6-1.7-2.4c-0.3-0.5-0.7-1-1-1.4c-6.3-8.8-13.2-17.1-20.8-24.6C290.2,20.8,243.7,1,194.2,0L193,0c-0.8,0-1.7,0-2.5,0
	c-0.3,0-0.5,0-0.8,0l-0.7,0c-0.7,0-1.3,0-2,0c-1.1,0-2.1,0-3.2,0.1l-0.4,0c-0.7,0-1.3,0-2,0.1c-1,0-1.9,0.1-2.9,0.2l-0.2,0
	c-1.3,0.1-2.6,0.2-3.8,0.3c-1.1,0.1-2.2,0.2-3.3,0.3c-0.6,0.1-1.2,0.1-1.8,0.2l-0.4,0.1c-1.1,0.1-2.2,0.2-3.2,0.4
	c-0.7,0.1-1.3,0.2-2,0.3c-1.3,0.2-2.6,0.4-4,0.6l-1.2,0.2c-21.1,3.5-41.2,10.6-59.9,20.9l-0.5,0.3c-1.5,0.8-3,1.7-4.4,2.5l-0.6,0.4
	c-1.5,0.9-3,1.8-4.4,2.7c-0.7,0.4-1.3,0.8-2,1.3l-1.1,0.7c-0.4,0.2-0.7,0.5-1.1,0.7c-1.1,0.7-2.2,1.5-3.3,2.3l-0.5,0.3
	c-9,6.3-17.4,13.4-25.1,21.1c-17.8,17.8-31.7,38.6-41.2,61.5l-0.1,0.2c-0.1,0.3-0.2,0.5-0.3,0.7l-0.2,0.5
	c-6.9,16.9-11.3,34.7-13,52.9C0.3,177.9,0,184.2,0,190.5c0,5.3,0.2,10.7,0.7,16.2C4.5,252,23.5,293,55.8,325.3
	c36,36,83.8,55.8,134.7,55.8c50.8,0,98.7-19.8,134.7-55.8l0,0c35.1-35.1,54.9-81.6,55.8-131.1l0-0.6l0-0.6c0-0.8,0-1.7,0-2.5
	c0-0.3,0-0.5,0-0.8l0-0.7c0-0.7,0-1.3,0-2c0-1.1,0-2.2-0.1-3.3l0-0.3c0-0.7,0-1.3-0.1-2C380.8,180.3,380.7,179.2,380.7,178z
	 M353.6,225c0,0.2,0,0.2-0.1,0.3c-6.7,31.6-22.3,60.3-45.1,83.1c-32.5,32.5-75.2,48.7-117.8,48.7s-85.4-16.2-117.8-48.7
	c-65-65-65-170.7,0-235.7l0.4-0.4c1-1,2-2,3-2.9c0.5-0.4,0.9-0.9,1.4-1.3l0.2-0.2c0.6-0.5,1.2-1.1,1.8-1.6c0.7-0.6,1.3-1.2,2-1.8
	c0.4-0.3,0.8-0.7,1.2-1l0.1-0.1c0.8-0.7,1.6-1.4,2.4-2l0.3-0.2c31.8-25.8,72-38.9,113.1-36.9c41.5,2,80.4,19.2,109.7,48.5
	C348.3,112.7,365.2,169.6,353.6,225z"/>
<path d="M190.5,73.7c-6.6,0-11.9,5.3-11.9,11.9v100l-50.3,50.2c-4.6,4.6-4.6,12.2,0,16.9c2.3,2.3,5.2,3.5,8.4,3.5
	c3.1,0,6.1-1.2,8.4-3.5l53.8-53.7c0.1-0.1,0.3-0.3,0.4-0.4c0.1-0.2,0.3-0.3,0.4-0.5l0.1-0.2c0.1-0.2,0.2-0.3,0.4-0.5
	c0,0,0.1-0.1,0.1-0.1l0.2-0.2c0.1-0.1,0.1-0.2,0.2-0.3c0,0,0.1-0.1,0.1-0.2l0.1-0.1c0.1-0.3,0.3-0.6,0.3-0.7
	c0.1-0.3,0.2-0.5,0.3-0.6c0-0.1,0.1-0.2,0.1-0.3c0-0.1,0-0.1,0.1-0.2l0.2-0.7c0-0.2,0.1-0.4,0.2-0.6c0,0,0-0.1,0-0.1v-0.3l0.1-0.2
	c0,0,0-0.1,0-0.1c0-0.3,0-0.6,0.1-0.8l0-0.3c0-0.3,0-0.6,0-1V85.6c0-3.2-1.2-6.1-3.4-8.4C196.6,75,193.6,73.7,190.5,73.7z"/>
</svg>
