<?xml version="1.0" encoding="utf-8"?>
<!-- Generator: Adobe Illustrator 19.0.0, SVG Export Plug-In . SVG Version: 6.00 Build 0)  -->
<svg version="1.1" id="Слой_1" xmlns="http://www.w3.org/2000/svg" xmlns:xlink="http://www.w3.org/1999/xlink" x="0px" y="0px"
	 viewBox="0 0 58.4 58.4" style="enable-background:new 0 0 58.4 58.4;" xml:space="preserve">
<g>
	<path d="M22.9,29c-3.3,0-6.1-2.7-6.1-6.1s2.7-6.1,6.1-6.1c3.3,0,6.1,2.7,6.1,6.1S26.3,29,22.9,29z M22.9,19.6
		c-1.8,0-3.3,1.5-3.3,3.3s1.5,3.3,3.3,3.3c1.8,0,3.3-1.5,3.3-3.3S24.7,19.6,22.9,19.6z"/>
	<path d="M35.5,41.6c-3.3,0-6.1-2.7-6.1-6.1c0-3.3,2.7-6.1,6.1-6.1c3.3,0,6.1,2.7,6.1,6.1C41.6,38.8,38.8,41.6,35.5,41.6z
		 M35.5,32.2c-1.8,0-3.3,1.5-3.3,3.3c0,1.8,1.5,3.3,3.3,3.3s3.3-1.5,3.3-3.3C38.8,33.7,37.3,32.2,35.5,32.2z"/>
	<path d="M23.2,36.5c-0.4,0-0.7-0.1-1-0.4c-0.5-0.5-0.5-1.4,0-2l11.9-11.9c0.5-0.5,1.4-0.5,2,0c0.5,0.5,0.5,1.4,0,2L24.2,36.1
		C23.9,36.4,23.6,36.5,23.2,36.5z"/>
	<path d="M35.9,58.4c-1.3,0-2.6-0.5-3.8-1c-1-0.4-2-0.9-2.9-0.9c-0.8,0-1.9,0.4-2.9,0.9c-1.5,0.6-3.2,1.3-4.9,0.9
		c-1.8-0.5-2.9-2-3.9-3.3c-0.7-0.9-1.3-1.7-1.9-2.1c-0.7-0.4-1.7-0.5-2.8-0.7c-1.6-0.2-3.5-0.5-4.8-1.7c-1.3-1.3-1.5-3.1-1.7-4.8
		c-0.1-1.1-0.3-2.2-0.7-2.8c-0.4-0.7-1.2-1.3-2.1-1.9c-1.3-1-2.8-2.2-3.3-3.9c-0.5-1.7,0.3-3.4,0.9-4.9c0.4-1,0.9-2,0.9-2.9
		c0-0.8-0.4-1.9-0.9-2.9c-0.6-1.5-1.3-3.2-0.9-4.9c0.5-1.8,2-2.9,3.3-3.9c0.9-0.7,1.7-1.3,2.1-1.9c0.4-0.7,0.5-1.7,0.7-2.8
		c0.2-1.6,0.5-3.5,1.7-4.8c1.3-1.3,3.1-1.5,4.8-1.7c1.1-0.1,2.2-0.3,2.8-0.7c0.7-0.4,1.3-1.2,1.9-2.1c1-1.3,2.2-2.8,3.9-3.3
		c1.7-0.5,3.4,0.3,4.9,0.9c1,0.4,2,0.9,2.9,0.9S31,1.5,32.1,1c1.5-0.6,3.2-1.3,4.9-0.9c1.8,0.5,2.9,2,3.9,3.3
		c0.7,0.9,1.3,1.7,1.9,2.1c0.7,0.4,1.7,0.5,2.8,0.7c1.6,0.2,3.5,0.5,4.8,1.7c1.3,1.3,1.5,3.1,1.7,4.8c0.1,1.1,0.3,2.2,0.7,2.8
		c0.4,0.7,1.2,1.3,2.1,1.9c1.3,1,2.8,2.2,3.3,3.9c0.5,1.7-0.3,3.4-0.9,4.9c-0.4,1-0.9,2-0.9,2.9c0,0.8,0.4,1.9,0.9,2.9
		c0.6,1.5,1.3,3.2,0.9,4.9c-0.5,1.8-2,2.9-3.3,3.9c-0.9,0.7-1.7,1.3-2.1,1.9c-0.4,0.7-0.5,1.7-0.7,2.8c-0.2,1.6-0.5,3.5-1.7,4.8
		c-1.3,1.3-3.1,1.5-4.8,1.7c-1.1,0.1-2.2,0.3-2.8,0.7c-0.7,0.4-1.3,1.2-1.9,2.1c-1,1.3-2.2,2.8-3.9,3.3
		C36.6,58.3,36.2,58.4,35.9,58.4z M29.2,53.7c1.4,0,2.7,0.5,3.9,1.1c1.2,0.5,2.4,1,3.1,0.8c0.8-0.2,1.6-1.2,2.4-2.3
		c0.8-1.1,1.6-2.1,2.8-2.8c1.2-0.7,2.5-0.8,3.9-1c1.3-0.2,2.6-0.3,3.2-0.9c0.6-0.6,0.8-1.9,0.9-3.2c0.2-1.3,0.3-2.7,1-3.9
		c0.7-1.1,1.8-2,2.8-2.8c1.1-0.8,2.1-1.6,2.3-2.4c0.2-0.8-0.3-2-0.8-3.1c-0.5-1.3-1.1-2.6-1.1-3.9c0-1.4,0.5-2.7,1.1-3.9
		c0.5-1.2,1-2.4,0.8-3.1c-0.2-0.8-1.2-1.6-2.3-2.4c-1.1-0.8-2.1-1.6-2.8-2.8c-0.7-1.2-0.8-2.5-1-3.9c-0.2-1.3-0.3-2.6-0.9-3.2
		c-0.6-0.6-1.9-0.8-3.2-0.9c-1.3-0.2-2.7-0.3-3.9-1c-1.1-0.7-2-1.8-2.8-2.8c-0.8-1.1-1.6-2.1-2.4-2.3c-0.8-0.2-2,0.3-3.1,0.8
		c-1.3,0.5-2.6,1.1-3.9,1.1c-1.4,0-2.7-0.5-3.9-1.1c-1.2-0.5-2.4-1-3.1-0.8c-0.8,0.2-1.6,1.2-2.4,2.3c-0.8,1.1-1.6,2.1-2.8,2.8
		c-1.2,0.7-2.5,0.8-3.9,1c-1.3,0.2-2.6,0.3-3.2,0.9S9.1,11.8,9,13.1c-0.2,1.3-0.3,2.7-1,3.9c-0.7,1.1-1.8,2-2.8,2.8
		c-1.1,0.8-2.1,1.6-2.3,2.4c-0.2,0.8,0.3,2,0.8,3.1c0.5,1.3,1.1,2.6,1.1,3.9c0,1.4-0.5,2.7-1.1,3.9c-0.5,1.2-1,2.4-0.8,3.1
		c0.2,0.8,1.2,1.6,2.3,2.4c1.1,0.8,2.1,1.6,2.8,2.8c0.7,1.2,0.8,2.5,1,3.9c0.2,1.3,0.3,2.6,0.9,3.2c0.6,0.6,1.9,0.8,3.2,0.9
		c1.3,0.2,2.7,0.3,3.9,1c1.1,0.7,2,1.8,2.8,2.8c0.8,1.1,1.6,2.1,2.4,2.3c0.8,0.2,2-0.3,3.1-0.8C26.5,54.3,27.8,53.7,29.2,53.7z"/>
	<path d="M29.2,50.9c-11.9,0-21.7-9.7-21.7-21.7S17.2,7.5,29.2,7.5s21.7,9.7,21.7,21.7S41.1,50.9,29.2,50.9z M29.2,10.3
		c-10.4,0-18.9,8.5-18.9,18.9s8.5,18.9,18.9,18.9c10.4,0,18.9-8.5,18.9-18.9S39.6,10.3,29.2,10.3z"/>
</g>
</svg>
