<?xml version="1.0" encoding="utf-8"?>
<!-- Generator: Adobe Illustrator 21.0.0, SVG Export Plug-In . SVG Version: 6.00 Build 0)  -->
<svg version="1.1" id="Слой_1" xmlns="http://www.w3.org/2000/svg" xmlns:xlink="http://www.w3.org/1999/xlink" x="0px" y="0px"
	 viewBox="0 0 344.2 393.6" style="enable-background:new 0 0 344.2 393.6;" xml:space="preserve">
<g>
	<path d="M281.2,81.7c-4.2-21-15-40.3-31.1-55C231.3,9.4,206.9,0,181.4,0c-19.7,0-38.8,5.6-55.3,16.2c-12.6,8.2-23.3,19-31.2,31.8
		c-2.5-0.3-5-0.5-7.6-0.5c-32,0-58.1,26.1-58.1,58.1c0,3,0.2,5.9,0.6,8.8C11.2,129.2,0,151.9,0,176c0,20.2,7.6,40,21.3,55.5
		c14.2,16,33,25.4,53,26.6h37.4c7.9,0,14.4-6.5,14.4-14.4c0-7.9-6.5-14.4-14.4-14.4H75.5c-25.4-1.7-46.7-26-46.7-53.4
		c0-17.6,9.4-34.1,24.7-43c6.1-3.5,8.6-10.9,6.2-17.4c-1.1-3.1-1.8-6.5-1.8-10c0-16.2,13.1-29.3,29.3-29.3c3.4,0,6.8,0.6,9.9,1.8
		c7,2.6,14.9-0.6,18-7.4c12.1-25.4,38-41.8,66.2-41.8c37.8,0,69.1,28.3,72.7,65.9c0.6,6.5,5.5,11.8,11.9,12.8
		c28.2,4.8,49.4,30.9,49.4,60.6c0,31.4-24.6,58.8-55,61.2h-88.2c-7.9,0-14.4,6.5-14.4,14.4v100.7l-22.1-22.1
		c-5.6-5.6-14.7-5.6-20.4,0c-5.6,5.6-5.6,14.7,0,20.4l46.6,46.6c2.7,2.7,6.4,4.2,10.2,4.2c3.8,0,7.5-1.5,10.2-4.2l46.6-46.6
		c5.6-5.6,5.6-14.7,0-20.4c-5.6-5.6-14.7-5.6-20.4,0l-21.9,22.1v-86.3h75.4c22.2-1.6,43-11.8,58.5-28.9
		c15.3-16.9,23.8-38.6,23.8-61.1C344.2,128.2,317.8,92.9,281.2,81.7L281.2,81.7z M281.2,81.7"/>
</g>
</svg>
