<?xml version="1.0" encoding="utf-8"?>
<!-- Generator: Adobe Illustrator 19.0.0, SVG Export Plug-In . SVG Version: 6.00 Build 0)  -->
<svg version="1.1" id="Слой_1" xmlns="http://www.w3.org/2000/svg" xmlns:xlink="http://www.w3.org/1999/xlink" x="0px" y="0px"
	 viewBox="0 0 367.5 391.7" style="enable-background:new 0 0 367.5 391.7;" xml:space="preserve">
<g>
	<path d="M353.1,60.5h-82.4V41.2c0-22.7-18.5-41.2-41.2-41.2H138c-22.7,0-41.2,18.5-41.2,41.2v19.3H14.4C6.5,60.5,0,67,0,74.9
		c0,7.9,6.5,14.4,14.4,14.4h21.9v252.2c0,27.7,22.5,50.2,50.2,50.2H281c27.7,0,50.2-22.5,50.2-50.2V135.4c0-7.9-6.5-14.4-14.4-14.4
		c-7.9,0-14.4,6.5-14.4,14.4v206.1c0,11.8-9.6,21.4-21.4,21.4H86.5c-11.8,0-21.4-9.6-21.4-21.4V89.3h288c8,0,14.5-6.5,14.5-14.4
		C367.5,67,361,60.5,353.1,60.5L353.1,60.5z M242,60.5H125.6V41.2c0-6.8,5.5-12.4,12.4-12.4h91.6c6.8,0,12.4,5.5,12.4,12.4V60.5z
		 M242,60.5"/>
	<path d="M183.8,121c-7.9,0-14.4,6.5-14.4,14.4v181.4c0,7.9,6.5,14.4,14.4,14.4c7.9,0,14.4-6.5,14.4-14.4V135.4
		C198.2,127.4,191.7,121,183.8,121L183.8,121z M183.8,121"/>
	<path d="M123.3,121c-7.9,0-14.4,6.5-14.4,14.4v181.4c0,7.9,6.5,14.4,14.4,14.4c7.9,0,14.4-6.5,14.4-14.4V135.4
		C137.7,127.4,131.2,121,123.3,121L123.3,121z M123.3,121"/>
	<path d="M244.2,121c-7.9,0-14.4,6.5-14.4,14.4v181.4c0,7.9,6.5,14.4,14.4,14.4c7.9,0,14.4-6.5,14.4-14.4V135.4
		C258.6,127.4,252.2,121,244.2,121L244.2,121z M244.2,121"/>
</g>
</svg>
