<?xml version="1.0" encoding="utf-8"?>
<!-- Generator: Adobe Illustrator 19.0.0, SVG Export Plug-In . SVG Version: 6.00 Build 0)  -->
<svg version="1.1" id="Слой_1" xmlns="http://www.w3.org/2000/svg" xmlns:xlink="http://www.w3.org/1999/xlink" x="0px" y="0px"
	 viewBox="0 0 47.2 39" style="enable-background:new 0 0 47.2 39;" xml:space="preserve">
<path d="M46.6,2.5c-0.4-0.5-0.9-0.8-1.5-0.9c-0.2-0.6-0.7-1-1.2-1.3c-1-0.6-2.3-0.4-3.2,0.4c-0.6,0.6-0.9,1.5-0.8,2.3
	c0,0.3,0.1,0.8-0.3,1.2L37,7.5c0,0-0.1,0-0.1,0l-0.1,0l-0.1,0c-0.3,0-0.5,0.1-0.8,0.2c-0.6,0.2-1.1,0.6-1.5,1c0,0,0,0,0,0
	c-0.1,0.2-0.3,0.3-0.5,0.5c-0.1,0.1-0.2,0.2-0.4,0.4c-2.9-0.8-7.2-0.7-12.3,3.7c-0.1,0.1-0.2,0.2-0.3,0.3c-0.2,0.2-0.4,0.4-0.7,0.6
	c0-0.3,0-0.7-0.1-1c-0.3-2.4-1.8-4.4-4.4-5.9c-0.6-0.4-1.4-0.4-2,0c-0.6,0.4-1,1-0.9,1.8c0,0.7-0.1,1.5-0.4,2.4
	c-0.4-0.1-0.8-0.2-1.2-0.2c-5,0-8.1,3.3-8.1,8.6c0,0.5,0.1,1,0.1,1.5c0.3,1.3,0.3,2.3,0.1,3.3c-0.1,0.7-0.2,1.4-0.2,2.1
	c0,1.3,0.3,2.4,1,3.5c-0.5,0.5-0.9,1-1.2,1.7H1.5c-0.6,0-1.1,0.3-1.4,0.8c-0.3,0.5-0.2,1.1,0.1,1.6l1.8,2.5c1,1.4,2.6,2.2,4.3,2.2
	h32.7c1.7,0,3.3-0.8,4.3-2.2l1.8-2.5c0.3-0.5,0.4-1.1,0.1-1.6c-0.3-0.5-0.8-0.8-1.4-0.8h-2.2c-0.1-0.2-0.2-0.4-0.3-0.6
	c2.2-1.7,3.6-3.8,4.1-6.2c0.7-3.4-2.5-7.5-5.8-11.2c0.1-0.1,0.2-0.3,0.3-0.4c0,0,0,0,0,0l0.1-0.1c0-0.1,0.6-1.2,0.5-2.4l2.8-3.4
	C43.8,7.1,44.3,7,44.6,7c0.9,0,1.7-0.5,2.1-1.2C47.4,4.8,47.3,3.4,46.6,2.5L46.6,2.5z M38.1,13.5l-0.3,0.4l0,0
	c-1.3,2.1-2.1,4.3-2.3,6.7c-0.1,1.2-0.6,2.4-1.4,3.4c-1.1,1.3-2.6,2.1-4.3,2.2c-1.7,0.1-3.3-0.4-4.5-1.6c-2.4-2.1-2.6-5.9-0.6-8.4
	c0.9-1.1,2.1-1.8,3.5-2.1c2.2-0.5,4.2-1.4,5.8-2.7l0,0l0,0c0.4-0.3,0.7-0.6,1-0.9c0.2-0.2,0.3-0.4,0.5-0.6c0,0,0.1-0.1,0.1-0.1
	c0.3-0.3,0.7-0.6,1.1-0.6c0.2,0,0.3,0.1,0.4,0.1c0.2,0.1,0.4,0.1,0.6,0.2c0.1,0,0.1,0.1,0.2,0.1c0.1,0.1,0.2,0.1,0.3,0.2
	c0.1,0.1,0.2,0.1,0.3,0.2c0.1,0,0.1,0.1,0.1,0.1c0.1,0.1,0.2,0.2,0.2,0.3c0,0.1,0.1,0.1,0.1,0.2c0,0,0,0,0,0c0,0.1,0.1,0.2,0.1,0.2
	v0c0.1,0.7-0.1,1.5-0.2,1.7C38.6,12.8,38.3,13.2,38.1,13.5L38.1,13.5z M14.7,8.7c0.1,0,0.2-0.1,0.3,0c1.5,0.9,3.3,2.4,3.6,4.8
	c0.1,0.6,0.1,1.3-0.1,1.9l0,0.1c-0.3,1.4-1,2.9-2.2,4.5c0,0,0,0,0,0c-0.4,0.6-0.9,1.2-1.5,1.9c-0.1,0.1-0.1,0.1-0.2,0.2
	c-0.3,0.3-0.6,0.6-0.9,0.9c-0.5,0.5-1,0.9-1.5,1.2c-0.8,0.5-1.5,0.6-2.1,0.5c0,0,0,0,0,0c-0.7-0.2-1.3-1.1-1.4-2.1c0,0,0-0.1,0-0.1
	c0-0.6,0.1-1.2,0.3-1.8c0.4-1.2,1.2-2.3,2-3.4c0.1-0.1,0.1-0.2,0.2-0.3c0.2-0.3,0.4-0.6,0.6-0.8c0-0.1,0.1-0.1,0.1-0.2
	c0.1-0.2,0.3-0.4,0.4-0.6c0.1-0.2,0.2-0.4,0.3-0.6c0.1-0.1,0.1-0.2,0.2-0.3c0.3-0.6,0.6-1.1,0.8-1.7l0.3-0.6l0,0
	c0.4-1.1,0.7-2.2,0.6-3.3C14.5,8.8,14.6,8.7,14.7,8.7L14.7,8.7z M5.7,30.9c0.2-0.1,0.3-0.2,0.5-0.3c0,0,0.1,0,0.1,0
	c0.1-0.1,0.3-0.1,0.4-0.2c0.1,0,0.1,0,0.2-0.1c0.1,0,0.2-0.1,0.4-0.1c0.1,0,0.1,0,0.2,0c0.2,0,0.4,0,0.6,0c0.2,0,0.4,0,0.6,0
	c0.1,0,0.1,0,0.2,0c0.1,0,0.3,0.1,0.4,0.1c0.1,0,0.1,0,0.2,0c0.2,0.1,0.3,0.1,0.5,0.2c0,0,0,0,0,0c0.2,0.1,0.3,0.2,0.5,0.3
	c0,0,0.1,0.1,0.1,0.1c0.1,0.1,0.2,0.2,0.3,0.3c0,0,0.1,0.1,0.1,0.1c0.1,0.1,0.2,0.2,0.3,0.4c0,0,0,0,0,0.1c0,0,0,0,0,0H4.8
	C5.1,31.5,5.4,31.2,5.7,30.9L5.7,30.9z M14.5,31.7c0.1-0.1,0.2-0.3,0.3-0.4c0,0,0.1-0.1,0.1-0.1c0.1-0.1,0.2-0.2,0.3-0.3
	c0,0,0.1-0.1,0.1-0.1c0.2-0.1,0.3-0.2,0.5-0.3c0,0,0,0,0,0c0.2-0.1,0.3-0.1,0.5-0.2c0.1,0,0.1,0,0.2-0.1c0.1,0,0.3-0.1,0.4-0.1
	c0.1,0,0.1,0,0.2,0c0.2,0,0.4,0,0.6,0c0.2,0,0.4,0,0.6,0c0.1,0,0.1,0,0.2,0c0.1,0,0.3,0.1,0.4,0.1c0.1,0,0.1,0,0.2,0.1
	c0.2,0.1,0.3,0.1,0.5,0.2c0,0,0,0,0,0c0.2,0.1,0.3,0.2,0.5,0.3c0,0,0.1,0.1,0.1,0.1c0.1,0.1,0.2,0.2,0.3,0.3c0,0,0.1,0.1,0.1,0.1
	c0.1,0.1,0.2,0.2,0.3,0.4c0,0,0,0,0,0.1c0,0,0,0,0,0L14.5,31.7C14.4,31.8,14.4,31.8,14.5,31.7C14.4,31.8,14.4,31.8,14.5,31.7
	L14.5,31.7z M24.1,31.7c0.1-0.1,0.2-0.3,0.3-0.4c0,0,0.1-0.1,0.1-0.1c0.1-0.1,0.2-0.2,0.3-0.3c0,0,0.1-0.1,0.1-0.1
	c0.1-0.1,0.3-0.2,0.5-0.3c0,0,0,0,0,0c0.1-0.1,0.3-0.1,0.5-0.2c0.1,0,0.1,0,0.2-0.1c0.1,0,0.3-0.1,0.4-0.1c0.1,0,0.1,0,0.2,0
	c0.2,0,0.4,0,0.6,0c0.2,0,0.4,0,0.6,0c0.1,0,0.1,0,0.2,0c0.1,0,0.3,0.1,0.4,0.1c0.1,0,0.1,0,0.2,0.1c0.2,0.1,0.3,0.1,0.5,0.2
	c0,0,0,0,0,0c0.2,0.1,0.3,0.2,0.5,0.3c0,0,0.1,0.1,0.1,0.1c0.1,0.1,0.2,0.2,0.3,0.3c0,0,0.1,0.1,0.1,0.1c0.1,0.1,0.2,0.2,0.3,0.4
	c0,0,0,0,0,0.1c0,0,0,0,0,0L24.1,31.7C24,31.8,24,31.8,24.1,31.7C24,31.8,24,31.8,24.1,31.7L24.1,31.7z M33.7,31.7
	c0.1-0.1,0.2-0.3,0.3-0.4c0,0,0.1-0.1,0.1-0.1c0.1-0.1,0.2-0.2,0.3-0.3c0,0,0.1-0.1,0.1-0.1c0.1-0.1,0.3-0.2,0.5-0.3c0,0,0,0,0,0
	c0.2-0.1,0.3-0.1,0.5-0.2c0.1,0,0.1,0,0.2-0.1c0.1,0,0.3-0.1,0.4-0.1c0.1,0,0.1,0,0.2,0c0.2,0,0.4,0,0.6,0c0.1,0,0.3,0,0.4,0
	c0.1,0,0.2,0,0.2,0c0.1,0,0.1,0,0.2,0c0.1,0,0.2,0.1,0.3,0.1c0,0,0.1,0,0.1,0c0.1,0,0.3,0.1,0.4,0.1c0.5,0.2,1,0.6,1.4,1l0.2,0.2
	L33.7,31.7C33.6,31.8,33.6,31.8,33.7,31.7C33.6,31.8,33.6,31.8,33.7,31.7L33.7,31.7z M43.9,33.4l-1.7,2.4c-0.7,1-1.8,1.6-3,1.6H6.4
	c-1.2,0-2.3-0.6-3-1.6l-1.7-2.4H43.9z M44,24.7c-0.4,2.1-1.6,3.8-3.6,5.3c0,0-0.1-0.1-0.1-0.1c-0.2-0.1-0.4-0.3-0.5-0.4
	c-0.1-0.1-0.2-0.1-0.3-0.2c-0.1-0.1-0.2-0.1-0.3-0.2c-0.2-0.1-0.4-0.2-0.6-0.2c-0.1,0-0.2-0.1-0.2-0.1c-0.2-0.1-0.4-0.1-0.7-0.2
	c-0.1,0-0.1,0-0.2,0c-0.3,0-0.5-0.1-0.8-0.1c-0.3,0-0.5,0-0.8,0.1c-0.1,0-0.2,0-0.3,0.1c-0.2,0-0.4,0.1-0.5,0.1
	c-0.1,0-0.2,0.1-0.3,0.1c-0.2,0.1-0.3,0.1-0.5,0.2c-0.1,0-0.2,0.1-0.3,0.1c-0.2,0.1-0.3,0.2-0.4,0.3c-0.1,0.1-0.2,0.1-0.2,0.2
	c-0.2,0.1-0.3,0.3-0.5,0.4c0,0-0.1,0.1-0.1,0.1c-0.2,0.2-0.4,0.4-0.5,0.6c-0.1,0.1-0.1,0.1-0.1,0.2c-0.1,0.1-0.2,0.2-0.2,0.4
	c-0.1-0.1-0.2-0.2-0.2-0.4c0-0.1-0.1-0.1-0.1-0.2c-0.2-0.2-0.3-0.4-0.5-0.6c0,0-0.1-0.1-0.1-0.1c-0.2-0.1-0.3-0.3-0.5-0.4
	c-0.1-0.1-0.2-0.1-0.2-0.2c-0.1-0.1-0.3-0.2-0.4-0.3c-0.1,0-0.2-0.1-0.3-0.1c-0.2-0.1-0.3-0.1-0.5-0.2c-0.1,0-0.2-0.1-0.3-0.1
	c-0.2-0.1-0.3-0.1-0.5-0.1c-0.1,0-0.2,0-0.3-0.1c-0.3,0-0.5-0.1-0.8-0.1c-0.3,0-0.5,0-0.8,0.1c-0.1,0-0.2,0-0.3,0.1
	c-0.2,0-0.4,0.1-0.5,0.1c-0.1,0-0.2,0.1-0.3,0.1c-0.2,0.1-0.3,0.1-0.5,0.2c-0.1,0-0.2,0.1-0.3,0.1c-0.1,0.1-0.3,0.2-0.4,0.3
	c-0.1,0.1-0.2,0.1-0.2,0.2c-0.2,0.1-0.3,0.3-0.5,0.4c0,0-0.1,0.1-0.1,0.1c-0.2,0.2-0.4,0.4-0.5,0.6c-0.1,0.1-0.1,0.1-0.1,0.2
	c-0.1,0.1-0.2,0.2-0.2,0.4c-0.1-0.1-0.2-0.2-0.2-0.4c0-0.1-0.1-0.1-0.1-0.2c-0.2-0.2-0.3-0.4-0.5-0.6c0,0-0.1-0.1-0.1-0.1
	c-0.2-0.1-0.3-0.3-0.5-0.4c-0.1-0.1-0.2-0.1-0.2-0.2c-0.1-0.1-0.3-0.2-0.4-0.3c-0.1,0-0.2-0.1-0.3-0.1c-0.1-0.1-0.3-0.1-0.5-0.2
	c-0.1,0-0.2-0.1-0.3-0.1c-0.2-0.1-0.4-0.1-0.5-0.1c-0.1,0-0.2,0-0.3-0.1c-0.3,0-0.5-0.1-0.8-0.1c-0.3,0-0.5,0-0.8,0.1
	c-0.1,0-0.2,0-0.3,0.1c-0.2,0-0.4,0.1-0.5,0.1c-0.1,0-0.2,0.1-0.3,0.1c-0.2,0.1-0.3,0.1-0.5,0.2c-0.1,0-0.2,0.1-0.3,0.1
	c-0.2,0.1-0.3,0.2-0.4,0.3c-0.1,0.1-0.2,0.1-0.2,0.2c-0.2,0.1-0.3,0.3-0.5,0.4c0,0-0.1,0.1-0.1,0.1c-0.2,0.2-0.4,0.4-0.5,0.6
	c-0.1,0.1-0.1,0.1-0.1,0.2c-0.1,0.1-0.2,0.2-0.2,0.4c-0.1-0.1-0.2-0.2-0.2-0.4c0-0.1-0.1-0.1-0.1-0.2c-0.2-0.2-0.3-0.4-0.5-0.6
	c0,0-0.1-0.1-0.1-0.1c-0.2-0.1-0.3-0.3-0.5-0.4c-0.1-0.1-0.2-0.1-0.2-0.2c-0.1-0.1-0.3-0.2-0.4-0.3c-0.1,0-0.2-0.1-0.3-0.1
	c-0.2-0.1-0.3-0.1-0.5-0.2c-0.1,0-0.2-0.1-0.3-0.1c-0.2-0.1-0.3-0.1-0.5-0.1c-0.1,0-0.2,0-0.3-0.1c-0.3,0-0.5-0.1-0.8-0.1
	c-0.3,0-0.5,0-0.8,0.1c-0.1,0-0.1,0-0.2,0c-0.2,0-0.4,0.1-0.6,0.1c-0.1,0-0.1,0-0.2,0.1C6,29,5.8,29.1,5.5,29.2c0,0,0,0-0.1,0
	c0,0,0,0,0,0c-0.4-0.8-0.7-1.6-0.7-2.5c0-0.6,0.1-1.2,0.2-1.7c0.3-1.2,0.2-2.5-0.1-4c-0.1-0.4-0.1-0.8-0.1-1.1c0-2.1,0.6-7,6.5-7
	c0.2,0,0.4,0,0.6,0.1c0,0.1-0.1,0.1-0.1,0.2c-0.1,0.3-0.3,0.5-0.4,0.8c-0.1,0.1-0.1,0.2-0.2,0.3c-0.2,0.4-0.4,0.7-0.7,1.1
	c-0.2,0.4-0.5,0.7-0.7,1.1c-1,1.4-2,2.9-2.4,4.6c-0.1,0.3-0.1,0.6-0.2,1c0,0.3,0,0.6,0,0.9c0.2,1.6,1.1,2.9,2.5,3.4
	c0.1,0,0.3,0.1,0.5,0.1c0,0,0,0,0,0c0.2,0,0.3,0,0.5,0c0,0,0,0,0,0c0,0,0,0,0,0c0.1,0,0.2,0,0.4,0c0,0,0,0,0,0c0.1,0,0.2,0,0.4-0.1
	c0,0,0.1,0,0.1,0c0.1,0,0.3-0.1,0.4-0.1c0,0,0,0,0,0c0.2-0.1,0.3-0.1,0.5-0.2c0,0,0.1,0,0.1-0.1c0.1-0.1,0.3-0.1,0.4-0.2
	c0,0,0.1,0,0.1-0.1c0.2-0.1,0.3-0.2,0.5-0.4c0,0,0.1-0.1,0.1-0.1c0.1-0.1,0.3-0.2,0.5-0.4c0.1,0,0.1-0.1,0.2-0.1
	c0.2-0.2,0.4-0.3,0.6-0.6c0.3-0.3,0.6-0.6,0.9-0.9c0.1-0.1,0.1-0.2,0.2-0.2c0.2-0.3,0.4-0.5,0.6-0.8c0.1-0.1,0.1-0.1,0.1-0.2
	c0.3-0.3,0.5-0.6,0.7-0.9c0,0,0.1-0.1,0.1-0.1c0.2-0.3,0.4-0.5,0.6-0.8c0-0.1,0.1-0.1,0.1-0.2c0.4-0.6,0.7-1.2,1-1.8
	c0-0.1,0-0.1,0.1-0.2c0.1-0.3,0.2-0.5,0.3-0.8c0,0,0-0.1,0-0.1c0.1-0.3,0.2-0.6,0.3-0.9c0,0,0,0,0,0c0.9-0.4,1.6-1.1,2.1-1.5
	c0.1-0.1,0.2-0.2,0.3-0.2c3.2-2.8,6.5-4,9.6-3.6c-1.2,0.8-2.6,1.4-4.1,1.7c-1.7,0.4-3.3,1.3-4.4,2.7c-2.6,3.1-2.2,7.9,0.8,10.6
	c1.4,1.3,3.2,2,5.2,2c0.2,0,0.4,0,0.6,0c2.1-0.2,4-1.1,5.4-2.8c1-1.2,1.6-2.7,1.7-4.3c0.2-1.9,0.8-3.8,1.8-5.6
	C41.1,17.7,44.6,21.9,44,24.7L44,24.7z M45.4,4.9c-0.2,0.3-0.5,0.5-0.9,0.5c-0.9,0-1.8,0.4-2.3,1.1L40,9.1c-0.3-0.4-0.8-0.8-1.4-1.1
	l2.2-2.7c0.5-0.7,0.8-1.5,0.6-2.5c-0.1-0.4,0.1-0.7,0.3-1c0.3-0.3,0.9-0.4,1.3-0.2c0.2,0.1,0.4,0.3,0.5,0.5c0.2,0.5,0.6,0.8,1.1,0.9
	c0.2,0.1,0.4,0.2,0.6,0.4C45.7,3.9,45.7,4.5,45.4,4.9L45.4,4.9z M45.4,4.9"/>
</svg>
