<?xml version="1.0" encoding="utf-8"?>
<!-- Generator: Adobe Illustrator 19.0.0, SVG Export Plug-In . SVG Version: 6.00 Build 0)  -->
<svg version="1.1" id="Слой_1" xmlns="http://www.w3.org/2000/svg" xmlns:xlink="http://www.w3.org/1999/xlink" x="0px" y="0px"
	 viewBox="0 0 321.6 354.5" style="enable-background:new 0 0 321.6 354.5;" xml:space="preserve">
<g id="lmBwPy_1_">
	<g id="XMLID_2_">
		<path id="XMLID_17_" d="M0.7,190.3c0-43.2,0.1-86.3,0-129.5C0.6,49,0,37.1,0,25.3c0-9,2.3-17.4,10.8-22.2
			C18.2-1.1,25.8-1,33.2,3.2c20.3,11.4,40.7,22.8,61,34.3c29.2,16.4,58.4,32.7,87.6,49.1c17,9.6,33.6,19.7,50.9,28.8
			c25.6,13.5,50.6,28.2,76,42.1c7.9,4.3,13,10.6,12.9,19.8c-0.1,8.6-4.3,15-12.1,19.3c-19.5,10.8-38.9,21.9-58.4,32.8
			c-27.3,15.4-54.5,30.8-81.8,46.2c-35.7,20.1-71.5,40-107.3,60c-8.9,5-17.8,9.8-26.5,15c-16.8,9.8-33.8,0.7-34.6-18.8
			c-0.2-5.2-0.1-10.3-0.1-15.5c0-42,0-84,0-126C0.8,190.3,0.8,190.3,0.7,190.3z"/>
	</g>
</g>
</svg>
