<?xml version="1.0" encoding="utf-8"?>
<!-- Generator: Adobe Illustrator 19.0.0, SVG Export Plug-In . SVG Version: 6.00 Build 0)  -->
<svg version="1.1" id="Слой_1" xmlns="http://www.w3.org/2000/svg" xmlns:xlink="http://www.w3.org/1999/xlink" x="0px" y="0px"
	 viewBox="0 0 377.4 377.4" style="enable-background:new 0 0 377.4 377.4;" xml:space="preserve">
<path d="M145.5,107.3c-5.3,0-9.6,4.3-9.6,9.6v143.6c0,3.4,1.8,6.6,4.8,8.3c3,1.7,6.7,1.7,9.6,0l124.3-71.8c3-1.7,4.8-4.9,4.8-8.3
	c0-3.5-1.8-6.7-4.8-8.4l0,0l-76.2-44c-2.2-1.3-4.8-1.6-7.3-1c-2.5,0.7-4.6,2.3-5.9,4.5c-1.3,2.2-1.6,4.8-1,7.3
	c0.7,2.5,2.3,4.6,4.5,5.9l61.8,35.7l-95.5,55.2V116.9C155.1,111.6,150.8,107.3,145.5,107.3z"/>
<path d="M322.1,55.3C286.4,19.6,239.1,0,188.7,0C138.3,0,91,19.6,55.3,55.3C19.6,91,0,138.3,0,188.7c0,50.4,19.6,97.7,55.3,133.4
	c35.7,35.7,83,55.3,133.4,55.3c50.4,0,97.7-19.6,133.4-55.3c35.7-35.7,55.3-83,55.3-133.4C377.4,138.3,357.8,91,322.1,55.3z
	 M188.7,361.6c-95.3,0-172.9-77.6-172.9-172.9c0-95.3,77.6-172.9,172.9-172.9c95.3,0,172.9,77.6,172.9,172.9
	C361.6,284,284,361.6,188.7,361.6z"/>
</svg>
