<?xml version="1.0" encoding="utf-8"?>
<!-- Generator: Adobe Illustrator 19.0.0, SVG Export Plug-In . SVG Version: 6.00 Build 0)  -->
<svg version="1.1" id="Слой_1" xmlns="http://www.w3.org/2000/svg" xmlns:xlink="http://www.w3.org/1999/xlink" x="0px" y="0px"
	 viewBox="0 0 27.7 25" style="enable-background:new 0 0 27.7 25;" xml:space="preserve">
<style type="text/css">
	.st0{fill:none;stroke:#FFFFFF;stroke-linecap:round;stroke-linejoin:round;stroke-miterlimit:10;}
</style>
<path class="st0" d="M15.4,19.1c-2.2,1.3-5,1.7-7.7,0.9c-5.3-1.5-8.4-7-6.9-12.3s7-8.4,12.3-6.9s8.4,7,6.9,12.3"/>
<path class="st0" d="M22.4,17.6l4.3,3.8c0.7,0.7,0.7,1.8,0,2.5l0,0c-0.7,0.7-1.9,0.7-2.6,0l-5.9-5.9c-0.4-0.4-0.9-0.4-1.3-0.1
	c-1.7,1.5-4,2.4-6.5,2.4c-5.4,0-9.9-4.4-9.9-9.8C0.4,5,4.9,0.5,10.5,0.5c5.5,0,10,4.5,10,10"/>
<circle class="st0" cx="10.8" cy="10.5" r="6.7"/>
</svg>
