<?xml version="1.0" encoding="utf-8"?>
<!-- Generator: Adobe Illustrator 19.0.0, SVG Export Plug-In . SVG Version: 6.00 Build 0)  -->
<svg version="1.1" id="Слой_1" xmlns="http://www.w3.org/2000/svg" xmlns:xlink="http://www.w3.org/1999/xlink" x="0px" y="0px"
	 viewBox="0 0 391.9 237.7" style="enable-background:new 0 0 391.9 237.7;" xml:space="preserve">
<path d="M388.8,109.8C329.6,37,265.7,0,198.6,0c-26.6,0-53.4,5.9-80,17.5C97.7,26.7,77,39.4,57.1,55.4c-33.7,27-53.5,53.8-54.3,55
	c-3.8,5.3-3.7,12.5,0.4,17.6c59.1,72.9,123.1,109.8,190.2,109.8c26.6,0,53.4-5.9,80-17.5c20.9-9.2,41.6-21.9,61.5-37.8
	c33.7-27,53.5-53.8,54.3-55C393,122.1,392.9,114.9,388.8,109.8L388.8,109.8z M316.2,160.3c-27.8,22.2-71.7,48.6-122.9,48.6
	c-55.3,0-109.2-30.3-160.4-90.2c8.1-9.5,22.9-25.4,42.7-41.3c27.8-22.2,71.7-48.6,122.9-48.6c55.3,0,109.2,30.3,160.4,90.2
	C350.9,128.6,336.1,144.6,316.2,160.3L316.2,160.3z M316.2,160.3"/>
<path d="M249,104.5c-7.9,0-14.4,6.5-14.4,14.4c0,21.4-17.4,38.7-38.7,38.7c-21.4,0-38.7-17.4-38.7-38.7s17.4-38.7,38.7-38.7
	c7.9,0,14.4-6.5,14.4-14.4c0-7.9-6.5-14.4-14.4-14.4c-37.3,0-67.5,30.3-67.5,67.5s30.2,67.5,67.5,67.5c37.3,0,67.5-30.3,67.5-67.5
	C263.4,111,256.9,104.5,249,104.5L249,104.5z M249,104.5"/>
</svg>
