<?xml version="1.0" encoding="utf-8"?>
<!-- Generator: Adobe Illustrator 19.0.0, SVG Export Plug-In . SVG Version: 6.00 Build 0)  -->
<svg version="1.1" id="Слой_1" xmlns="http://www.w3.org/2000/svg" xmlns:xlink="http://www.w3.org/1999/xlink" x="0px" y="0px"
	 viewBox="0 0 65.2 33.9" style="enable-background:new 0 0 65.2 33.9;" xml:space="preserve">
<path d="M63.9,26.6c0.7,0,1.3-0.6,1.3-1.3S64.6,24,63.9,24h-1.1c-0.2,0-0.3-0.1-0.3-0.3V1.3c0-0.7-0.6-1.3-1.3-1.3H20.7
	c-0.7,0-1.3,0.6-1.3,1.3v22.3c0,0.2-0.1,0.3-0.3,0.3H17c-0.2,0-0.3-0.1-0.3-0.3v-22c0-0.7-0.6-1.3-1.3-1.3h-4.2
	c-3.2,0-6,2.3-6.5,5.5c0,0.1-0.1,0.2-0.3,0.2H1.3C0.6,6.1,0,6.7,0,7.4V29c0,0.7,0.6,1.3,1.3,1.3h2.2c0.1,0,0.2,0.1,0.3,0.2
	c0.7,2,2.5,3.3,4.6,3.3c2.1,0,3.9-1.3,4.6-3.3c0-0.1,0.1-0.2,0.3-0.2h7.3c0.1,0,0.2,0.1,0.3,0.2c0.6,2,2.5,3.3,4.6,3.3
	c1.8,0,3.4-1,4.3-2.6c0.1-0.2,0.4-0.2,0.5,0c0.8,1.6,2.5,2.6,4.3,2.6c2.7,0,4.8-2.2,4.8-4.8c0-1.2-0.4-2.3-1.2-3.2
	c-0.1-0.1-0.1-0.2,0-0.3c0-0.1,0.1-0.2,0.3-0.2h4.2c0.1,0,0.2,0.1,0.3,0.2s0,0.2,0,0.3c-0.8,0.9-1.2,2-1.2,3.2
	c0,2.7,2.2,4.8,4.8,4.8c1.8,0,3.4-1,4.3-2.6c0-0.1,0.1-0.2,0.3-0.2c0.1,0,0.2,0.1,0.3,0.2c0.8,1.6,2.5,2.6,4.3,2.6
	c2.7,0,4.8-2.2,4.8-4.8c0-1.2-0.4-2.3-1.2-3.2c-0.1-0.1-0.1-0.2,0-0.3c0-0.1,0.1-0.2,0.3-0.2h0.6c0.1,0,0.3,0.1,0.3,0.2
	c0.1,0.6,0.7,1,1.3,1H63.9z M2.6,13.6c0-0.2,0.1-0.3,0.3-0.3h5.2c0.2,0,0.3,0.1,0.3,0.3v1.9c0,0.2-0.1,0.3-0.3,0.3H2.9
	c-0.2,0-0.3-0.1-0.3-0.3V13.6z M8.3,31.3c-1.2,0-2.2-1-2.2-2.2c0-1.2,1-2.2,2.2-2.2c1.2,0,2.2,1,2.2,2.2
	C10.6,30.3,9.6,31.3,8.3,31.3z M14.1,27.5c0,0.2-0.1,0.3-0.3,0.3h-0.6c-0.1,0-0.2-0.1-0.3-0.2c-0.7-2-2.5-3.3-4.6-3.3
	c-2.1,0-3.9,1.3-4.6,3.3c0,0.1-0.1,0.2-0.3,0.2H2.9c-0.2,0-0.3-0.1-0.3-0.3v-8.8c0-0.2,0.1-0.3,0.3-0.3h6.8c0.7,0,1.3-0.6,1.3-1.3
	v-5c0-0.7-0.6-1.3-1.3-1.3H2.9c-0.2,0-0.3-0.1-0.3-0.3V9c0-0.2,0.1-0.3,0.3-0.3h10.9c0.2,0,0.3,0.1,0.3,0.3V27.5z M14.1,5.8
	c0,0.2-0.1,0.3-0.3,0.3H7.7C7.6,6.1,7.5,6,7.5,6c-0.1-0.1-0.1-0.2,0-0.3C7.9,4,9.5,2.9,11.2,2.9h2.6c0.2,0,0.3,0.1,0.3,0.3V5.8z
	 M21,26.9c-0.1,0.2-0.2,0.4-0.3,0.7c0,0.1-0.1,0.2-0.3,0.2H17c-0.2,0-0.3-0.1-0.3-0.3v-0.7c0-0.2,0.1-0.3,0.3-0.3h3.8
	c0.1,0,0.2,0.1,0.2,0.1C21.1,26.7,21.1,26.8,21,26.9z M25.4,31.3c-1.2,0-2.2-1-2.2-2.2c0-1.2,1-2.2,2.2-2.2c1.2,0,2.2,1,2.2,2.2
	C27.6,30.3,26.6,31.3,25.4,31.3z M34.4,31.3c-1.2,0-2.2-1-2.2-2.2c0-1.2,1-2.2,2.2-2.2c1.2,0,2.2,1,2.2,2.2
	C36.6,30.3,35.6,31.3,34.4,31.3z M46.1,31.3c-1.2,0-2.2-1-2.2-2.2c0-1.2,1-2.2,2.2-2.2s2.2,1,2.2,2.2C48.4,30.3,47.4,31.3,46.1,31.3
	z M51.6,25.8c-0.3,0.3-0.5,0.6-0.7,1c0,0.1-0.1,0.2-0.3,0.2c-0.1,0-0.2-0.1-0.3-0.2c-0.2-0.3-0.4-0.7-0.7-1c-0.1-0.1-0.1-0.2,0-0.3
	s0.1-0.2,0.3-0.2h1.4c0.1,0,0.2,0.1,0.3,0.2S51.7,25.7,51.6,25.8z M55.2,31.3c-1.2,0-2.2-1-2.2-2.2c0-1.2,1-2.2,2.2-2.2
	c1.2,0,2.2,1,2.2,2.2C57.4,30.3,56.4,31.3,55.2,31.3z M59.9,22.4c0,0.2-0.1,0.3-0.3,0.3H22.2c-0.2,0-0.3-0.1-0.3-0.3V21
	c0-0.2,0.1-0.3,0.3-0.3h37.3c0.2,0,0.3,0.1,0.3,0.3V22.4z M59.9,17.8c0,0.2-0.1,0.3-0.3,0.3H22.2c-0.2,0-0.3-0.1-0.3-0.3v-15
	c0-0.2,0.1-0.3,0.3-0.3h37.3c0.2,0,0.3,0.1,0.3,0.3V17.8z"/>
</svg>
