<?xml version="1.0" encoding="utf-8"?>
<!-- Generator: Adobe Illustrator 19.0.0, SVG Export Plug-In . SVG Version: 6.00 Build 0)  -->
<svg version="1.1" id="Слой_1" xmlns="http://www.w3.org/2000/svg" xmlns:xlink="http://www.w3.org/1999/xlink" x="0px" y="0px"
	 viewBox="334.5 87.5 290.5 385.8" style="enable-background:new 334.5 87.5 290.5 385.8;" xml:space="preserve">
<path d="M493.5,87.5h-27.6c-34.1,0-61.8,27.7-61.8,61.8v32.4h-58.7c-6,0-10.9,4.9-10.9,10.9v230.2c0,27.8,22.7,50.5,50.5,50.5h189.5
	c27.8,0,50.5-22.7,50.5-50.5V192.6c0-6-4.9-10.9-10.9-10.9s-10.9,4.9-10.9,10.9v230.2c0,15.8-12.9,28.7-28.7,28.7H385
	c-15.8,0-28.7-12.9-28.7-28.7V203.5h47.9v31h-5.8c-6,0-10.9,4.9-10.9,10.9s4.9,10.9,10.9,10.9h33.4c6,0,10.9-4.9,10.9-10.9
	s-4.9-10.9-10.9-10.9H426v-85.2c0-22,17.9-40,40-40h27.6c22,0,40,17.9,40,40v32.4h-50.2c-6,0-10.9,4.9-10.9,10.9s4.9,10.9,10.9,10.9
	h50.2v31h-5.8c-6,0-10.9,4.9-10.9,10.9s4.9,10.9,10.9,10.9h33.4c6,0,10.9-4.9,10.9-10.9s-4.9-10.9-10.9-10.9h-5.8v-85.2
	C555.3,115.2,527.5,87.5,493.5,87.5z"/>
</svg>
