<?xml version="1.0" encoding="utf-8"?>
<!-- Generator: Adobe Illustrator 19.0.0, SVG Export Plug-In . SVG Version: 6.00 Build 0)  -->
<svg version="1.1" id="Capa_1" xmlns="http://www.w3.org/2000/svg" xmlns:xlink="http://www.w3.org/1999/xlink" x="0px" y="0px"
	 viewBox="-263 111.2 432.1 339.5" style="enable-background:new -263 111.2 432.1 339.5;" xml:space="preserve">
<g>
	<path d="M168.5,279c-13.8-35.1-37-65.5-66.9-88c-30.1-22.6-65.7-35.9-102.9-38.6l-76.8-38.8c-0.2-0.1-0.3-0.1-0.5-0.2
		c-3.5-1.5-7-2.2-10.5-2.2c-14.2,0-25,12-25,27.9c0,10.3,4.7,19.1,10.1,29.2c0.7,1.3,1.4,2.6,2.1,3.9c-32.1,16-59.9,41-79.5,71.6
		l-52.5-32.2c-0.3-0.2-0.7-0.4-1-0.5c-2.7-1.2-5.5-1.8-8.3-1.8c-11.3,0-19.8,9.4-19.8,21.9c0,14.5,16.3,39.4,24.2,50.7
		c-7.9,11.3-24.2,36.2-24.2,50.7c0,12.5,8.5,21.9,19.8,21.9c2.8,0,5.6-0.6,8.3-1.8c0.4-0.2,0.7-0.3,1-0.5l52.5-32.2
		c19.6,30.6,46.4,55,78.5,71.1c-0.5,1-1.1,2.1-1.6,3.1c-5.2,10-9.6,18.6-9.6,28.6c0,15.9,10.7,27.9,25,27.9c0,0,0,0,0,0
		c3.5,0,7.1-0.8,10.5-2.2c0.2-0.1,0.3-0.1,0.5-0.2l71.6-36.5c77.4-3.5,145.9-53.2,175-126.9C169.2,283,169.2,280.9,168.5,279z
		 M59.3,379.5c-22.1-23-35.3-59.9-35.3-99.3c0-18.2,2.7-35.6,8-52c1.4-4.2-0.9-8.7-5.1-10.1c-4.2-1.4-8.7,0.9-10.1,5.1
		C11,241.3,8,260.4,8,280.3c0,40.9,13.1,79.6,35.5,105.7c-16.6,5.8-34.2,9.3-52.4,9.9c-1.2,0-2.3,0.3-3.3,0.9l-72.9,37.1
		c-1.4,0.6-2.7,0.9-4,0.9c0,0,0,0,0,0c-5.2,0-9-5-9-11.9c0-6.1,3.3-12.4,7.8-21.3c1.6-3.2,3.5-6.8,5.3-10.7c0.9-1.9,1-4.2,0.3-6.2
		s-2.3-3.6-4.2-4.5c-34.7-15.7-63.4-41.7-83-75.1c-1.1-1.9-2.9-3.2-5-3.7c-0.6-0.2-1.3-0.2-1.9-0.2c-1.5,0-2.9,0.4-4.2,1.2l-58.7,36
		c-0.6,0.2-1.1,0.3-1.6,0.3c-2.3,0-3.8-2.4-3.8-5.9c0-8.9,14.3-32.2,24.5-45.9c2.1-2.8,2.1-6.7,0-9.5
		c-10.2-13.7-24.5-37.1-24.5-45.9c0-3.5,1.6-5.9,3.8-5.9c0.5,0,1,0.1,1.6,0.3l58.7,36c1.8,1.1,4,1.5,6.1,0.9s3.9-1.9,5-3.7
		c19.5-33.3,49.3-60.2,84-75.6c2-0.9,3.5-2.5,4.3-4.6c0.7-2,0.6-4.3-0.3-6.2c-2.1-4.3-4.2-8.2-6-11.7c-4.8-9-8.2-15.4-8.2-21.7
		c0-6.9,3.8-11.9,9-11.9c1.3,0,2.6,0.3,4,0.9l78,39.4c1,0.5,2,0.8,3.1,0.8c15.5,1,30.7,4,45.3,8.9c-3.9,4.8-7.5,10-10.8,15.5
		c-2.2,3.8-1,8.7,2.8,11c1.3,0.8,2.7,1.1,4.1,1.1c2.7,0,5.4-1.4,6.9-3.9c3.8-6.5,8.1-12.3,12.8-17.5c12.3,5.5,24,12.3,34.9,20.5
		c26.7,20,47.6,47,60.5,78.1C134.2,326.1,100.5,360.5,59.3,379.5z"/>
	<path d="M81.1,234c-13.1,0-23.8,10.7-23.8,23.8c0,13.1,10.7,23.8,23.8,23.8s23.8-10.7,23.8-23.8C104.9,244.7,94.2,234,81.1,234z
		 M81.1,265.6c-4.3,0-7.8-3.5-7.8-7.8s3.5-7.8,7.8-7.8s7.8,3.5,7.8,7.8S85.4,265.6,81.1,265.6z"/>
</g>
</svg>
