<?xml version="1.0" encoding="utf-8"?>
<!-- Generator: Adobe Illustrator 19.0.0, SVG Export Plug-In . SVG Version: 6.00 Build 0)  -->
<svg version="1.1" id="Слой_1" xmlns="http://www.w3.org/2000/svg" xmlns:xlink="http://www.w3.org/1999/xlink" x="0px" y="0px"
	 viewBox="347 85 265.9 365.3" style="enable-background:new 347 85 265.9 365.3;" xml:space="preserve">
<g>
	<path d="M577.7,289.5c-5.4-5.8-14.5-6.2-20.3-0.9c-5.8,5.4-6.2,14.5-0.9,20.3c17.7,19.3,27.4,44.3,27.4,70.5v36.8
		c0,2.9-2.4,5.3-5.3,5.3H381c-2.9,0-5.3-2.4-5.3-5.3v-36.8c0-57.4,46.7-104.1,104.1-104.1c52.5,0,95.2-42.7,95.2-95.2
		S532.4,85,479.9,85s-95.2,42.7-95.2,95.2c0,15.7,3.9,31.3,11.3,45c3.8,7,12.5,9.6,19.5,5.8s9.6-12.5,5.8-19.5
		c-5.1-9.6-7.8-20.4-7.8-31.4c0-36.6,29.8-66.4,66.4-66.4s66.4,29.8,66.4,66.4s-29.8,66.4-66.4,66.4c-73.3,0-132.9,59.6-132.9,132.9
		v36.8c0,18.8,15.3,34.1,34.1,34.1h197.7c18.8,0,34.1-15.3,34.1-34.1v-36.8C612.8,346,600.4,314.1,577.7,289.5L577.7,289.5z"/>
</g>
<g>
	<path d="M479.8,113c36.9,0,66.9,30,66.9,66.9s-30,66.9-66.9,66.9s-66.9-30-66.9-66.9S442.9,113,479.8,113 M479.8,85
		c-52.4,0-94.9,42.5-94.9,94.9s42.5,94.9,94.9,94.9s94.9-42.5,94.9-94.9S532.2,85,479.8,85L479.8,85z"/>
</g>
</svg>
