<?xml version="1.0" encoding="utf-8"?>
<!-- Generator: Adobe Illustrator 19.0.0, SVG Export Plug-In . SVG Version: 6.00 Build 0)  -->
<svg version="1.1" id="Capa_1" xmlns="http://www.w3.org/2000/svg" xmlns:xlink="http://www.w3.org/1999/xlink" x="0px" y="0px"
	 viewBox="-264 113.4 430.4 334.7" style="enable-background:new -264 113.4 430.4 334.7;" xml:space="preserve">
<path id="XMLID_235_" d="M48,308.9c-18,0-32.7,14.6-32.7,32.7S30,374.2,48,374.2c18,0,32.7-14.6,32.7-32.7
	C80.7,323.5,66,308.9,48,308.9z M48,358.2c-9.2,0-16.7-7.5-16.7-16.7c0-9.2,7.5-16.7,16.7-16.7s16.7,7.5,16.7,16.7
	C64.7,350.7,57.2,358.2,48,358.2z M158.4,448.2c4.4,0,8-3.6,8-8s-3.6-8-8-8h-54.3c30.3-18.8,50.5-52.4,50.5-90.6
	c0-24.6-8.4-47.4-22.5-65.4V140c0-2.9-1.6-5.7-4.2-7.1l-34.6-18.6c-1.2-0.6-2.5-0.9-3.8-0.9H64.4c-2.8,0-5.5,1.5-6.9,3.9L3.7,208.9
	H-68l-1-15.8c-0.3-4.2-3.8-7.5-8-7.5h-38.1v-36.9h18.4c4.4,0,8-3.6,8-8s-3.6-8-8-8h-26.2c-0.1,0-0.3,0-0.4,0h-26.2c-4.4,0-8,3.6-8,8
	s3.6,8,8,8h18.4v36.9h-40c-26,0-37.4,22.6-44.5,42.2l-15,41.9c-0.3,0.9-0.5,1.8-0.5,2.7v28.2c-19.9,15-32.8,38.8-32.8,65.6
	c0,27.3,13.4,51.5,34,66.4c-3.1,1.1-5.3,4.1-5.3,7.5c0,4.4,3.6,8,8,8h148.1c4.4,0,8-3.6,8-8s-3.6-8-8-8h-54.3
	c20.2-14.9,33.4-38.9,33.4-66c0-45.2-36.8-82-82-82c-11.8,0-23,2.5-33.1,7v-17.4l0.6-1.5h20.2c4.4,0,8-3.6,8-8s-3.6-8-8-8h-14.5
	l8.3-23c8.1-22.5,16.6-31.7,29.4-31.7h86.7l1,15.8c0.3,4.2,3.8,7.5,8,7.5H8.3c2.8,0,5.5-1.5,6.9-3.9L69,129.4h18.5l28.6,15.3v114.8
	c-18.5-15.4-42.2-24.7-68.1-24.7c-42,0-78.5,24.5-95.8,59.9h-49.4c-4.4,0-8,3.6-8,8s3.6,8,8,8h43.1c-1.4,4.6-2.5,9.3-3.2,14.1h-25.4
	c-4.4,0-8,3.6-8,8s3.6,8,8,8h24.1c0,0.2,0,0.4,0,0.6c0,38.2,20.2,71.8,50.5,90.6H-20c-4.4,0-8,3.6-8,8s3.6,8,8,8L158.4,448.2
	L158.4,448.2z M-182,300.2c36.4,0,66,29.6,66,66c0,36.2-29.3,65.7-65.5,66h-1c-36.1-0.3-65.5-29.8-65.5-66
	C-248,329.8-218.4,300.2-182,300.2z M48.6,432.2h-1.2c-49.7-0.3-90-40.8-90-90.6c0-50,40.6-90.6,90.6-90.6c50,0,90.6,40.6,90.6,90.6
	C138.6,391.3,98.3,431.8,48.6,432.2z M-182,398.9c18,0,32.7-14.6,32.7-32.7s-14.6-32.7-32.7-32.7c-18,0-32.7,14.6-32.7,32.7
	C-214.7,384.2-200,398.9-182,398.9z M-182,349.5c9.2,0,16.7,7.5,16.7,16.7s-7.5,16.7-16.7,16.7c-9.2,0-16.7-7.5-16.7-16.7
	C-198.7,357-191.2,349.5-182,349.5z M56,401.8c0,4.4-3.6,8-8,8c-37.6,0-68.3-30.6-68.3-68.3c0-4.4,3.6-8,8-8s8,3.6,8,8
	c0,28.8,23.5,52.3,52.3,52.3C52.4,393.8,56,397.4,56,401.8z M108.3,349.5c-4.4,0-8-3.6-8-8c0-28.8-23.5-52.3-52.3-52.3
	c-4.4,0-8-3.6-8-8s3.6-8,8-8c37.6,0,68.3,30.6,68.3,68.3C116.3,346,112.7,349.5,108.3,349.5z"/>
</svg>
