<?xml version="1.0" encoding="utf-8"?>
<!-- Generator: Adobe Illustrator 19.0.0, SVG Export Plug-In . SVG Version: 6.00 Build 0)  -->
<svg version="1.1" id="_x31_" xmlns="http://www.w3.org/2000/svg" xmlns:xlink="http://www.w3.org/1999/xlink" x="0px" y="0px"
	 viewBox="0 0 564.2 364.7" style="enable-background:new 0 0 564.2 364.7;" xml:space="preserve">
<style type="text/css">
	.st0{fill:#DB493D;}
	.st1{fill-rule:evenodd;clip-rule:evenodd;fill:#FFC455;}
	.st2{fill-rule:evenodd;clip-rule:evenodd;fill:#DB493D;stroke:#E30045;stroke-width:0.216;stroke-miterlimit:22.9256;}
	.st3{fill-rule:evenodd;clip-rule:evenodd;fill:#DB493D;}
</style>
<g>
	<polygon class="st0" points="163.6,326.8 173.4,336.6 211.9,335.2 220.3,326.8 	"/>
	<path class="st0" d="M195.3,180.9c1.8-5.8-29-13.9-40.6-16.4l21.5-17.1l57.5-11.7l3.8-0.5l4.3,0l4.3,0.5l4.3,1.2l4.1,1.8l3.8,2.5
		l3.3,3l2.7,3.3l2.1,3.5l1.5,3.6l1,3.6l0.6,3.5l0.3,3.4l0,3.3l-0.3,3.2l-0.5,2.9l-4.8,23.5l6.1-6.6l83.7-0.5L192,28.7L28.7,192
		l134.7,134.7L195.3,180.9z"/>
</g>
<g>
	<polygon class="st1" points="192,16.8 367.1,192 346.4,212.2 347,212.1 349.1,212.1 351.2,212.1 353.2,212.2 355.3,212.4 
		357.3,212.6 359.3,213 361.3,213.4 361.9,213.5 383.9,192 192,0 0,192 145.7,337.7 161.9,337.1 16.8,192 	"/>
</g>
<polygon class="st1" points="556,331.1 550.4,356.4 95.4,355.9 93.4,364.2 556.6,364.7 564.2,330.8 "/>
<polygon class="st2" points="409.8,319.9 408.2,321.1 406.7,321.8 405.3,322.2 404.1,322.3 403,322.4 402.1,322.4 393.4,322.4 
	392.2,322.4 388.5,322.4 387.2,322.4 383.5,322.4 382.2,322.4 381.1,322.4 380,322.3 378.7,322.1 377.4,321.8 376,321.2 
	374.7,320.4 374.3,320.2 298.3,323 305.9,344.9 257.1,344.9 250,324.7 84.1,330.8 80.3,347.1 543.5,347.6 551,313.7 410.6,318.8 "/>
<path class="st3" d="M260.7,339.9l38.1,0L269.3,255l43.6-45.2l-34.4,0.2l-46,49.4L260.7,339.9L260.7,339.9z M186.4,308.3l27.1-125.6
	c4.5-20.8-18.7-21-15.9-21.6l38.9-6.9c12.4-2.2,16.3,7.3,14.4,17.1l-27.9,137L186.4,308.3z"/>
<path class="st3" d="M404,311c2.1,1.5,3.1,2,2.7,4.1c-0.3,2.1-2.8,2.2-4.7,2.2c-6.7,0-13.2,0-19.9,0c-2.4,0-4.4-0.3-5.9-2.2
	s-1-4.1-0.2-7.4l18.8-68c0.4-1.7,0.5-3.7-0.7-5.6c-1.2-1.9-3.1-3-4.8-3.9c-1.6-0.9-2.1-1.6-2-3c0.2-1.4,1.5-2.1,2.8-2.1
	c7.1,0,13.8,0,21.1,0c2.6,0,4.3,0.2,5.7,2c1.4,1.8,0.8,4.4,0.2,6.5c-0.6,2.1-0.9,3.6-1.3,5.4c6.7-8.9,14.8-13.6,24.4-13.6
	c9.6,0.1,15.8,4.7,19,10.3c3.2,5.6,4.2,10.5,3.1,18.9c-1.2,8.3-4,15.6-11.8,24.7c-7.8,9-21.1,14.2-29.9,14.1
	c-8.8-0.1-15-2.9-13.3-8.4c1.7-5.5,5.6-2.5,11.5-4.5c8-2.7,14.3-10.2,17.2-18c1.9-4.9,5.3-18.6-1.6-21.7c-3.1-1.4-9.1-0.8-13.8,4.6
	c-5.8,6.7-9,14.8-11.9,24.6c-2.4,8.1-2.2,6.9-3.1,10.2l-6,21.9C398,307.8,401.9,309.5,404,311z"/>
<path class="st3" d="M314.5,233c15.6-9.7,42.1-10.7,53.5,3.3c11.4,13.9,5.1,39.8-16.8,51.2c-21.9,11.4-49.8,5.7-55.6-11.1
	C289.8,259.6,298.8,242.8,314.5,233L314.5,233z M341.1,236.2c-9.2-0.8-18.1,8.8-21.6,20.3c-3.5,11.5-3.9,25.4,7,26.5
	c10,1,18.2-9.3,21.6-20.7C351.8,249.9,350.3,237,341.1,236.2z"/>
<path class="st3" d="M523.3,262.7c2.4-6.8,8.8-22.9,0-26.1c-8.8-3.2-17,10.5-20,17c-3,6.5-7.8,24.4,0.8,27.3
	C512.6,283.7,520.9,269.5,523.3,262.7L523.3,262.7z M494.4,293.1c-11.7-1.2-17.9-12.1-17.8-21.8c0.1-9.7,2.8-19,10-28.2
	c7.2-9.2,18.3-17.3,34-17.3c5.1,0,9.8,1.2,13,4.9c0.7-2.8,2.1-4.8,5.4-4.9l10.5,0c4,0,5.5,2.8,4.5,6.5l-12.2,45.5
	c-1.3,4.7,1,7.8,3.2,9.5c2.3,1.6,3.1,2.5,2.7,4.2c-0.4,1.7-2.2,2-4.1,2c-5.5,0-11.4,0-16.9,0c-5.2,0-8.4-2.5-7.3-7.9l0.6-2.9
	C514.8,289.1,506.1,294.3,494.4,293.1z"/>
</svg>
