<?xml version="1.0" encoding="utf-8"?>
<!-- Generator: Adobe Illustrator 19.0.0, SVG Export Plug-In . SVG Version: 6.00 Build 0)  -->
<svg version="1.1" id="_x31_" xmlns="http://www.w3.org/2000/svg" xmlns:xlink="http://www.w3.org/1999/xlink" x="0px" y="0px"
	 viewBox="0 0 619.1 158.1" style="enable-background:new 0 0 619.1 158.1;" xml:space="preserve">
<style type="text/css">
	.st0{fill-rule:evenodd;clip-rule:evenodd;fill:#E2000F;}
</style>
<path class="st0" d="M243.4,105.3c0,15,12.8,27.4,27.9,27.4c15.4,0,27.9-12.4,27.9-27.4c0-15.1-12.4-27.4-27.9-27.4
	C255.9,77.9,243.4,90.1,243.4,105.3L243.4,105.3z M262.9,105.3c0-4.7,3.5-8.4,8.4-8.4c4.7,0,8.4,3.7,8.4,8.4c0,4.7-3.5,8.4-8.4,8.4
	C266.7,113.8,262.9,110.1,262.9,105.3L262.9,105.3z M200.8,46h14.5V22.5h7.2V46h14.5V13.3h-36.3V46L200.8,46z M171.2,0h447.8v59.3
	H171.2V0L171.2,0z M497.2,21.4h9.3V46H521V21.4h9.2v-8.1h-33V21.4L497.2,21.4z M447.6,46h26.9v-8.5h-12.4v-4h6.6v-8.1h-6.6v-3.9
	h12.4v-8.1h-26.9V46L447.6,46z M385.2,46h14.5V33.6h7.2V46h14.5V13.3H407V25h-7.2V13.3h-14.5V46L385.2,46z M267.8,13.3v4.9
	c0,6.3-0.3,14.2-2.3,20.2c-1.2,3.6-3.1,6.5-3.8,7.5h15.2c4.5-6.9,4.8-15.6,4.8-23.5h4.4V46h14.5V13.3H267.8L267.8,13.3z M304.6,79
	h53v52.7h-23.5v-38h-6.2c0,12.7-1.4,26.8-8.6,38h-24.5c1.1-1.6,4.2-6.3,6.1-12.1c3.2-9.7,3.7-22.5,3.7-32.7V79L304.6,79z
	 M398.9,131.7h23.5V79h-19.2l-15.8,21.3V79H364v52.7h19.2l15.8-21.3V131.7L398.9,131.7z M498.6,131.7H542v-13.7h-20v-6.4h11.5V98.4
	H522v-6.3h20V79h-43.5V131.7L498.6,131.7z M115.5,67.4c12.8-6.4,25.7-13.1,21.5-36.5c-7.8,11.8-20.3,16.1-36,15.3
	c8.6,3.4,17.5,4,27.1,0.4C129.2,54,122.5,61.3,115.5,67.4L115.5,67.4z M79.7,11.8c0.3,0,0.5,0,0.8,0c-4,1.7-6.6,5.7-6.2,10.2
	c0.5,5.6,5.4,9.7,11,9.2c4.6-0.4,8.1-3.8,9-8c0,0.3,0.1,0.6,0.1,1c0.7,7.5-4.9,14-12.3,14.7c-7.5,0.7-14-4.9-14.7-12.3
	C66.8,19,72.3,12.5,79.7,11.8L79.7,11.8z M105.2,57.9c-21.6-19.7-59.5-14.4-61.4,8.3c4.4-0.9,8.9-1.7,13.4-2.1l-0.8-9.6l5.1-0.4
	l0.8,9.6c14.1-1,28.3,0.3,42.8,3.9l-0.9,5.2c-1-0.2-2-0.5-2.9-0.7l-4,22.4c15,4.8,25.2,15.4,34.2,26.2c0.2-16.1-5.6-31.5-18.1-43.2
	c17.7,8.2,33.2,28.2,27.6,69.5c-19.5-29.5-45.4-46.4-81-42.1c-4.2,10.7-10.9,21.1-22,27.6c17.6-0.6,33.7-7.4,48.4-16.8
	c-16.8,18-40.7,27.4-74.1,25.6c14.8-8.8,26.6-19.3,30.3-34.4c-3.1,0.8-6.1,1.8-9.2,2.9l-1.3,0.5L20.5,79c-0.9,0.4-1.8,0.8-2.8,1.2
	l-1.8-4.9c4.7-2.1,9.4-3.9,14.1-5.4C31.2,33.7,87.5,31.1,105.2,57.9L105.2,57.9z M82.3,75.8c4.2,0.4,8.4,0.9,12.7,1.7l1.2-6.6
	c-4.5-0.9-9-1.5-13.5-1.9L82.3,75.8L82.3,75.8z M81.7,87.2c3.8,0.3,7.5,0.7,11.3,1.3l1.3-7.4c-4.1-0.8-8.2-1.3-12.2-1.7L81.7,87.2
	L81.7,87.2z M92.4,92c-3.6-0.6-7.3-1-10.9-1.3l-0.4,6.9c3.3,0.2,6.7,0.5,10.1,1L92.4,92L92.4,92z M78.3,90.5
	c-4.6-0.2-9.2-0.2-13.8,0.1l0.6,7.1c4.3-0.3,8.5-0.4,12.8-0.2L78.3,90.5L78.3,90.5z M64.2,87.1c4.7-0.3,9.5-0.4,14.3-0.1l0.4-7.9
	c-5.2-0.3-10.3-0.3-15.4,0L64.2,87.1L64.2,87.1z M63.2,75.7c5.3-0.4,10.6-0.4,15.9-0.1l0.4-6.9c-5.7-0.4-11.3-0.4-16.9,0L63.2,75.7
	L63.2,75.7z M45.1,89.9c4.7-1.1,9.4-1.8,14.1-2.4l-0.7-8c-5.1,0.6-10.2,1.5-15.2,2.7L45.1,89.9L45.1,89.9z M59.5,91
	c-4.6,0.5-9.1,1.3-13.6,2.3l1.6,6.8c4.2-0.9,8.4-1.6,12.6-2.1L59.5,91L59.5,91z M42.8,94.1C39.4,95,36,96,32.6,97.2l2.3,6.3
	c3.2-1,6.3-1.9,9.5-2.7L42.8,94.1L42.8,94.1z M31.3,93.9c3.5-1.2,7.1-2.3,10.7-3.2l-1.8-7.6c-3.8,1.1-7.7,2.3-11.5,3.8L31.3,93.9
	L31.3,93.9z M42.5,78.8c5.2-1.2,10.4-2.2,15.7-2.7l-0.6-7c-5.6,0.6-11.1,1.6-16.7,3L42.5,78.8L42.5,78.8z M27.5,83.4
	c4-1.5,7.9-2.7,11.9-3.8l-1.6-6.7c-4.2,1.2-8.5,2.6-12.7,4.2L27.5,83.4L27.5,83.4z M209.4,131.7h-25l20.1-26.8L184.8,79h25l7.1,9.4
	l7.2-9.4h24.7l-19.2,25.7l20.6,27h-24.9l-8.2-10.3L209.4,131.7L209.4,131.7z M619.1,151.5v6.6H171.2v-6.6H619.1L619.1,151.5z
	 M158.1,0v158.1H0V0H158.1L158.1,0z M582.4,131.7h23.5V79h-19.2L571,100.2V79h-23.5v52.7h19.2l15.8-21.3V131.7L582.4,131.7z
	 M575.5,71.5h11.2l-11.2,15.1V71.5L575.5,71.5z M320.7,46h14.7l1.8-5.6h10.3l1.8,5.6h14.9l-12.1-32.6h-19.6L320.7,46L320.7,46z
	 M339.9,32.7h5l-2.5-7.7L339.9,32.7L339.9,32.7z M544.7,46h14.7l1.8-5.6h10.3l1.8,5.6h14.9l-12.1-32.6h-19.6L544.7,46L544.7,46z
	 M563.8,32.7h5l-2.5-7.7L563.8,32.7L563.8,32.7z M438.3,79c-0.5,22.8-3.8,31.9-8.1,38.8h-3.3v24.1h20.8v-10.2h25.3v10.2h20.8v-24.1
	h-6.1V79H438.3L438.3,79z M464.1,117.8h-12.3c3.1-5.6,4.6-11.5,5.1-21.9l0.1-3h7.1V117.8z"/>
</svg>
