<?xml version="1.0" encoding="utf-8"?>
<!-- Generator: Adobe Illustrator 19.0.0, SVG Export Plug-In . SVG Version: 6.00 Build 0)  -->
<svg version="1.1" id="_x31_" xmlns="http://www.w3.org/2000/svg" xmlns:xlink="http://www.w3.org/1999/xlink" x="0px" y="0px"
	 viewBox="0 0 2834.6 1429.1" style="enable-background:new 0 0 2834.6 1429.1;" xml:space="preserve">
<style type="text/css">
	.st0{fill-rule:evenodd;clip-rule:evenodd;fill:#D1050C;}
	.st1{fill-rule:evenodd;clip-rule:evenodd;fill:#FFFFFF;}
</style>
<g>
	<path class="st0" d="M275.8,0h2283.1c37.2,0,72.8,7.8,105.4,22c33.7,14.7,64.1,36.2,89.6,62.8c25.4,26.6,45.9,58.3,59.9,93.5
		c13.5,33.9,20.9,71,20.9,109.7V1141c0,38.7-7.5,75.8-20.9,109.7c-14,35.2-34.5,67-59.9,93.6c-25.5,26.6-55.9,48.1-89.6,62.8
		c-32.6,14.2-68.2,22-105.4,22H275.8c-37.2,0-72.8-7.8-105.4-22c-33.7-14.7-64.1-36.2-89.6-62.8c-25.4-26.6-45.9-58.3-59.9-93.6
		C7.5,1216.8,0,1179.7,0,1141V288.1c0-38.7,7.5-75.8,20.9-109.7c14-35.2,34.5-67,59.9-93.5c25.5-26.6,55.9-48.1,89.6-62.8
		C203,7.8,238.6,0,275.8,0z"/>
	<path class="st1" d="M697.3,829.1L697.3,829.1L697.3,829.1L697.3,829.1c1.9-5.1,4.2-9.7,7.1-13.7v0c2.9-4.1,6.2-7.7,10.3-10.8
		c4.2-3.1,8.8-5.6,14.1-7.2c5.2-1.7,11.1-2.5,17.6-2.6l0,0h0l0,0c6.6,0,12.4,0.9,17.6,2.6c5.3,1.7,9.9,4.1,14.1,7.2
		c4,3.1,7.4,6.7,10.3,10.8v0c2.8,4.1,5.2,8.7,7.1,13.7l0,0.1h0c38.4,94.5,75.4,190.1,116.5,283.3c-79.1,1.9-92.2-16-113.1-64
		l-0.4-1.1c-17.4-44.2-34.6-88.4-52.1-132.6c-17.5,44.1-34.8,88.4-52.1,132.6l-0.4,1.1c-20.9,48-34,65.9-113.1,64
		C621.9,1019.2,658.9,923.6,697.3,829.1z"/>
	<path class="st1" d="M418.7,950.7l30.4,34.2c4.9,5.7,93.8,104.9,102.4,115.2c-70.8,26.3-97.1,8.2-129.5-29.5
		c-1.4-1.3-2.7-2.6-4.1-4.1l-0.3-0.3l-65.5-77.1h-3.4v85.6c0,10.4-4.7,19.9-12,26.7c-7.2,6.7-16.9,11-27.1,11
		c-10.6,0-20.3-4-27.5-10.7c-7.2-6.8-11.7-16.3-11.7-27V832.6c0-10.7,4.5-20.2,11.7-27.2l0,0c7.1-6.8,16.8-10.9,27.5-10.9
		c10.8,0,20.5,4.1,27.5,10.9c7.3,7,11.6,16.6,11.6,27.3v84.8h3c25.9-28.6,52.5-59.3,78.2-87.5c32.1-35,48.3-47,115.6-22
		C505.3,855.8,460.7,903.9,418.7,950.7z"/>
	<path class="st1" d="M1062.6,829.1L1062.6,829.1L1062.6,829.1L1062.6,829.1c1.9-5.1,4.2-9.7,7.1-13.7v0c2.9-4.1,6.2-7.7,10.3-10.8
		c4.2-3.1,8.8-5.6,14.1-7.2c5.2-1.7,11.1-2.5,17.6-2.6l0,0h0l0,0c6.6,0,12.4,0.9,17.6,2.6c5.3,1.7,9.9,4.1,14.1,7.2
		c4,3.1,7.4,6.7,10.3,10.8v0c2.8,4.1,5.2,8.7,7.1,13.7l0,0.1h0c38.4,94.5,75.4,190.1,116.5,283.3c-75.6,1.8-90.9-14.5-110.4-57.9
		h-110.4c-19.5,43.4-34.7,59.7-110.4,57.9C987.2,1019.2,1024.2,923.6,1062.6,829.1L1062.6,829.1z M1142.5,992.9
		c-10.2-26.1-20.5-52.2-30.8-78.2c-10.3,26-20.6,52.1-30.8,78.2H1142.5z"/>
	<path class="st1" d="M2176.3,936c-0.5,46.8-0.6,93-0.6,139.8c0,21.3,18,38.2,39.1,38.2c21.4,0,39.5-16.4,39.5-38.2
		c0-81.2,0.2-162.3,0.2-243.6c0-31.6-34.7-51-61.9-36.1c-5.6,3-10.7,7.4-15.4,12.9l-125.9,160.7l0.7-72.8l0.1-1.1
		c-1.4-52.3-6.8-73.8-80.9-101.7c2.9,92.7,2.1,186,1.6,278.8c0,23.6,19.9,41.2,43.2,41.2c14.8,0,26.7-6.7,35.7-18.1L2176.3,936z"/>
	<path class="st1" d="M2462.4,950.7l30.4,34.2c4.9,5.7,93.8,104.9,102.4,115.2c-70.8,26.3-97.1,8.2-129.5-29.5
		c-1.4-1.3-2.7-2.6-4.1-4.1l-0.3-0.3l-65.5-77.1h-3.4v85.6c0,10.4-4.7,19.9-12,26.7c-7.2,6.7-16.9,11-27.1,11
		c-10.6,0-20.3-4-27.5-10.7c-7.2-6.8-11.7-16.3-11.7-27V832.6c0-10.7,4.5-20.2,11.7-27.2l0,0c7.1-6.8,16.8-10.9,27.5-10.9
		c10.8,0,20.5,4.1,27.5,10.9c7.3,7,11.6,16.6,11.6,27.3v84.8h3c25.9-28.6,52.5-59.3,78.2-87.5c32.1-35,48.3-47,115.6-22
		C2548.9,855.8,2504.3,903.9,2462.4,950.7z"/>
	<path class="st1" d="M1434.6,795.5c-86.1-1.8-163.3,68.5-161.9,157.2c0,88.7,73.8,159.2,161.9,157.4
		c65.9,1.4,127.4-40.2,151.4-100.1c-33.8-9.1-63-11.3-87.9,4.7c-12.9,8.3-14.2,15-31.3,20.2c-56.7,17.2-118.8-21.6-119-81.9v-0.2
		c0.2-60.3,62.3-99.1,119-81.9c17.1,5.2,18.3,11.9,31.3,20.2c24.9,16,54.1,13.7,87.9,4.7C1562,835.8,1500.5,794.2,1434.6,795.5z"/>
	<path class="st1" d="M1774.4,795.5c-86.1-1.8-163.3,68.5-161.9,157.2c0,88.7,73.8,159.2,161.9,157.4
		c65.9,1.4,127.4-40.2,151.4-100.1c-33.8-9.1-63-11.3-87.9,4.7c-12.9,8.3-14.2,15-31.3,20.2c-56.7,17.2-118.8-21.6-119-81.9v-0.2
		c0.2-60.3,62.3-99.1,119-81.9c17.1,5.2,18.3,11.9,31.3,20.2c24.9,16,54.1,13.7,87.9,4.7C1901.8,835.8,1840.3,794.2,1774.4,795.5z"
		/>
	<path class="st1" d="M397.3,371.4l-0.7-0.9c-33.2-40.4-50.7-54.1-126.3-30.6c40.1,48.4,78.9,97.8,117.2,147.6
		c-38.3,49.8-77.1,99.3-117.2,147.6c75.6,23.5,93,9.8,126.3-30.6l0.7-0.9c13.2-17.3,26.3-34.5,39.5-51.8
		c13.2,17.3,26.3,34.5,39.5,51.8l0.7,0.9c33.2,40.4,50.7,54.1,126.3,30.6c-40.1-48.4-78.9-97.8-117.2-147.6
		c38.3-49.8,77.1-99.3,117.2-147.6c-75.6-23.5-93-9.8-126.3,30.6l-0.7,0.9c-13.2,17.3-26.3,34.5-39.5,51.8
		C423.6,406,410.5,388.7,397.3,371.4z"/>
	<path class="st1" d="M779.3,329.7c-1.2,0-2.3,0-3.5,0c-87.5-1.8-165.9,69.7-164.1,160c-1.8,90.2,76.6,160.9,164.1,159.1
		c1.2,0,2.3,0,3.5,0c86.9-1.7,160.6-67.3,160.6-159C941.7,400.7,864.5,329.8,779.3,329.7z M861.4,489.3c0,23.5-7.8,43.5-23.5,59.5
		c-15.6,16-35,23.8-58.5,23.8l-0.1,0c-23.4,0-42.7-7.8-58.7-23.8c-15.6-16-23.4-36-23.4-59.5c0-45.9,35.6-83.6,82.1-83.7l0.1,0
		C825.7,404.6,862.4,444,861.4,489.3z"/>
	<path class="st1" d="M1514.9,471.1c-0.5,46.8-0.6,93-0.6,139.8c0,21.3,18,38.2,39.1,38.2c21.4,0,39.5-16.4,39.5-38.2
		c0-81.2,0.2-162.3,0.2-243.6c0-31.6-34.7-51-61.9-36.1c-5.6,3-10.7,7.4-15.4,12.9l-125.9,160.7l0.7-72.8l0.1-1.1
		c-1.4-52.3-6.8-73.8-80.9-101.7c2.9,92.7,2.1,186,1.6,278.8c0,23.6,19.9,41.2,43.2,41.2c14.8,0,26.7-6.7,35.7-18.1L1514.9,471.1z"
		/>
	<path class="st1" d="M1707.9,647.1c65.7,0,131.4,0,197.2,0c0,49,4.7,63.3,72.5,79c1.3-65.9,0.3-38.9,0.3-105
		c0-10.6-4.3-20.3-11.1-27.3c-6.1-6.3-14.2-10.5-23.1-11.5l-89.8-222.5l0-0.1c-3.7-9.8-9-17.8-16.8-23.7c-8-6-17.9-9.4-30.5-9.5l0,0
		h-0.1h-0.1l0,0c-12.6,0.1-22.6,3.5-30.5,9.5c-7.8,5.9-13.1,13.9-16.8,23.7l0,0.1l-89.8,222.5c-8.9,1-17,5.2-23.1,11.5
		c-6.8,7-11.1,16.7-11.1,27.3c0,66.1-1,39.1,0.3,105C1703.1,710.4,1707.9,696.1,1707.9,647.1L1707.9,647.1z M1752.7,582l1.2-2.8
		c0.1-0.3,0.3-0.7,0.4-1.1l52.1-137.6l52.1,137.6c0.1,0.4,0.2,0.7,0.4,1.1l1.3,2.8C1824.4,582,1788.5,582,1752.7,582z"/>
	<path class="st1" d="M1060.3,363.2L1060.3,363.2L1060.3,363.2L1060.3,363.2c1.9-5.1,4.2-9.7,7.1-13.7v0c2.9-4.1,6.2-7.7,10.3-10.8
		c4.2-3.1,8.8-5.6,14.1-7.2c5.2-1.7,11.1-2.5,17.6-2.6l0,0h0l0,0c6.6,0,12.4,0.9,17.6,2.6c5.3,1.7,9.9,4.1,14.1,7.2
		c4,3.1,7.4,6.7,10.3,10.8v0c2.8,4.1,5.2,8.7,7.1,13.7l0,0.1h0c38.4,94.5,75.4,190.1,116.5,283.3c-79.1,1.9-92.2-16-113.1-64
		l-0.4-1.1c-17.4-44.2-34.6-88.4-52.1-132.6c-17.5,44.1-34.8,88.4-52.1,132.6l-0.4,1.1c-20.9,48-34,65.9-113.1,64
		C984.9,553.3,1021.9,457.7,1060.3,363.2z"/>
	<path class="st1" d="M2090.2,562.5l61.5-0.6c51.2,1.4,72.3,6.7,99.5,79.2c-66.5-2.1-132.6-2-199.1-2c-19.5,0-36.3-15.7-36.3-35.5
		v-31.5V399.2v-31.5c0-19.8,16.7-35.5,36.3-35.5c66.5,0,132.6,0.2,199.1-2c-27.3,72.5-48.3,77.8-99.5,79.2l-61.5-0.6v40.1h54
		c20.2,0,35.5,16.2,35.5,35.4c0,18.8-15.7,35-35.5,35h-54V562.5z"/>
	<path class="st1" d="M2498.9,468.7c-0.5,46.8-0.6,93-0.6,139.8c0,21.3,18,38.2,39.1,38.2c21.4,0,39.5-16.4,39.5-38.2
		c0-81.2,0.2-162.3,0.2-243.6c0-31.6-34.7-51-61.9-36.1c-5.6,3-10.7,7.4-15.4,12.9l-125.9,160.7l0.7-72.8l0.1-1.1
		c-1.4-52.3-6.8-73.8-80.9-101.7c2.9,92.7,2.1,186,1.6,278.8c0,23.6,19.9,41.2,43.2,41.2c14.8,0,26.7-6.7,35.7-18.1L2498.9,468.7z"
		/>
	<path class="st1" d="M2404.7,237.2c1.4,29,1.7,62.8,0.6,89c69.6-20.3,88-51.6,91.2-90.9C2483.5,239.4,2441.3,239.1,2404.7,237.2z"
		/>
</g>
</svg>
