<?xml version="1.0" encoding="utf-8"?>
<!-- Generator: Adobe Illustrator 19.0.0, SVG Export Plug-In . SVG Version: 6.00 Build 0)  -->
<svg version="1.1" id="_x31_" xmlns="http://www.w3.org/2000/svg" xmlns:xlink="http://www.w3.org/1999/xlink" x="0px" y="0px"
	 viewBox="0 0 1196 562.4" style="enable-background:new 0 0 1196 562.4;" xml:space="preserve">
<style type="text/css">
	.st0{fill-rule:evenodd;clip-rule:evenodd;fill:#D1050C;}
	.st1{fill-rule:evenodd;clip-rule:evenodd;fill:#682C80;}
</style>
<path class="st0" d="M420,327.2L420,327.2c-18.3,0-32.3,14.9-32.3,32.9c0,9.2,3.1,17.1,9.2,23.4c6.3,6.3,13.9,9.3,23.1,9.3l0.1,0
	c9.2,0,16.8-3.1,23-9.4c6.1-6.3,9.2-14.2,9.2-23.4C452.6,342.3,438.1,326.8,420,327.2z"/>
<path class="st0" d="M844.1,395l-20.5-54.1L803.2,395c0,0.1-0.1,0.3-0.1,0.4l-0.5,1.1c14.1,0,28.2,0,42.2,0l-0.5-1.1
	C844.2,395.3,844.2,395.1,844.1,395z"/>
<g>
	<path class="st1" d="M98,100.2c-1.5,2.2-2.9,4.5-4.3,6.8l0.5,0.2C95.8,105,97,102.6,98,100.2z"/>
	<path class="st1" d="M125.2,159.2c-4.9,7-10.2,13.7-15.9,20c-5.6,6.1-12.5,12.4-20.8,14.3c-7.6,1.7-14.8-0.8-20.5-5.8l-0.1-0.1
		c-1.3-1.1-2.5-2.4-3.6-3.7c-1.3,7.9-1.9,16.6-0.3,23.7c0.7,2.9,2.9,10.7,5.9,12.2c1.5,0.7,4.3,0.2,5.8-0.1
		c9.9-2.3,18.6-10.1,25.1-17.6c10.2-11.8,19.2-24.7,26.7-38.3c1.3-2.3,2.6-4.6,4.2-6.7c1.2-6.1,3.2-12,5.7-17.7
		c-0.3,0.7-0.7,1.3-1,1.9C133.3,147.5,129.2,153.6,125.2,159.2z"/>
	<path class="st1" d="M553.1,97.4c-2.1-9.3-7.6-16.7-14.8-21.4c-0.1-3.9-0.5-7.8-1.4-11.6c-2.9-12.7-10-23.7-21.5-30.2
		c-0.6-0.3-1.2-0.7-1.9-1c-0.2-1.6-0.4-3.2-0.8-4.9c-3.3-14.6-15-24.6-29.4-27.4c-6.2-1.2-12.6-1.2-18.8,0.2
		c-12.4,2.8-23.3,9.2-29.7,20.5c-3.7,6.5-7,14.7-9.9,21.5c-0.8,1.8-1.6,3.5-2.4,5.3c-10.8-7-23.6-8.2-36.2-5.4
		c-13.1,3-24.4,9.9-33.9,19.2c-2.4,2.4-4.7,4.9-6.9,7.4c-7.6-4-16.6-5.3-26.4-3.1c-10,2.3-18.4,7.9-25.7,14.8
		c-0.5,0.5-1.1,1-1.6,1.5c-6.5-1.4-13.5-1.3-20.5,0.3c-5.1,1.2-9.8,3-14.2,5.6c-8.2-5.4-18.3-7.5-28.4-5.1
		c-6.4,1.5-12.1,4.6-16.8,8.9c-8.1-3.8-17.3-5-26.1-3.3c0.1-8.6-0.6-17.2-2.5-25.6c-2.4-10.6-8.3-19.8-16.6-26.8l-0.2-0.1
		c-6.8-5.7-14.7-9.6-23.3-11.8l-0.1,0c-8.5-2.1-17.4-2.5-26-0.5c-13.5,3.1-25.4,10.5-35.7,19.6c-9.6,8.5-18.2,18.3-25.8,28.6
		C48,82.7,41,93.4,34.6,104.5l0,0.1c-5.6,9.7-10.9,19.7-15.5,30l0,0.1c-3.5,7.8-6.4,15.9-9,24.1c-2.8,9-5,18.2-6.8,27.5
		C1.5,196,0.3,206,0.1,216c-0.3,10.3,0.4,20.7,2.7,30.7c3.3,14.3,9.6,27.5,20,38l0.1,0.1c9.4,9.4,20.6,16.2,33.6,19.3l0.2,0.1
		c11.1,2.6,22.6,2.9,33.8,0.3c16.9-3.9,31.7-13.3,44.4-24.9c8.5-7.8,16.4-16.4,23.5-25.4c0,0.2,0.1,0.5,0.1,0.7
		c1.3,5.8,3,11.8,5.4,17.2c7.4,16.1,23.4,26.1,41.4,22c12.1-2.8,20.7-11,26.7-21.4c3.8-6.6,7.3-13.6,10.7-20.3
		c3.5-6.8,7.1-13.7,11-20.3l5.5-9.2c5.4,1.3,11.4,1.4,18-0.2c5.9-1.4,11.3-4,15.8-7.7c9.3,4.5,19.7,5.7,29.8,3.4
		c11.1-2.5,20.3-9,28.1-16.9c0.2-0.2,0.3-0.3,0.5-0.5c10.9,5.1,23,6.5,35,3.7c0,0,0,0,0,0c0,0.2,0.1,0.4,0.1,0.6
		c1.6,7.2,4.7,13.9,9.3,19.7l0.1,0.2c9.3,11.6,23.9,17.2,38.5,13.9c11.2-2.6,20.6-9.8,26.1-19.9c3.2-5.9,4.8-12.7,6.1-19.3l0-0.2
		c0.9-5,1.8-9.9,2.7-14.9c1.8-0.3,3.7-0.6,5.5-1c8.3-1.9,16.3-5,23.8-8.8c8.3-4.2,16.1-9.3,23.3-15.3l0.1-0.1
		c7.6-6.3,14.3-13.6,19.7-21.7l0.2-0.2l0.2-0.2C550.1,125.4,556.5,112.4,553.1,97.4z M513.6,119.7l-0.1,0.1l-0.1,0.1
		c-4.6,6.8-10.2,12.9-16.5,18.2c-6.2,5.1-12.9,9.6-20.1,13.2c-6.4,3.2-13.1,5.9-20,7.5c-5.3,1.2-10.6,1.5-15.9,1
		c-0.6,3.3-1.3,6.6-1.9,9.9c-1.1,6.2-2.2,12.3-3.4,18.5l0,0.1c-0.9,4.7-2.1,10.2-4.4,14.4c-3.1,5.8-8.4,9.9-14.9,11.4
		c-8.3,1.9-16.3-1.4-21.5-7.9l-0.1-0.1c-3-3.8-5-8.3-6.1-13c-0.9-3.8-0.8-8.8-0.8-12.7c0-3.6,0.1-7.2,0.1-10.7
		c-5.8,4.7-12.3,8.3-19.8,10c-10.4,2.4-20.8,0.3-29.6-5.7l-0.1,0c-1.6-1.1-3.1-2.3-4.5-3.6c-3,3.8-6.2,7.4-9.6,10.8
		c-5.5,5.6-12.1,10.5-19.9,12.3c-6.5,1.5-13.3,0.6-19.2-2.5l-0.1-0.1c-4.1-2.1-7.2-5.2-9.6-8.8c-0.5,1.2-1.1,2.3-1.6,3.5
		c-3,6.1-8.4,10.6-15,12.1c-3.1,0.7-3.3,0.7-6.5,0.5c-5.8-0.4-10.4-2.8-14.1-6.3l-13.7,23c-4.1,6.9-7.9,14.1-11.5,21.2
		c-3.3,6.5-6.7,13.3-10.4,19.6c-3.6,6.3-8.4,11.7-15.8,13.3c-10.1,2.3-18.2-3.8-22.2-12.6c-2-4.3-3.3-9.3-4.3-13.9
		c-0.8-3.5-0.8-7.2,0-10.7c0.6-2.5,1.4-5,2.2-7.5c0.6-1.9,1.3-3.9,1.9-5.8c-6.4-0.3-11.9-3.8-16.5-8.3c-3.2,5-6.5,10-9.9,14.8
		c-8.6,12.1-18.4,23.5-29.4,33.6c-10.4,9.6-22.7,17.7-36.7,20.9c-8.7,2-17.5,1.7-26.1-0.3l-0.1,0c-9.9-2.4-18.4-7.6-25.6-14.8
		l-0.1-0.1c-8.1-8.2-13-18.7-15.5-29.9c-2-8.7-2.6-17.6-2.3-26.4c0.2-9.2,1.3-18.3,3-27.3c1.6-8.6,3.7-17.1,6.3-25.5
		c2.4-7.5,5.1-15,8.3-22.3c4.3-9.7,9.4-19.2,14.7-28.5c6.1-10.5,12.7-20.6,20-30.3c7-9.4,14.8-18.3,23.5-26.1
		c8.1-7.2,17.5-13.3,28.2-15.8c6-1.4,12.2-1,18.1,0.4l0.1,0c6.1,1.5,11.8,4.4,16.6,8.4l0.1,0.1c5.5,4.6,9.4,10.6,11,17.7
		c2.6,11.2,2.6,22.9,1.2,34.2c-1.6,13.3-7.1,27.6-13.1,40.2c1.4-2.6,3-5.1,4.4-7.5c3.3-5.5,7-10.7,11.1-15.7
		c4.7-5.7,10.4-11,17.8-12.7c6.4-1.5,13-0.3,18.7,3l0.1,0.1c3.3,1.9,6.2,4.4,8.3,7.4c1.1-1.8,2.3-3.7,3.4-5.5
		c2.9-5.4,7.6-9.4,13.7-10.8c8.1-1.8,15.8,1.5,20.9,7.9c1.1,1.3,2,2.8,2.9,4.2c0.1-0.2,0.3-0.4,0.4-0.6c4.5-6.3,11-10.3,18.4-12
		c7.6-1.7,15.5-0.9,21.2,3.2c2.8-3.2,5.7-6.4,8.7-9.2c5.1-4.8,11-9.1,17.9-10.6c11.6-2.7,20.5,3.3,25.1,12.7
		c4.4-7.9,9.8-15.1,16.3-21.4c7.3-7.1,15.9-12.5,25.9-14.8c8.4-1.9,17.2-1.4,24.4,3.9c5.1,3.7,8.8,8.8,10.6,14.7
		c0.3-0.5,0.6-0.9,0.9-1.4l0.1-0.1c5.6-8.5,10.4-17.5,14.5-26.9c2.7-6.2,5.7-14,9-19.8c4-7.1,11.2-10.7,18.8-12.4
		c3.9-0.9,7.9-0.8,11.8-0.1c7.8,1.5,14.3,6.5,16.2,14.6c1,4.3,0.3,8.7-1.7,12.5c-0.1,0.2-0.2,0.5-0.3,0.7c4.5,0.1,8.9,1.4,12.9,3.6
		c7.3,4.1,11.5,11.3,13.4,19.3c1.4,6.3,1.2,12.8-0.2,19c7.8,0.6,14.5,5.8,16.4,14C524.4,102.2,518.7,111.9,513.6,119.7z"/>
</g>
<path class="st0" d="M94.5,124.9c1.1,0.3,2.4,0.3,3.9,0c3.2-0.7,6.3-3.2,9.2-7.3c3-4.1,5.5-9,7.5-14.7c2-5.6,3.5-11.3,4.3-16.9
	c0.8-5.6,0.8-10.3-0.1-13.9c-0.1-0.3-0.2-1-0.4-2.1c-0.2-1.1-0.3-1.9-0.5-2.5c-0.9-4-2.7-5.7-5.3-5.2c-6.6,1.5-14.1,7.9-22.8,19.2
	c-8.6,11.3-16.7,25.2-24.3,41.5c-7.5,16.4-13.2,32.6-16.9,48.7c-3.7,16.1-4.4,29.4-2,39.8c4.7,20.4,15.3,28.7,32,24.9
	c11.8-2.7,23.2-10.4,34.1-23c11-12.6,20.5-26.4,28.8-41.3c2.5-4.7,4.5-7.1,5.8-7.4c1.4-0.3,2.3,0.3,2.7,1.8c0.4,1.8-1.8,7.5-6.7,17
	c-4.9,9.6-11.4,20.1-19.6,31.7c-8.2,11.5-17.2,21.9-27,30.9c-9.8,9.1-19.5,14.7-29,16.8c-5.9,1.3-12,1.2-18.5-0.3
	c-6.4-1.6-12.3-5-17.6-10.3c-5.3-5.3-9-12.6-11.1-21.8c-1.5-6.6-2.2-14-1.9-22.2c0.2-8.1,1.1-16.4,2.7-24.7
	c1.5-8.3,3.5-16.2,5.8-23.6c2.3-7.4,4.8-14.2,7.6-20.4c3.6-8.1,8.3-17.1,13.9-26.9c5.7-9.9,12-19.4,18.9-28.7
	c6.9-9.3,14-17.1,21.2-23.5c7.2-6.5,14.1-10.4,20.7-11.9c3.1-0.7,6.5-0.6,10.3,0.4c3.8,1,7.1,2.6,9.9,5c2.9,2.4,4.7,5.2,5.4,8.5
	c1.9,8.2,2.2,17.7,0.9,28.5c-1.3,10.8-6.4,25.1-15.5,42.7c-2,3.9-5.3,9.1-10,15.8c-4.7,6.7-9.5,12.8-14.5,18.3
	c-5,5.5-9.1,8.5-12.1,9.2c-1.7,0.4-3.6-0.3-5.6-2.1c-2-1.8-3.7-3.9-4.9-6.4c1.6-7.8,4.3-15.7,8.1-23.7
	C85.9,136.8,90.1,130.1,94.5,124.9L94.5,124.9z M164.6,160.1c3.6-2.3,7.2-6.3,11-12c3.8-5.7,6.9-11.5,9.3-17.3
	c2.5-5.8,3.5-9.7,3-11.7c-0.3-1.5-1.7-2.9-3.8-4.2c-2.2-1.3-4.4-1.6-6.5-1.2c-2.3,0.5-5.1,2.8-8.5,7c-3.4,4.2-6.7,8.7-9.7,13.7
	c-3,5-5.1,8.6-6.1,11c-5.7,12.6-7.4,24-5.1,34.3c0.7,3,3.3,7.5,7.8,13.5c4.5,6,8,8.7,10.3,8.2c2.3-0.5,6.4-4,12.2-10.3
	c5.8-6.4,10.1-11.3,12.7-14.9c0.4-0.7,0.8-1.1,1.3-1.2c0.6-0.1,1,0.3,1.2,1.1c0.2,0.8,0.1,2-0.3,3.7l-11.8,41.6
	c-0.8,2.7-1.7,5.5-2.6,8.3c-1,2.9-1.5,4.9-1.8,5.9c-0.3,1-0.2,2.1,0,3.1c2.2,9.6,4.3,14.2,6.3,13.8c1.4-0.3,3.1-2.1,4.9-5.3
	c1.8-3.2,5.2-9.5,10-18.9c4.8-9.4,8.9-16.8,12-22.1l28.9-48.3c0.8-1.5,1.2-2.7,1-3.4c-0.2-0.8-0.6-1.2-1.4-1.2l-2,0.5
	c-0.7,0.4-1.8,1.7-3.4,3.9l-23.7,32.2c-1.4,2-2.6,3.1-3.8,3.4c-0.1,0-0.5-0.1-1-0.5l-0.3-1.5c0-0.5,0.7-2.8,2.2-7l19.9-56.8
	c1.7-5,2.2-9.1,1.5-12.2c-0.4-1.9-1.3-3.6-2.6-5.2c-1.2-1.6-2.5-2.2-3.8-1.9c-1.1,0.2-2,1.1-2.8,2.7c-3.5,5.6-7.1,11.4-10.9,17.4
	c-3.8,6-7.9,12.2-12.4,18.4c-4.4,6.2-9.2,12.2-14.1,17.9c-1.3,1.5-3.8,4.3-7.6,8.1c-3.7,3.8-6,5.8-6.7,6c-0.8,0.2-1.7-0.1-2.7-1
	c-1-0.9-1.6-2.1-2-3.8c-0.5-2-0.6-3.8-0.3-5.4C162.7,166.7,163.4,163.9,164.6,160.1L164.6,160.1z M258.2,155.8
	c2.2-4,6.5-10.5,12.7-19.4c6.2-9,11.1-15.6,14.6-20c7.2-9,12.8-15.3,16.7-19c3.9-3.6,7.2-5.8,10-6.5c3.6-0.8,6,1.5,7.2,7
	c0.7,3.1,0.6,6.2-0.3,9.4c-0.9,3.2-2.1,6.4-3.7,9.5c-1.6,3.1-3.3,6.2-4.9,9.5c-3.9,8.2-5.2,14.6-4.2,19.1c1,4.3,3.7,6,8.2,4.9
	c4.5-1,9.2-5.2,14.3-12.6c2.6-3.3,4.4-5.1,5.2-5.3c1.2-0.3,1.9,0.5,2.4,2.4c0.3,1.1-0.6,3.3-2.6,6.5c-2.6,4.3-5.7,8.9-9.3,13.8
	c-3.6,4.9-7.5,9.6-11.9,13.9c-4.3,4.4-8.2,6.9-11.6,7.7c-2.6,0.6-5.2,0.2-7.8-1.1c-2.6-1.3-4.4-4.1-5.3-8.5
	c-1.2-5.2-0.6-11.1,1.7-17.4c0.1-0.2,0.2-0.5,0.5-1.2c0.3-0.6,1.7-3.7,4.4-9.3c2.2-4.8,3.2-7.8,2.9-9c-0.2-0.8-0.7-1.5-1.5-2.2
	c-0.9-0.6-2.1-0.7-3.8-0.3c-3.2,0.7-6.4,3.1-9.7,7c-3.3,4-7.1,9.8-11.7,17.6c-2.2,3.8-4.5,8.5-6.8,14.2c-2.4,5.7-3.9,9.4-4.8,11.2
	c-0.8,1.7-2.1,2.7-3.6,3.1c-5,1.1-9.4-5-13.3-18.3l-1.3-5.9c-0.6-4.3-0.3-8.3,0.8-11.9c1.1-3.6,3.2-8.9,6.3-16
	c3.6-8.2,6.3-13.6,8.2-16.2c1.9-2.6,4.7-4.4,8.4-5.3c5.2-1.2,8.1-0.3,8.8,2.5c0.4,1.7-0.5,4-2.7,6.9c-10.7,19.2-15.9,29.8-15.4,31.7
	C255.7,151.6,256.7,153.9,258.2,155.8L258.2,155.8z M354.7,127.1c2.6,11.3,8.1,16,16.6,14.1c5.2-1.2,11.8-5.9,19.7-14
	c3.4-3.5,6-6.4,7.9-8.7c1.9-2.4,3.1-3.6,3.8-3.7c0.9-0.2,1.5,0.8,2,3c0.2,0.9-1.5,4.6-5.2,11c-4.4,7.2-9.6,14.4-15.6,21.5
	c-6.1,7.1-12.5,11.4-19.3,13c-5.8,1.3-11.2,0.3-16.2-3.2c-5-3.5-8.4-9.1-10.2-16.9c-1.4-6.2-1.3-13.4,0.3-21.6
	c1.6-8.2,4.5-16.1,8.5-23.8c4-7.7,8.9-14.3,14.6-19.9c5.7-5.5,11.6-9,17.9-10.4c4.7-1.1,8.2-0.7,10.6,1.1c2.4,1.8,3.9,4,4.5,6.6
	c1,4.6-0.3,10.4-3.9,17.5c-3.7,7.1-8.8,13.9-15.4,20.4C368.5,119.4,361.8,124.1,354.7,127.1L354.7,127.1z M352.9,119
	c3.5-1.9,7.4-4.9,11.7-9.3c4.3-4.3,7.8-8.7,10.4-13.3c2.6-4.5,3.7-8.2,3-10.9c-0.8-3.7-2.8-5.2-5.8-4.5c-4.9,1.1-9.2,5.9-13.1,14.2
	C355.4,103.6,353.2,111.6,352.9,119L352.9,119z M434.4,77.7L419.9,130c-6.7,9.4-11.6,19.3-14.5,29.7c-0.5,17.7-0.5,27.6,0,29.6
	c0.6,2.5,1.6,4.6,2.9,6.3c1.3,1.7,2.8,2.3,4.5,2c1.7-0.4,2.9-1.4,3.8-2.9c0.8-1.5,1.7-4.7,2.6-9.6c0.9-4.9,2-11,3.4-18.4
	c1.3-7.4,3.2-16.6,5.5-27.5c9,3.8,17.5,4.9,25.2,3.1c5-1.1,10.4-3.2,16.2-6.1c5.9-2.9,11.5-6.6,16.8-11.1c5.3-4.4,9.7-9.3,13.2-14.5
	c4.7-7.3,6.8-12,6.3-14.2c-0.2-0.8-0.9-1.1-2.2-0.8c-0.5,0.1-1.3,1.1-2.3,2.8c-1.5,3.3-4.2,6.9-8,10.8c-3.8,4-8.7,6.6-14.7,8
	c-5.3,1.2-10.1,1.4-14.4,0.5c4.4-4.8,8.7-10.4,13-16.8c4.3-6.4,7.7-12.9,10.3-19.7c2.6-6.8,3.3-12.7,2.1-17.9
	c-0.9-4.1-2.7-6.9-5.2-8.3c-2.5-1.4-5.2-1.8-8.1-1.1c-2.9,0.7-6.7,3.2-11.4,7.6c-4.7,4.4-9.3,9.3-13.8,14.8
	c-4.4,5.5-7.8,10.1-10.1,13.7c1.5-4.1,2.8-8.2,4-12.2c3.9-12.1,10.6-28.7,20.2-49.8c0.2-0.2,0.3-0.5,0.2-0.8
	c-0.2-0.8-1.2-1.4-2.9-1.8c-1.8-0.3-3.4-0.4-4.7-0.1c-4.2,1-6.8,2.4-7.9,4.3c-1.1,2-3.9,8-8.2,18c-4.3,10-9.6,19.9-15.8,29.4
	c-10.4,16.3-17,26.7-19.8,31.3c-2.8,4.6-4.2,7.3-4.3,8.1l0.4,1.8c0.3,0.5,0.9,0.7,1.9,0.4c0.8-0.2,2.1-1.5,3.8-4.1L434.4,77.7
	L434.4,77.7z M433.2,120.7c4.6-10.2,9.8-19.5,15.6-27.9c5.8-8.4,10.8-13.1,14.9-14c2.7-0.6,4.8,0.1,6.2,2.2l0.7,3.3
	c-0.1,3.3-1.8,8.3-5,15c-3.2,6.7-7.1,12.6-11.7,17.9c-5-1.1-8.9-1.4-12-0.7C439,117.1,436.1,118.5,433.2,120.7z"/>
<path class="st0" d="M1188.2,216.8c-5.2-13-12.7-24.7-22.1-34.5c-9.4-9.8-20.6-17.8-33-23.2c-12-5.2-25.1-8.1-38.9-8.1H477.5
	c-0.2,0.1-0.4,0.2-0.6,0.3c-6.4,3.2-13.1,5.9-20,7.5c-5.3,1.2-10.6,1.5-15.9,1c-0.6,3.3-1.3,6.6-1.9,9.9c-1.1,6.2-2.2,12.3-3.4,18.5
	l0,0.1c-0.9,4.7-2.1,10.2-4.4,14.4c-3.1,5.8-8.4,9.9-14.9,11.4c-8.3,1.9-16.3-1.4-21.5-7.9l-0.1-0.1c-3-3.8-5-8.3-6.1-13
	c-0.9-3.8-0.8-8.8-0.8-12.7c0-3.6,0.1-7.2,0.1-10.7c-5.8,4.7-12.3,8.3-19.8,10c-10.4,2.4-20.8,0.3-29.6-5.7l-0.1,0
	c-1.6-1.1-3.1-2.3-4.5-3.6c-3,3.8-6.2,7.4-9.6,10.8c-5.5,5.6-12.1,10.5-19.9,12.3c-6.5,1.5-13.3,0.6-19.2-2.5l-0.1-0.1
	c-4.1-2.1-7.2-5.2-9.6-8.8c-0.5,1.2-1.1,2.3-1.6,3.5c-3,6.1-8.4,10.6-15,12.1c-3.1,0.7-3.3,0.7-6.5,0.5c-5.8-0.4-10.4-2.8-14.1-6.3
	l-13.7,23c-4.1,6.9-7.9,14.1-11.5,21.2c-3.3,6.5-6.7,13.3-10.4,19.6c-3.6,6.3-8.4,11.7-15.8,13.3c-10.1,2.3-18.2-3.8-22.2-12.6
	c-2-4.3-3.3-9.3-4.3-13.9c-0.8-3.5-0.8-7.2,0-10.7c0.6-2.5,1.4-5,2.2-7.5c0.6-1.9,1.3-3.9,1.9-5.8c-2.3-0.1-4.5-0.6-6.6-1.5
	c-4.9,12.4-7.6,26-7.6,40.2v198.9c0,14.3,2.7,27.9,7.7,40.5c5.2,13,12.7,24.7,22.1,34.5c9.4,9.8,20.6,17.8,33,23.2
	c12,5.2,25.1,8.1,38.9,8.1h842.1c13.7,0,26.9-2.9,38.9-8.1c12.4-5.4,23.7-13.3,33-23.2c9.4-9.8,16.9-21.5,22.1-34.5
	c5-12.5,7.7-26.2,7.7-40.5V257.2C1196,243,1193.2,229.3,1188.2,216.8z M1094.9,260.2c-1.3,15.5-8.5,27.8-35.9,35.7
	c0.4-10.3,0.3-23.6-0.2-35C1073.2,261.8,1089.8,261.9,1094.9,260.2z M350.7,417.4c-29.7,9.2-36.6,3.9-49.6-12l-0.3-0.4
	c-5.2-6.8-10.3-13.6-15.5-20.4c-5.2,6.8-10.3,13.6-15.5,20.4l-0.3,0.4c-13.1,15.9-19.9,21.3-49.6,12c15.8-19,31-38.4,46.1-58
	c-15.1-19.6-30.3-39-46.1-58c29.7-9.2,36.6-3.9,49.6,12l0.3,0.4c5.2,6.8,10.3,13.6,15.5,20.4c5.2-6.8,10.3-13.6,15.5-20.4l0.3-0.4
	c13.1-15.9,19.9-21.3,49.6-12c-15.8,19-31,38.4-46.1,58C319.6,379,334.9,398.4,350.7,417.4z M419.9,422.8c-0.5,0-0.9,0-1.4,0
	c-34.4,0.7-65.2-27-64.5-62.5c-0.7-35.5,30.1-63.6,64.5-62.9c0.5,0,0.9,0,1.4,0c33.5,0.1,63.8,27.9,63.1,62.9
	C483,396.3,454.1,422.1,419.9,422.8z M570.3,396.7l-0.2-0.4c-6.8-17.4-13.6-34.8-20.5-52.1c-6.9,17.4-13.7,34.8-20.5,52.1l-0.2,0.4
	c-8.2,18.9-13.3,25.9-44.4,25.2c16.2-36.6,30.7-74.2,45.8-111.4h0l0,0h0c0.7-2,1.7-3.8,2.8-5.4v0c1.1-1.6,2.5-3,4-4.2
	c1.6-1.2,3.5-2.2,5.5-2.8c2.1-0.6,4.4-1,6.9-1l0,0h0l0,0c2.6,0,4.9,0.4,6.9,1c2.1,0.7,3.9,1.6,5.5,2.8c1.6,1.2,2.9,2.6,4,4.2v0
	c1.1,1.6,2,3.4,2.8,5.4l0,0h0c15.1,37.1,29.6,74.7,45.8,111.4C583.7,422.6,578.5,415.6,570.3,396.7z M739.7,407.9
	c0,8.6-7.1,15-15.5,15c-8.3,0-15.4-6.7-15.4-15c0-18.4,0-36.5,0.2-54.9l-49,62.8c-3.5,4.5-8.2,7.1-14,7.1c-9.1,0-17-6.9-17-16.2
	c0.2-36.5,0.5-73.1-0.6-109.6c29.1,10.9,31.2,19.4,31.8,40l0,0.5l-0.3,28.6l49.5-63.2c1.9-2.2,3.9-3.9,6.1-5.1
	c10.7-5.9,24.3,1.8,24.3,14.2C739.8,344.1,739.7,375.9,739.7,407.9z M890.9,453.2c-26.6-6.2-28.5-11.8-28.5-31.1
	c-25.8,0-51.7,0-77.5,0c0,19.3-1.9,24.9-28.5,31.1c-0.5-25.9-0.1-15.3-0.1-41.3c0-4.2,1.7-8,4.3-10.7c2.4-2.5,5.6-4.1,9.1-4.5
	l35.3-87.5l0,0c1.5-3.8,3.5-7,6.6-9.3c3.1-2.4,7-3.7,12-3.7h0h0c5,0,8.9,1.4,12,3.7c3.1,2.3,5.1,5.5,6.6,9.3l0,0l35.3,87.5
	c3.5,0.4,6.7,2.1,9.1,4.5c2.7,2.8,4.3,6.5,4.3,10.7C891,437.9,891.4,427.3,890.9,453.2z M956.4,344.2c8,0,14,6.4,14,13.9
	c0,7.4-6.2,13.7-14,13.7h-21.2v17l24.2-0.3c20.1,0.5,28.4,2.6,39.1,31.1c-26.1-0.8-52.1-0.8-78.3-0.8c-7.7,0-14.3-6.2-14.3-14v-12.4
	v-67.9v-12.4c0-7.8,6.6-14,14.3-14c26.1,0,52.1,0.1,78.3-0.8c-10.7,28.5-19,30.6-39.1,31.1l-24.2-0.3v15.8H956.4z M1126.5,406.9
	c0,8.6-7.1,15-15.5,15c-8.3,0-15.4-6.7-15.4-15c0-18.4,0-36.5,0.2-54.9l-49,62.8c-3.5,4.5-8.2,7.1-14,7.1c-9.1,0-17-6.9-17-16.2
	c0.2-36.5,0.5-73.1-0.6-109.6c29.1,10.9,31.2,19.4,31.8,40l0,0.4l-0.3,28.6l49.5-63.2c1.9-2.2,3.9-3.9,6.1-5.1
	c10.7-5.9,24.3,1.8,24.3,14.2C1126.6,343.1,1126.5,375,1126.5,406.9z"/>
</svg>
