<?xml version="1.0" encoding="utf-8"?>
<!-- Generator: Adobe Illustrator 19.0.0, SVG Export Plug-In . SVG Version: 6.00 Build 0)  -->
<svg version="1.1" id="Слой_1" xmlns="http://www.w3.org/2000/svg" xmlns:xlink="http://www.w3.org/1999/xlink" x="0px" y="0px"
	 viewBox="0 0 350 43.8" style="enable-background:new 0 0 350 43.8;" xml:space="preserve">
<style type="text/css">
	.st0{fill:#FFFFFF;}
</style>
<path class="st0" d="M215.9,42.8l-12.8,0l0-41.8l12.8,0L215.9,42.8z"/>
<path class="st0" d="M241.1,1c12.8,0,21.1,7.7,21.1,20.8c0,13.9-7.6,21-21.3,21l-18.4,0l0-41.8L241.1,1z M235,32.2l5,0
	c6.3,0,9.4-3.9,9.4-10.2c0-7.1-4-10.5-10.6-10.5l-3.8,0L235,32.2z"/>
<path class="st0" d="M302.3,11.2l-22,0l0,5.2l20,0l0,9.7l-20,0l0,6.1l22.6,0l0,10.6l-35.2,0l0-41.8l34.6,0L302.3,11.2z"/>
<path class="st0" d="M321.5,36.9l-2.1,5.9l-13,0L321.9,1l12.7,0L350,42.8l-13,0l-2.1-5.9l-2.8-9c-0.8-2.4-2.2-7.2-2.2-7.2
	c-0.9-2.9-1-3.6-1.6-6.3c-0.7,2.9-0.9,3.8-1.8,6.4c0,0-0.9,2.9-2.3,7.1L321.5,36.9z"/>
<path class="st0" d="M21.1,1.1c6.9,0,14.8,1.8,14.8,10.4c0,4.1-2,6.5-5.2,8.4c4.7,1.6,7.3,4.9,7.3,10.3c0,9.8-7.9,12.7-16,12.7
	L0,42.9L0,1.1L21.1,1.1z M12.4,17l7.2,0c2.4,0,3.9-1.2,3.9-3.2c0-2.2-1.5-3.3-4.5-3.3l-6.6,0L12.4,17z M12.4,32.9l7.9,0
	c3.2,0,4.9-1.3,4.9-3.9c0-2.6-1.7-4-4.9-4l-7.9,0L12.4,32.9z"/>
<path class="st0" d="M132.3,43.8c-12.8,0-20.9-9.6-21-22c0-12.3,8.5-21.8,21.2-21.8c10.2,0,18.4,7.1,19,16.5l-12.4,0
	c-0.7-3.8-3.1-5.9-6.8-5.9c-6,0-8,6-8,11.2c0,6.9,3.1,11.2,8,11.2c3.8,0,6.1-2.3,6.8-6.7l12.6,0C150.9,37.9,142.5,43.8,132.3,43.8z"
	/>
<path class="st0" d="M181.3,17.3l17.6,25.5l-16,0l-10.2-16.3l-3.8,3.9l0,12.3l-12.6,0l0-41.8L169,1l-0.1,8.4c0,4-0.1,2.8-0.2,6.4
	L180.6,1l15.8,0L181.3,17.3z"/>
<path class="st0" d="M97.6,1.1l-12.7,0L73.5,31.9l-18.5,0l0-30.9l-12.8,0l0,41.8l27.3,0l13,0l2.1-5.9l2.8-9c1.4-4.2,2.3-7.1,2.3-7.1
	c0.8-2.6,1.1-3.5,1.8-6.4c0.6,2.8,0.7,3.5,1.6,6.3c0,0,1.5,4.7,2.2,7.2l2.8,9l2.1,5.9l13,0L97.6,1.1z"/>
</svg>
